%TF.GenerationSoftware,KiCad,Pcbnew,(6.0.4)*%
%TF.CreationDate,2022-04-14T11:49:59+05:30*%
%TF.ProjectId,6keymacro,366b6579-6d61-4637-926f-2e6b69636164,rev?*%
%TF.SameCoordinates,Original*%
%TF.FileFunction,Copper,L1,Top*%
%TF.FilePolarity,Positive*%
%FSLAX46Y46*%
G04 Gerber Fmt 4.6, Leading zero omitted, Abs format (unit mm)*
G04 Created by KiCad (PCBNEW (6.0.4)) date 2022-04-14 11:49:59*
%MOMM*%
%LPD*%
G01*
G04 APERTURE LIST*
%TA.AperFunction,ComponentPad*%
%ADD10C,2.200000*%
%TD*%
%TA.AperFunction,ComponentPad*%
%ADD11R,1.600000X1.600000*%
%TD*%
%TA.AperFunction,ComponentPad*%
%ADD12C,1.600000*%
%TD*%
%TA.AperFunction,Conductor*%
%ADD13C,0.250000*%
%TD*%
G04 APERTURE END LIST*
D10*
%TO.P,K5,1*%
%TO.N,col3*%
X157162500Y-47625000D03*
%TO.P,K5,2*%
%TO.N,Net-(D5-Pad2)*%
X150812500Y-50165000D03*
%TD*%
%TO.P,K4,1*%
%TO.N,col2*%
X138112500Y-66675000D03*
%TO.P,K4,2*%
%TO.N,Net-(D4-Pad2)*%
X131762500Y-69215000D03*
%TD*%
%TO.P,K1,1*%
%TO.N,col1*%
X119062500Y-47625000D03*
%TO.P,K1,2*%
%TO.N,Net-(D1-Pad2)*%
X112712500Y-50165000D03*
%TD*%
%TO.P,K2,1*%
%TO.N,col1*%
X119062500Y-66675000D03*
%TO.P,K2,2*%
%TO.N,Net-(D2-Pad2)*%
X112712500Y-69215000D03*
%TD*%
%TO.P,K3,1*%
%TO.N,col2*%
X138112500Y-47625000D03*
%TO.P,K3,2*%
%TO.N,Net-(D3-Pad2)*%
X131762500Y-50165000D03*
%TD*%
%TO.P,K6,1*%
%TO.N,col3*%
X157162500Y-66675000D03*
%TO.P,K6,2*%
%TO.N,Net-(D6-Pad2)*%
X150812500Y-69215000D03*
%TD*%
D11*
%TO.P,D2,1,K*%
%TO.N,row2*%
X120581250Y-61912500D03*
D12*
%TO.P,D2,2,A*%
%TO.N,Net-(D2-Pad2)*%
X112781250Y-61912500D03*
%TD*%
D11*
%TO.P,D3,1,K*%
%TO.N,row1*%
X139631250Y-42862500D03*
D12*
%TO.P,D3,2,A*%
%TO.N,Net-(D3-Pad2)*%
X131831250Y-42862500D03*
%TD*%
D11*
%TO.P,D5,1,K*%
%TO.N,row1*%
X157875000Y-42862500D03*
D12*
%TO.P,D5,2,A*%
%TO.N,Net-(D5-Pad2)*%
X150075000Y-42862500D03*
%TD*%
D11*
%TO.P,D4,1,K*%
%TO.N,row2*%
X139631250Y-61912500D03*
D12*
%TO.P,D4,2,A*%
%TO.N,Net-(D4-Pad2)*%
X131831250Y-61912500D03*
%TD*%
D11*
%TO.P,D6,1,K*%
%TO.N,row2*%
X157875000Y-61912500D03*
D12*
%TO.P,D6,2,A*%
%TO.N,Net-(D6-Pad2)*%
X150075000Y-61912500D03*
%TD*%
D11*
%TO.P,D1,1,K*%
%TO.N,row1*%
X120262500Y-42862500D03*
D12*
%TO.P,D1,2,A*%
%TO.N,Net-(D1-Pad2)*%
X112462500Y-42862500D03*
%TD*%
D11*
%TO.P,U1,1,TX*%
%TO.N,unconnected-(U1-Pad1)*%
X181451250Y-43180000D03*
D12*
%TO.P,U1,2,RX*%
%TO.N,unconnected-(U1-Pad2)*%
X181451250Y-45720000D03*
%TO.P,U1,3,GND*%
%TO.N,+5V*%
X181451250Y-48260000D03*
%TO.P,U1,4,GND*%
X181451250Y-50800000D03*
%TO.P,U1,5,SDA*%
%TO.N,unconnected-(U1-Pad5)*%
X181451250Y-53340000D03*
%TO.P,U1,6,SCL*%
%TO.N,unconnected-(U1-Pad6)*%
X181451250Y-55880000D03*
%TO.P,U1,7,D4*%
%TO.N,unconnected-(U1-Pad7)*%
X181451250Y-58420000D03*
%TO.P,U1,8,C6*%
%TO.N,unconnected-(U1-Pad8)*%
X181451250Y-60960000D03*
%TO.P,U1,9,D7*%
%TO.N,unconnected-(U1-Pad9)*%
X181451250Y-63500000D03*
%TO.P,U1,10,E6*%
%TO.N,col3*%
X181451250Y-66040000D03*
%TO.P,U1,11,B4*%
%TO.N,col2*%
X181451250Y-68580000D03*
%TO.P,U1,12,B5*%
%TO.N,col1*%
X181451250Y-71120000D03*
%TO.P,U1,13,B6*%
%TO.N,row1*%
X166211250Y-71120000D03*
%TO.P,U1,14,B2*%
%TO.N,row2*%
X166211250Y-68580000D03*
%TO.P,U1,15,B3*%
%TO.N,unconnected-(U1-Pad15)*%
X166211250Y-66040000D03*
%TO.P,U1,16,B1*%
%TO.N,unconnected-(U1-Pad16)*%
X166211250Y-63500000D03*
%TO.P,U1,17,F7*%
%TO.N,unconnected-(U1-Pad17)*%
X166211250Y-60960000D03*
%TO.P,U1,18,F6*%
%TO.N,unconnected-(U1-Pad18)*%
X166211250Y-58420000D03*
%TO.P,U1,19,F5*%
%TO.N,unconnected-(U1-Pad19)*%
X166211250Y-55880000D03*
%TO.P,U1,20,F4*%
%TO.N,unconnected-(U1-Pad20)*%
X166211250Y-53340000D03*
%TO.P,U1,21,VCC*%
%TO.N,unconnected-(U1-Pad21)*%
X166211250Y-50800000D03*
%TO.P,U1,22,RST*%
%TO.N,unconnected-(U1-Pad22)*%
X166211250Y-48260000D03*
%TO.P,U1,23,GND*%
%TO.N,unconnected-(U1-Pad23)*%
X166211250Y-45720000D03*
%TO.P,U1,24,RAW*%
%TO.N,unconnected-(U1-Pad24)*%
X166211250Y-43180000D03*
%TD*%
D13*
%TO.N,Net-(D1-Pad2)*%
X112712500Y-43112500D02*
X112462500Y-42862500D01*
%TO.N,Net-(D2-Pad2)*%
X112781250Y-69146250D02*
X112712500Y-69215000D01*
%TO.N,row2*%
X138424750Y-60706000D02*
X139631250Y-61912500D01*
X159543750Y-61912500D02*
X166211250Y-68580000D01*
X139631250Y-61912500D02*
X141345750Y-60198000D01*
X156160500Y-60198000D02*
X157875000Y-61912500D01*
X157875000Y-61912500D02*
X159543750Y-61912500D01*
X120581250Y-61912500D02*
X121787750Y-60706000D01*
X141345750Y-60198000D02*
X156160500Y-60198000D01*
X121787750Y-60706000D02*
X138424750Y-60706000D01*
%TO.N,Net-(D3-Pad2)*%
X131831250Y-50096250D02*
X131762500Y-50165000D01*
%TO.N,Net-(D4-Pad2)*%
X131831250Y-69146250D02*
X131762500Y-69215000D01*
%TO.N,Net-(D5-Pad2)*%
X150075000Y-49427500D02*
X150812500Y-50165000D01*
%TO.N,Net-(D6-Pad2)*%
X150075000Y-68477500D02*
X150812500Y-69215000D01*
%TO.N,+5V*%
X181451250Y-48260000D02*
X181451250Y-50800000D01*
%TD*%
%TA.AperFunction,Conductor*%
%TO.N,+5V*%
G36*
X185171121Y-41009752D02*
G01*
X185217614Y-41063408D01*
X185229000Y-41115750D01*
X185229000Y-82709250D01*
X185208998Y-82777371D01*
X185155342Y-82823864D01*
X185103000Y-82835250D01*
X105409500Y-82835250D01*
X105341379Y-82815248D01*
X105294886Y-82761592D01*
X105283500Y-82709250D01*
X105283500Y-77270568D01*
X124421382Y-77270568D01*
X124450208Y-77519699D01*
X124451587Y-77524573D01*
X124451588Y-77524577D01*
X124490526Y-77662181D01*
X124518494Y-77761017D01*
X124520628Y-77765592D01*
X124520630Y-77765599D01*
X124622347Y-77983731D01*
X124624484Y-77988313D01*
X124627326Y-77992494D01*
X124627326Y-77992495D01*
X124762605Y-78191552D01*
X124762608Y-78191556D01*
X124765451Y-78195739D01*
X124768928Y-78199416D01*
X124768929Y-78199417D01*
X124869238Y-78305491D01*
X124937767Y-78377959D01*
X124941793Y-78381037D01*
X124941794Y-78381038D01*
X125132981Y-78527212D01*
X125132985Y-78527215D01*
X125137001Y-78530285D01*
X125358026Y-78648797D01*
X125362807Y-78650443D01*
X125362811Y-78650445D01*
X125588538Y-78728169D01*
X125595156Y-78730448D01*
X125698689Y-78748331D01*
X125838380Y-78772460D01*
X125838386Y-78772461D01*
X125842290Y-78773135D01*
X125846251Y-78773315D01*
X125846252Y-78773315D01*
X125870931Y-78774436D01*
X125870950Y-78774436D01*
X125872350Y-78774500D01*
X126047015Y-78774500D01*
X126049523Y-78774298D01*
X126049528Y-78774298D01*
X126228944Y-78759863D01*
X126228949Y-78759862D01*
X126233985Y-78759457D01*
X126238893Y-78758252D01*
X126238896Y-78758251D01*
X126472625Y-78700841D01*
X126477539Y-78699634D01*
X126482191Y-78697659D01*
X126482195Y-78697658D01*
X126703741Y-78603617D01*
X126703742Y-78603617D01*
X126708396Y-78601641D01*
X126920615Y-78468000D01*
X127108738Y-78302147D01*
X127267924Y-78108351D01*
X127394078Y-77891596D01*
X127483955Y-77657461D01*
X127535241Y-77411967D01*
X127541662Y-77270568D01*
X143471382Y-77270568D01*
X143500208Y-77519699D01*
X143501587Y-77524573D01*
X143501588Y-77524577D01*
X143540526Y-77662181D01*
X143568494Y-77761017D01*
X143570628Y-77765592D01*
X143570630Y-77765599D01*
X143672347Y-77983731D01*
X143674484Y-77988313D01*
X143677326Y-77992494D01*
X143677326Y-77992495D01*
X143812605Y-78191552D01*
X143812608Y-78191556D01*
X143815451Y-78195739D01*
X143818928Y-78199416D01*
X143818929Y-78199417D01*
X143919238Y-78305491D01*
X143987767Y-78377959D01*
X143991793Y-78381037D01*
X143991794Y-78381038D01*
X144182981Y-78527212D01*
X144182985Y-78527215D01*
X144187001Y-78530285D01*
X144408026Y-78648797D01*
X144412807Y-78650443D01*
X144412811Y-78650445D01*
X144638538Y-78728169D01*
X144645156Y-78730448D01*
X144748689Y-78748331D01*
X144888380Y-78772460D01*
X144888386Y-78772461D01*
X144892290Y-78773135D01*
X144896251Y-78773315D01*
X144896252Y-78773315D01*
X144920931Y-78774436D01*
X144920950Y-78774436D01*
X144922350Y-78774500D01*
X145097015Y-78774500D01*
X145099523Y-78774298D01*
X145099528Y-78774298D01*
X145278944Y-78759863D01*
X145278949Y-78759862D01*
X145283985Y-78759457D01*
X145288893Y-78758252D01*
X145288896Y-78758251D01*
X145522625Y-78700841D01*
X145527539Y-78699634D01*
X145532191Y-78697659D01*
X145532195Y-78697658D01*
X145753741Y-78603617D01*
X145753742Y-78603617D01*
X145758396Y-78601641D01*
X145970615Y-78468000D01*
X146158738Y-78302147D01*
X146317924Y-78108351D01*
X146444078Y-77891596D01*
X146533955Y-77657461D01*
X146585241Y-77411967D01*
X146591662Y-77270568D01*
X162521382Y-77270568D01*
X162550208Y-77519699D01*
X162551587Y-77524573D01*
X162551588Y-77524577D01*
X162590526Y-77662181D01*
X162618494Y-77761017D01*
X162620628Y-77765592D01*
X162620630Y-77765599D01*
X162722347Y-77983731D01*
X162724484Y-77988313D01*
X162727326Y-77992494D01*
X162727326Y-77992495D01*
X162862605Y-78191552D01*
X162862608Y-78191556D01*
X162865451Y-78195739D01*
X162868928Y-78199416D01*
X162868929Y-78199417D01*
X162969238Y-78305491D01*
X163037767Y-78377959D01*
X163041793Y-78381037D01*
X163041794Y-78381038D01*
X163232981Y-78527212D01*
X163232985Y-78527215D01*
X163237001Y-78530285D01*
X163458026Y-78648797D01*
X163462807Y-78650443D01*
X163462811Y-78650445D01*
X163688538Y-78728169D01*
X163695156Y-78730448D01*
X163798689Y-78748331D01*
X163938380Y-78772460D01*
X163938386Y-78772461D01*
X163942290Y-78773135D01*
X163946251Y-78773315D01*
X163946252Y-78773315D01*
X163970931Y-78774436D01*
X163970950Y-78774436D01*
X163972350Y-78774500D01*
X164147015Y-78774500D01*
X164149523Y-78774298D01*
X164149528Y-78774298D01*
X164328944Y-78759863D01*
X164328949Y-78759862D01*
X164333985Y-78759457D01*
X164338893Y-78758252D01*
X164338896Y-78758251D01*
X164572625Y-78700841D01*
X164577539Y-78699634D01*
X164582191Y-78697659D01*
X164582195Y-78697658D01*
X164803741Y-78603617D01*
X164803742Y-78603617D01*
X164808396Y-78601641D01*
X165020615Y-78468000D01*
X165208738Y-78302147D01*
X165367924Y-78108351D01*
X165494078Y-77891596D01*
X165583955Y-77657461D01*
X165635241Y-77411967D01*
X165646618Y-77161432D01*
X165617792Y-76912301D01*
X165578810Y-76774539D01*
X165550884Y-76675852D01*
X165550883Y-76675850D01*
X165549506Y-76670983D01*
X165547372Y-76666408D01*
X165547370Y-76666401D01*
X165445653Y-76448269D01*
X165445651Y-76448265D01*
X165443516Y-76443687D01*
X165440674Y-76439505D01*
X165305395Y-76240448D01*
X165305392Y-76240444D01*
X165302549Y-76236261D01*
X165201925Y-76129853D01*
X165133713Y-76057721D01*
X165130233Y-76054041D01*
X165126206Y-76050962D01*
X164935019Y-75904788D01*
X164935015Y-75904785D01*
X164930999Y-75901715D01*
X164709974Y-75783203D01*
X164705193Y-75781557D01*
X164705189Y-75781555D01*
X164477633Y-75703201D01*
X164472844Y-75701552D01*
X164369311Y-75683669D01*
X164229620Y-75659540D01*
X164229614Y-75659539D01*
X164225710Y-75658865D01*
X164221749Y-75658685D01*
X164221748Y-75658685D01*
X164197069Y-75657564D01*
X164197050Y-75657564D01*
X164195650Y-75657500D01*
X164020985Y-75657500D01*
X164018477Y-75657702D01*
X164018472Y-75657702D01*
X163839056Y-75672137D01*
X163839051Y-75672138D01*
X163834015Y-75672543D01*
X163829107Y-75673748D01*
X163829104Y-75673749D01*
X163597326Y-75730680D01*
X163590461Y-75732366D01*
X163585809Y-75734341D01*
X163585805Y-75734342D01*
X163465061Y-75785595D01*
X163359604Y-75830359D01*
X163147385Y-75964000D01*
X162959262Y-76129853D01*
X162800076Y-76323649D01*
X162673922Y-76540404D01*
X162584045Y-76774539D01*
X162532759Y-77020033D01*
X162521382Y-77270568D01*
X146591662Y-77270568D01*
X146596618Y-77161432D01*
X146567792Y-76912301D01*
X146528810Y-76774539D01*
X146500884Y-76675852D01*
X146500883Y-76675850D01*
X146499506Y-76670983D01*
X146497372Y-76666408D01*
X146497370Y-76666401D01*
X146395653Y-76448269D01*
X146395651Y-76448265D01*
X146393516Y-76443687D01*
X146390674Y-76439505D01*
X146255395Y-76240448D01*
X146255392Y-76240444D01*
X146252549Y-76236261D01*
X146151925Y-76129853D01*
X146083713Y-76057721D01*
X146080233Y-76054041D01*
X146076206Y-76050962D01*
X145885019Y-75904788D01*
X145885015Y-75904785D01*
X145880999Y-75901715D01*
X145659974Y-75783203D01*
X145655193Y-75781557D01*
X145655189Y-75781555D01*
X145427633Y-75703201D01*
X145422844Y-75701552D01*
X145319311Y-75683669D01*
X145179620Y-75659540D01*
X145179614Y-75659539D01*
X145175710Y-75658865D01*
X145171749Y-75658685D01*
X145171748Y-75658685D01*
X145147069Y-75657564D01*
X145147050Y-75657564D01*
X145145650Y-75657500D01*
X144970985Y-75657500D01*
X144968477Y-75657702D01*
X144968472Y-75657702D01*
X144789056Y-75672137D01*
X144789051Y-75672138D01*
X144784015Y-75672543D01*
X144779107Y-75673748D01*
X144779104Y-75673749D01*
X144547326Y-75730680D01*
X144540461Y-75732366D01*
X144535809Y-75734341D01*
X144535805Y-75734342D01*
X144415061Y-75785595D01*
X144309604Y-75830359D01*
X144097385Y-75964000D01*
X143909262Y-76129853D01*
X143750076Y-76323649D01*
X143623922Y-76540404D01*
X143534045Y-76774539D01*
X143482759Y-77020033D01*
X143471382Y-77270568D01*
X127541662Y-77270568D01*
X127546618Y-77161432D01*
X127517792Y-76912301D01*
X127478810Y-76774539D01*
X127450884Y-76675852D01*
X127450883Y-76675850D01*
X127449506Y-76670983D01*
X127447372Y-76666408D01*
X127447370Y-76666401D01*
X127345653Y-76448269D01*
X127345651Y-76448265D01*
X127343516Y-76443687D01*
X127340674Y-76439505D01*
X127205395Y-76240448D01*
X127205392Y-76240444D01*
X127202549Y-76236261D01*
X127101925Y-76129853D01*
X127033713Y-76057721D01*
X127030233Y-76054041D01*
X127026206Y-76050962D01*
X126835019Y-75904788D01*
X126835015Y-75904785D01*
X126830999Y-75901715D01*
X126609974Y-75783203D01*
X126605193Y-75781557D01*
X126605189Y-75781555D01*
X126377633Y-75703201D01*
X126372844Y-75701552D01*
X126269311Y-75683669D01*
X126129620Y-75659540D01*
X126129614Y-75659539D01*
X126125710Y-75658865D01*
X126121749Y-75658685D01*
X126121748Y-75658685D01*
X126097069Y-75657564D01*
X126097050Y-75657564D01*
X126095650Y-75657500D01*
X125920985Y-75657500D01*
X125918477Y-75657702D01*
X125918472Y-75657702D01*
X125739056Y-75672137D01*
X125739051Y-75672138D01*
X125734015Y-75672543D01*
X125729107Y-75673748D01*
X125729104Y-75673749D01*
X125497326Y-75730680D01*
X125490461Y-75732366D01*
X125485809Y-75734341D01*
X125485805Y-75734342D01*
X125365061Y-75785595D01*
X125259604Y-75830359D01*
X125047385Y-75964000D01*
X124859262Y-76129853D01*
X124700076Y-76323649D01*
X124573922Y-76540404D01*
X124484045Y-76774539D01*
X124432759Y-77020033D01*
X124421382Y-77270568D01*
X105283500Y-77270568D01*
X105283500Y-71912821D01*
X114014000Y-71912821D01*
X114053560Y-72225975D01*
X114132057Y-72531702D01*
X114248253Y-72825179D01*
X114400316Y-73101779D01*
X114585846Y-73357140D01*
X114801918Y-73587233D01*
X115045125Y-73788432D01*
X115311631Y-73957562D01*
X115315210Y-73959246D01*
X115315217Y-73959250D01*
X115593644Y-74090267D01*
X115593648Y-74090269D01*
X115597234Y-74091956D01*
X115897428Y-74189495D01*
X116207480Y-74248641D01*
X116443662Y-74263500D01*
X116601338Y-74263500D01*
X116837520Y-74248641D01*
X117147572Y-74189495D01*
X117447766Y-74091956D01*
X117451352Y-74090269D01*
X117451356Y-74090267D01*
X117729783Y-73959250D01*
X117729790Y-73959246D01*
X117733369Y-73957562D01*
X117999875Y-73788432D01*
X118243082Y-73587233D01*
X118459154Y-73357140D01*
X118644684Y-73101779D01*
X118796747Y-72825179D01*
X118912943Y-72531702D01*
X118991440Y-72225975D01*
X119031000Y-71912821D01*
X133064000Y-71912821D01*
X133103560Y-72225975D01*
X133182057Y-72531702D01*
X133298253Y-72825179D01*
X133450316Y-73101779D01*
X133635846Y-73357140D01*
X133851918Y-73587233D01*
X134095125Y-73788432D01*
X134361631Y-73957562D01*
X134365210Y-73959246D01*
X134365217Y-73959250D01*
X134643644Y-74090267D01*
X134643648Y-74090269D01*
X134647234Y-74091956D01*
X134947428Y-74189495D01*
X135257480Y-74248641D01*
X135493662Y-74263500D01*
X135651338Y-74263500D01*
X135887520Y-74248641D01*
X136197572Y-74189495D01*
X136497766Y-74091956D01*
X136501352Y-74090269D01*
X136501356Y-74090267D01*
X136779783Y-73959250D01*
X136779790Y-73959246D01*
X136783369Y-73957562D01*
X137049875Y-73788432D01*
X137293082Y-73587233D01*
X137509154Y-73357140D01*
X137694684Y-73101779D01*
X137846747Y-72825179D01*
X137962943Y-72531702D01*
X138041440Y-72225975D01*
X138081000Y-71912821D01*
X152114000Y-71912821D01*
X152153560Y-72225975D01*
X152232057Y-72531702D01*
X152348253Y-72825179D01*
X152500316Y-73101779D01*
X152685846Y-73357140D01*
X152901918Y-73587233D01*
X153145125Y-73788432D01*
X153411631Y-73957562D01*
X153415210Y-73959246D01*
X153415217Y-73959250D01*
X153693644Y-74090267D01*
X153693648Y-74090269D01*
X153697234Y-74091956D01*
X153997428Y-74189495D01*
X154307480Y-74248641D01*
X154543662Y-74263500D01*
X154701338Y-74263500D01*
X154937520Y-74248641D01*
X155247572Y-74189495D01*
X155547766Y-74091956D01*
X155551352Y-74090269D01*
X155551356Y-74090267D01*
X155829783Y-73959250D01*
X155829790Y-73959246D01*
X155833369Y-73957562D01*
X156099875Y-73788432D01*
X156343082Y-73587233D01*
X156559154Y-73357140D01*
X156744684Y-73101779D01*
X156896747Y-72825179D01*
X157012943Y-72531702D01*
X157091440Y-72225975D01*
X157131000Y-71912821D01*
X157131000Y-71597179D01*
X157091440Y-71284025D01*
X157012943Y-70978298D01*
X157011490Y-70974628D01*
X156898202Y-70688495D01*
X156898200Y-70688490D01*
X156896747Y-70684821D01*
X156894840Y-70681352D01*
X156746593Y-70411693D01*
X156746591Y-70411690D01*
X156744684Y-70408221D01*
X156559154Y-70152860D01*
X156366310Y-69947502D01*
X156345797Y-69925658D01*
X156345796Y-69925657D01*
X156343082Y-69922767D01*
X156099875Y-69721568D01*
X155833369Y-69552438D01*
X155829790Y-69550754D01*
X155829783Y-69550750D01*
X155551356Y-69419733D01*
X155551352Y-69419731D01*
X155547766Y-69418044D01*
X155247572Y-69320505D01*
X154937520Y-69261359D01*
X154701338Y-69246500D01*
X154543662Y-69246500D01*
X154307480Y-69261359D01*
X153997428Y-69320505D01*
X153697234Y-69418044D01*
X153693648Y-69419731D01*
X153693644Y-69419733D01*
X153415217Y-69550750D01*
X153415210Y-69550754D01*
X153411631Y-69552438D01*
X153145125Y-69721568D01*
X152901918Y-69922767D01*
X152899204Y-69925657D01*
X152899203Y-69925658D01*
X152878690Y-69947502D01*
X152685846Y-70152860D01*
X152500316Y-70408221D01*
X152498409Y-70411690D01*
X152498407Y-70411693D01*
X152350160Y-70681352D01*
X152348253Y-70684821D01*
X152346800Y-70688490D01*
X152346798Y-70688495D01*
X152233510Y-70974628D01*
X152232057Y-70978298D01*
X152153560Y-71284025D01*
X152114000Y-71597179D01*
X152114000Y-71912821D01*
X138081000Y-71912821D01*
X138081000Y-71597179D01*
X138041440Y-71284025D01*
X137962943Y-70978298D01*
X137961490Y-70974628D01*
X137848202Y-70688495D01*
X137848200Y-70688490D01*
X137846747Y-70684821D01*
X137844840Y-70681352D01*
X137696593Y-70411693D01*
X137696591Y-70411690D01*
X137694684Y-70408221D01*
X137509154Y-70152860D01*
X137316310Y-69947502D01*
X137295797Y-69925658D01*
X137295796Y-69925657D01*
X137293082Y-69922767D01*
X137049875Y-69721568D01*
X136783369Y-69552438D01*
X136779790Y-69550754D01*
X136779783Y-69550750D01*
X136501356Y-69419733D01*
X136501352Y-69419731D01*
X136497766Y-69418044D01*
X136197572Y-69320505D01*
X135887520Y-69261359D01*
X135651338Y-69246500D01*
X135493662Y-69246500D01*
X135257480Y-69261359D01*
X134947428Y-69320505D01*
X134647234Y-69418044D01*
X134643648Y-69419731D01*
X134643644Y-69419733D01*
X134365217Y-69550750D01*
X134365210Y-69550754D01*
X134361631Y-69552438D01*
X134095125Y-69721568D01*
X133851918Y-69922767D01*
X133849204Y-69925657D01*
X133849203Y-69925658D01*
X133828690Y-69947502D01*
X133635846Y-70152860D01*
X133450316Y-70408221D01*
X133448409Y-70411690D01*
X133448407Y-70411693D01*
X133300160Y-70681352D01*
X133298253Y-70684821D01*
X133296800Y-70688490D01*
X133296798Y-70688495D01*
X133183510Y-70974628D01*
X133182057Y-70978298D01*
X133103560Y-71284025D01*
X133064000Y-71597179D01*
X133064000Y-71912821D01*
X119031000Y-71912821D01*
X119031000Y-71597179D01*
X118991440Y-71284025D01*
X118912943Y-70978298D01*
X118911490Y-70974628D01*
X118798202Y-70688495D01*
X118798200Y-70688490D01*
X118796747Y-70684821D01*
X118794840Y-70681352D01*
X118646593Y-70411693D01*
X118646591Y-70411690D01*
X118644684Y-70408221D01*
X118459154Y-70152860D01*
X118266310Y-69947502D01*
X118245797Y-69925658D01*
X118245796Y-69925657D01*
X118243082Y-69922767D01*
X117999875Y-69721568D01*
X117733369Y-69552438D01*
X117729790Y-69550754D01*
X117729783Y-69550750D01*
X117451356Y-69419733D01*
X117451352Y-69419731D01*
X117447766Y-69418044D01*
X117147572Y-69320505D01*
X116837520Y-69261359D01*
X116601338Y-69246500D01*
X116443662Y-69246500D01*
X116207480Y-69261359D01*
X115897428Y-69320505D01*
X115597234Y-69418044D01*
X115593648Y-69419731D01*
X115593644Y-69419733D01*
X115315217Y-69550750D01*
X115315210Y-69550754D01*
X115311631Y-69552438D01*
X115045125Y-69721568D01*
X114801918Y-69922767D01*
X114799204Y-69925657D01*
X114799203Y-69925658D01*
X114778690Y-69947502D01*
X114585846Y-70152860D01*
X114400316Y-70408221D01*
X114398409Y-70411690D01*
X114398407Y-70411693D01*
X114250160Y-70681352D01*
X114248253Y-70684821D01*
X114246800Y-70688490D01*
X114246798Y-70688495D01*
X114133510Y-70974628D01*
X114132057Y-70978298D01*
X114053560Y-71284025D01*
X114014000Y-71597179D01*
X114014000Y-71912821D01*
X105283500Y-71912821D01*
X105283500Y-69215000D01*
X111099026Y-69215000D01*
X111118891Y-69467403D01*
X111120045Y-69472210D01*
X111120046Y-69472216D01*
X111139306Y-69552438D01*
X111177995Y-69713591D01*
X111179888Y-69718162D01*
X111179889Y-69718164D01*
X111263593Y-69920242D01*
X111274884Y-69947502D01*
X111407172Y-70163376D01*
X111571602Y-70355898D01*
X111764124Y-70520328D01*
X111979998Y-70652616D01*
X111984568Y-70654509D01*
X111984572Y-70654511D01*
X112209336Y-70747611D01*
X112213909Y-70749505D01*
X112298532Y-70769821D01*
X112455284Y-70807454D01*
X112455290Y-70807455D01*
X112460097Y-70808609D01*
X112712500Y-70828474D01*
X112964903Y-70808609D01*
X112969710Y-70807455D01*
X112969716Y-70807454D01*
X113126468Y-70769821D01*
X113211091Y-70749505D01*
X113215664Y-70747611D01*
X113440428Y-70654511D01*
X113440432Y-70654509D01*
X113445002Y-70652616D01*
X113660876Y-70520328D01*
X113853398Y-70355898D01*
X114017828Y-70163376D01*
X114150116Y-69947502D01*
X114161408Y-69920242D01*
X114245111Y-69718164D01*
X114245112Y-69718162D01*
X114247005Y-69713591D01*
X114285694Y-69552438D01*
X114304954Y-69472216D01*
X114304955Y-69472210D01*
X114306109Y-69467403D01*
X114325974Y-69215000D01*
X130149026Y-69215000D01*
X130168891Y-69467403D01*
X130170045Y-69472210D01*
X130170046Y-69472216D01*
X130189306Y-69552438D01*
X130227995Y-69713591D01*
X130229888Y-69718162D01*
X130229889Y-69718164D01*
X130313593Y-69920242D01*
X130324884Y-69947502D01*
X130457172Y-70163376D01*
X130621602Y-70355898D01*
X130814124Y-70520328D01*
X131029998Y-70652616D01*
X131034568Y-70654509D01*
X131034572Y-70654511D01*
X131259336Y-70747611D01*
X131263909Y-70749505D01*
X131348532Y-70769821D01*
X131505284Y-70807454D01*
X131505290Y-70807455D01*
X131510097Y-70808609D01*
X131762500Y-70828474D01*
X132014903Y-70808609D01*
X132019710Y-70807455D01*
X132019716Y-70807454D01*
X132176468Y-70769821D01*
X132261091Y-70749505D01*
X132265664Y-70747611D01*
X132490428Y-70654511D01*
X132490432Y-70654509D01*
X132495002Y-70652616D01*
X132710876Y-70520328D01*
X132903398Y-70355898D01*
X133067828Y-70163376D01*
X133200116Y-69947502D01*
X133211408Y-69920242D01*
X133295111Y-69718164D01*
X133295112Y-69718162D01*
X133297005Y-69713591D01*
X133335694Y-69552438D01*
X133354954Y-69472216D01*
X133354955Y-69472210D01*
X133356109Y-69467403D01*
X133375974Y-69215000D01*
X149199026Y-69215000D01*
X149218891Y-69467403D01*
X149220045Y-69472210D01*
X149220046Y-69472216D01*
X149239306Y-69552438D01*
X149277995Y-69713591D01*
X149279888Y-69718162D01*
X149279889Y-69718164D01*
X149363593Y-69920242D01*
X149374884Y-69947502D01*
X149507172Y-70163376D01*
X149671602Y-70355898D01*
X149864124Y-70520328D01*
X150079998Y-70652616D01*
X150084568Y-70654509D01*
X150084572Y-70654511D01*
X150309336Y-70747611D01*
X150313909Y-70749505D01*
X150398532Y-70769821D01*
X150555284Y-70807454D01*
X150555290Y-70807455D01*
X150560097Y-70808609D01*
X150812500Y-70828474D01*
X151064903Y-70808609D01*
X151069710Y-70807455D01*
X151069716Y-70807454D01*
X151226468Y-70769821D01*
X151311091Y-70749505D01*
X151315664Y-70747611D01*
X151540428Y-70654511D01*
X151540432Y-70654509D01*
X151545002Y-70652616D01*
X151760876Y-70520328D01*
X151953398Y-70355898D01*
X152117828Y-70163376D01*
X152250116Y-69947502D01*
X152261408Y-69920242D01*
X152345111Y-69718164D01*
X152345112Y-69718162D01*
X152347005Y-69713591D01*
X152385694Y-69552438D01*
X152404954Y-69472216D01*
X152404955Y-69472210D01*
X152406109Y-69467403D01*
X152425974Y-69215000D01*
X152406109Y-68962597D01*
X152347005Y-68716409D01*
X152345111Y-68711836D01*
X152252011Y-68487072D01*
X152252009Y-68487068D01*
X152250116Y-68482498D01*
X152117828Y-68266624D01*
X151953398Y-68074102D01*
X151760876Y-67909672D01*
X151545002Y-67777384D01*
X151540432Y-67775491D01*
X151540428Y-67775489D01*
X151315664Y-67682389D01*
X151315662Y-67682388D01*
X151311091Y-67680495D01*
X151226468Y-67660179D01*
X151069716Y-67622546D01*
X151069710Y-67622545D01*
X151064903Y-67621391D01*
X150812500Y-67601526D01*
X150560097Y-67621391D01*
X150555290Y-67622545D01*
X150555284Y-67622546D01*
X150398532Y-67660179D01*
X150313909Y-67680495D01*
X150309338Y-67682388D01*
X150309336Y-67682389D01*
X150084572Y-67775489D01*
X150084568Y-67775491D01*
X150079998Y-67777384D01*
X150075778Y-67779970D01*
X149980419Y-67838406D01*
X149942706Y-67853681D01*
X149935708Y-67854343D01*
X149850964Y-67884853D01*
X149792571Y-67905875D01*
X149792569Y-67905876D01*
X149785111Y-67908561D01*
X149652729Y-67998528D01*
X149546880Y-68118590D01*
X149543283Y-68125649D01*
X149543282Y-68125651D01*
X149537975Y-68136067D01*
X149474215Y-68261204D01*
X149472485Y-68268942D01*
X149472485Y-68268943D01*
X149457958Y-68333933D01*
X149442425Y-68372281D01*
X149374884Y-68482498D01*
X149372991Y-68487068D01*
X149372990Y-68487070D01*
X149279889Y-68711836D01*
X149277995Y-68716409D01*
X149218891Y-68962597D01*
X149199026Y-69215000D01*
X133375974Y-69215000D01*
X133356109Y-68962597D01*
X133297005Y-68716409D01*
X133295111Y-68711836D01*
X133202011Y-68487072D01*
X133202009Y-68487068D01*
X133200116Y-68482498D01*
X133067828Y-68266624D01*
X132903398Y-68074102D01*
X132710876Y-67909672D01*
X132495002Y-67777384D01*
X132490432Y-67775491D01*
X132490428Y-67775489D01*
X132265664Y-67682389D01*
X132265662Y-67682388D01*
X132261091Y-67680495D01*
X132176468Y-67660179D01*
X132019716Y-67622546D01*
X132019710Y-67622545D01*
X132014903Y-67621391D01*
X131762500Y-67601526D01*
X131510097Y-67621391D01*
X131505290Y-67622545D01*
X131505284Y-67622546D01*
X131348532Y-67660179D01*
X131263909Y-67680495D01*
X131259338Y-67682388D01*
X131259336Y-67682389D01*
X131034572Y-67775489D01*
X131034568Y-67775491D01*
X131029998Y-67777384D01*
X130814124Y-67909672D01*
X130621602Y-68074102D01*
X130457172Y-68266624D01*
X130324884Y-68482498D01*
X130322991Y-68487068D01*
X130322989Y-68487072D01*
X130229889Y-68711836D01*
X130227995Y-68716409D01*
X130168891Y-68962597D01*
X130149026Y-69215000D01*
X114325974Y-69215000D01*
X114306109Y-68962597D01*
X114247005Y-68716409D01*
X114245111Y-68711836D01*
X114152011Y-68487072D01*
X114152009Y-68487068D01*
X114150116Y-68482498D01*
X114017828Y-68266624D01*
X113853398Y-68074102D01*
X113660876Y-67909672D01*
X113445002Y-67777384D01*
X113440432Y-67775491D01*
X113440428Y-67775489D01*
X113215664Y-67682389D01*
X113215662Y-67682388D01*
X113211091Y-67680495D01*
X113126468Y-67660179D01*
X112969716Y-67622546D01*
X112969710Y-67622545D01*
X112964903Y-67621391D01*
X112712500Y-67601526D01*
X112460097Y-67621391D01*
X112455290Y-67622545D01*
X112455284Y-67622546D01*
X112298532Y-67660179D01*
X112213909Y-67680495D01*
X112209338Y-67682388D01*
X112209336Y-67682389D01*
X111984572Y-67775489D01*
X111984568Y-67775491D01*
X111979998Y-67777384D01*
X111764124Y-67909672D01*
X111571602Y-68074102D01*
X111407172Y-68266624D01*
X111274884Y-68482498D01*
X111272991Y-68487068D01*
X111272989Y-68487072D01*
X111179889Y-68711836D01*
X111177995Y-68716409D01*
X111118891Y-68962597D01*
X111099026Y-69215000D01*
X105283500Y-69215000D01*
X105283500Y-66675000D01*
X117449026Y-66675000D01*
X117468891Y-66927403D01*
X117527995Y-67173591D01*
X117529888Y-67178162D01*
X117529889Y-67178164D01*
X117612365Y-67377278D01*
X117624884Y-67407502D01*
X117757172Y-67623376D01*
X117921602Y-67815898D01*
X118114124Y-67980328D01*
X118329998Y-68112616D01*
X118334568Y-68114509D01*
X118334572Y-68114511D01*
X118559336Y-68207611D01*
X118563909Y-68209505D01*
X118645379Y-68229064D01*
X118805284Y-68267454D01*
X118805290Y-68267455D01*
X118810097Y-68268609D01*
X119062500Y-68288474D01*
X119314903Y-68268609D01*
X119319710Y-68267455D01*
X119319716Y-68267454D01*
X119479621Y-68229064D01*
X119561091Y-68209505D01*
X119565664Y-68207611D01*
X119790428Y-68114511D01*
X119790432Y-68114509D01*
X119795002Y-68112616D01*
X120010876Y-67980328D01*
X120203398Y-67815898D01*
X120367828Y-67623376D01*
X120500116Y-67407502D01*
X120512636Y-67377278D01*
X120595111Y-67178164D01*
X120595112Y-67178162D01*
X120597005Y-67173591D01*
X120656109Y-66927403D01*
X120675974Y-66675000D01*
X136499026Y-66675000D01*
X136518891Y-66927403D01*
X136577995Y-67173591D01*
X136579888Y-67178162D01*
X136579889Y-67178164D01*
X136662365Y-67377278D01*
X136674884Y-67407502D01*
X136807172Y-67623376D01*
X136971602Y-67815898D01*
X137164124Y-67980328D01*
X137379998Y-68112616D01*
X137384568Y-68114509D01*
X137384572Y-68114511D01*
X137609336Y-68207611D01*
X137613909Y-68209505D01*
X137695379Y-68229064D01*
X137855284Y-68267454D01*
X137855290Y-68267455D01*
X137860097Y-68268609D01*
X138112500Y-68288474D01*
X138364903Y-68268609D01*
X138369710Y-68267455D01*
X138369716Y-68267454D01*
X138529621Y-68229064D01*
X138611091Y-68209505D01*
X138615664Y-68207611D01*
X138840428Y-68114511D01*
X138840432Y-68114509D01*
X138845002Y-68112616D01*
X139060876Y-67980328D01*
X139253398Y-67815898D01*
X139417828Y-67623376D01*
X139550116Y-67407502D01*
X139562636Y-67377278D01*
X139645111Y-67178164D01*
X139645112Y-67178162D01*
X139647005Y-67173591D01*
X139706109Y-66927403D01*
X139725974Y-66675000D01*
X155549026Y-66675000D01*
X155568891Y-66927403D01*
X155627995Y-67173591D01*
X155629888Y-67178162D01*
X155629889Y-67178164D01*
X155712365Y-67377278D01*
X155724884Y-67407502D01*
X155857172Y-67623376D01*
X156021602Y-67815898D01*
X156214124Y-67980328D01*
X156429998Y-68112616D01*
X156434568Y-68114509D01*
X156434572Y-68114511D01*
X156659336Y-68207611D01*
X156663909Y-68209505D01*
X156745379Y-68229064D01*
X156905284Y-68267454D01*
X156905290Y-68267455D01*
X156910097Y-68268609D01*
X157162500Y-68288474D01*
X157414903Y-68268609D01*
X157419710Y-68267455D01*
X157419716Y-68267454D01*
X157579621Y-68229064D01*
X157661091Y-68209505D01*
X157665664Y-68207611D01*
X157890428Y-68114511D01*
X157890432Y-68114509D01*
X157895002Y-68112616D01*
X158110876Y-67980328D01*
X158303398Y-67815898D01*
X158467828Y-67623376D01*
X158600116Y-67407502D01*
X158612636Y-67377278D01*
X158695111Y-67178164D01*
X158695112Y-67178162D01*
X158697005Y-67173591D01*
X158756109Y-66927403D01*
X158775974Y-66675000D01*
X158756109Y-66422597D01*
X158697005Y-66176409D01*
X158695111Y-66171836D01*
X158602011Y-65947072D01*
X158602009Y-65947068D01*
X158600116Y-65942498D01*
X158467828Y-65726624D01*
X158303398Y-65534102D01*
X158110876Y-65369672D01*
X157895002Y-65237384D01*
X157890432Y-65235491D01*
X157890428Y-65235489D01*
X157665664Y-65142389D01*
X157665662Y-65142388D01*
X157661091Y-65140495D01*
X157576468Y-65120179D01*
X157419716Y-65082546D01*
X157419710Y-65082545D01*
X157414903Y-65081391D01*
X157162500Y-65061526D01*
X156910097Y-65081391D01*
X156905290Y-65082545D01*
X156905284Y-65082546D01*
X156748532Y-65120179D01*
X156663909Y-65140495D01*
X156659338Y-65142388D01*
X156659336Y-65142389D01*
X156434572Y-65235489D01*
X156434568Y-65235491D01*
X156429998Y-65237384D01*
X156214124Y-65369672D01*
X156021602Y-65534102D01*
X155857172Y-65726624D01*
X155724884Y-65942498D01*
X155722991Y-65947068D01*
X155722989Y-65947072D01*
X155629889Y-66171836D01*
X155627995Y-66176409D01*
X155568891Y-66422597D01*
X155549026Y-66675000D01*
X139725974Y-66675000D01*
X139706109Y-66422597D01*
X139647005Y-66176409D01*
X139645111Y-66171836D01*
X139552011Y-65947072D01*
X139552009Y-65947068D01*
X139550116Y-65942498D01*
X139417828Y-65726624D01*
X139253398Y-65534102D01*
X139060876Y-65369672D01*
X138845002Y-65237384D01*
X138840432Y-65235491D01*
X138840428Y-65235489D01*
X138615664Y-65142389D01*
X138615662Y-65142388D01*
X138611091Y-65140495D01*
X138526468Y-65120179D01*
X138369716Y-65082546D01*
X138369710Y-65082545D01*
X138364903Y-65081391D01*
X138112500Y-65061526D01*
X137860097Y-65081391D01*
X137855290Y-65082545D01*
X137855284Y-65082546D01*
X137698532Y-65120179D01*
X137613909Y-65140495D01*
X137609338Y-65142388D01*
X137609336Y-65142389D01*
X137384572Y-65235489D01*
X137384568Y-65235491D01*
X137379998Y-65237384D01*
X137164124Y-65369672D01*
X136971602Y-65534102D01*
X136807172Y-65726624D01*
X136674884Y-65942498D01*
X136672991Y-65947068D01*
X136672989Y-65947072D01*
X136579889Y-66171836D01*
X136577995Y-66176409D01*
X136518891Y-66422597D01*
X136499026Y-66675000D01*
X120675974Y-66675000D01*
X120656109Y-66422597D01*
X120597005Y-66176409D01*
X120595111Y-66171836D01*
X120502011Y-65947072D01*
X120502009Y-65947068D01*
X120500116Y-65942498D01*
X120367828Y-65726624D01*
X120203398Y-65534102D01*
X120010876Y-65369672D01*
X119795002Y-65237384D01*
X119790432Y-65235491D01*
X119790428Y-65235489D01*
X119565664Y-65142389D01*
X119565662Y-65142388D01*
X119561091Y-65140495D01*
X119476468Y-65120179D01*
X119319716Y-65082546D01*
X119319710Y-65082545D01*
X119314903Y-65081391D01*
X119062500Y-65061526D01*
X118810097Y-65081391D01*
X118805290Y-65082545D01*
X118805284Y-65082546D01*
X118648532Y-65120179D01*
X118563909Y-65140495D01*
X118559338Y-65142388D01*
X118559336Y-65142389D01*
X118334572Y-65235489D01*
X118334568Y-65235491D01*
X118329998Y-65237384D01*
X118114124Y-65369672D01*
X117921602Y-65534102D01*
X117757172Y-65726624D01*
X117624884Y-65942498D01*
X117622991Y-65947068D01*
X117622989Y-65947072D01*
X117529889Y-66171836D01*
X117527995Y-66176409D01*
X117468891Y-66422597D01*
X117449026Y-66675000D01*
X105283500Y-66675000D01*
X105283500Y-61912500D01*
X111467752Y-61912500D01*
X111487707Y-62140587D01*
X111489131Y-62145900D01*
X111489131Y-62145902D01*
X111529693Y-62297278D01*
X111546966Y-62361743D01*
X111549289Y-62366724D01*
X111549289Y-62366725D01*
X111641401Y-62564262D01*
X111641404Y-62564267D01*
X111643727Y-62569249D01*
X111775052Y-62756800D01*
X111936950Y-62918698D01*
X111941458Y-62921855D01*
X111941461Y-62921857D01*
X111982792Y-62950797D01*
X112124501Y-63050023D01*
X112129483Y-63052346D01*
X112129488Y-63052349D01*
X112327025Y-63144461D01*
X112332007Y-63146784D01*
X112337315Y-63148206D01*
X112337317Y-63148207D01*
X112547848Y-63204619D01*
X112547850Y-63204619D01*
X112553163Y-63206043D01*
X112781250Y-63225998D01*
X113009337Y-63206043D01*
X113014650Y-63204619D01*
X113014652Y-63204619D01*
X113225183Y-63148207D01*
X113225185Y-63148206D01*
X113230493Y-63146784D01*
X113235475Y-63144461D01*
X113433012Y-63052349D01*
X113433017Y-63052346D01*
X113437999Y-63050023D01*
X113579708Y-62950797D01*
X113621039Y-62921857D01*
X113621042Y-62921855D01*
X113625550Y-62918698D01*
X113783614Y-62760634D01*
X119272750Y-62760634D01*
X119279505Y-62822816D01*
X119330635Y-62959205D01*
X119417989Y-63075761D01*
X119534545Y-63163115D01*
X119670934Y-63214245D01*
X119733116Y-63221000D01*
X121429384Y-63221000D01*
X121491566Y-63214245D01*
X121627955Y-63163115D01*
X121744511Y-63075761D01*
X121831865Y-62959205D01*
X121882995Y-62822816D01*
X121889750Y-62760634D01*
X121889750Y-61552094D01*
X121909752Y-61483973D01*
X121926655Y-61462999D01*
X122013249Y-61376405D01*
X122075561Y-61342379D01*
X122102344Y-61339500D01*
X130465920Y-61339500D01*
X130534041Y-61359502D01*
X130580534Y-61413158D01*
X130590638Y-61483432D01*
X130587628Y-61498105D01*
X130537707Y-61684413D01*
X130517752Y-61912500D01*
X130537707Y-62140587D01*
X130539131Y-62145900D01*
X130539131Y-62145902D01*
X130579693Y-62297278D01*
X130596966Y-62361743D01*
X130599289Y-62366724D01*
X130599289Y-62366725D01*
X130691401Y-62564262D01*
X130691404Y-62564267D01*
X130693727Y-62569249D01*
X130825052Y-62756800D01*
X130986950Y-62918698D01*
X130991458Y-62921855D01*
X130991461Y-62921857D01*
X131032792Y-62950797D01*
X131174501Y-63050023D01*
X131179483Y-63052346D01*
X131179488Y-63052349D01*
X131377025Y-63144461D01*
X131382007Y-63146784D01*
X131387315Y-63148206D01*
X131387317Y-63148207D01*
X131597848Y-63204619D01*
X131597850Y-63204619D01*
X131603163Y-63206043D01*
X131831250Y-63225998D01*
X132059337Y-63206043D01*
X132064650Y-63204619D01*
X132064652Y-63204619D01*
X132275183Y-63148207D01*
X132275185Y-63148206D01*
X132280493Y-63146784D01*
X132285475Y-63144461D01*
X132483012Y-63052349D01*
X132483017Y-63052346D01*
X132487999Y-63050023D01*
X132629708Y-62950797D01*
X132671039Y-62921857D01*
X132671042Y-62921855D01*
X132675550Y-62918698D01*
X132837448Y-62756800D01*
X132968773Y-62569249D01*
X132971096Y-62564267D01*
X132971099Y-62564262D01*
X133063211Y-62366725D01*
X133063211Y-62366724D01*
X133065534Y-62361743D01*
X133082808Y-62297278D01*
X133123369Y-62145902D01*
X133123369Y-62145900D01*
X133124793Y-62140587D01*
X133144748Y-61912500D01*
X133124793Y-61684413D01*
X133074873Y-61498111D01*
X133076563Y-61427135D01*
X133116357Y-61368339D01*
X133181621Y-61340391D01*
X133196580Y-61339500D01*
X138110156Y-61339500D01*
X138178277Y-61359502D01*
X138199251Y-61376405D01*
X138285845Y-61462999D01*
X138319871Y-61525311D01*
X138322750Y-61552094D01*
X138322750Y-62760634D01*
X138329505Y-62822816D01*
X138380635Y-62959205D01*
X138467989Y-63075761D01*
X138584545Y-63163115D01*
X138720934Y-63214245D01*
X138783116Y-63221000D01*
X140479384Y-63221000D01*
X140541566Y-63214245D01*
X140677955Y-63163115D01*
X140794511Y-63075761D01*
X140881865Y-62959205D01*
X140932995Y-62822816D01*
X140939750Y-62760634D01*
X140939750Y-61552094D01*
X140959752Y-61483973D01*
X140976655Y-61462999D01*
X141571249Y-60868405D01*
X141633561Y-60834379D01*
X141660344Y-60831500D01*
X149001312Y-60831500D01*
X149069433Y-60851502D01*
X149115926Y-60905158D01*
X149126030Y-60975432D01*
X149096536Y-61040012D01*
X149090407Y-61046595D01*
X149068802Y-61068200D01*
X148937477Y-61255751D01*
X148935154Y-61260733D01*
X148935151Y-61260738D01*
X148854409Y-61433892D01*
X148840716Y-61463257D01*
X148839294Y-61468565D01*
X148839293Y-61468567D01*
X148798380Y-61621257D01*
X148781457Y-61684413D01*
X148761502Y-61912500D01*
X148781457Y-62140587D01*
X148782881Y-62145900D01*
X148782881Y-62145902D01*
X148823443Y-62297278D01*
X148840716Y-62361743D01*
X148843039Y-62366724D01*
X148843039Y-62366725D01*
X148935151Y-62564262D01*
X148935154Y-62564267D01*
X148937477Y-62569249D01*
X149068802Y-62756800D01*
X149230700Y-62918698D01*
X149235208Y-62921855D01*
X149235211Y-62921857D01*
X149276542Y-62950797D01*
X149418251Y-63050023D01*
X149423233Y-63052346D01*
X149423238Y-63052349D01*
X149620775Y-63144461D01*
X149625757Y-63146784D01*
X149631065Y-63148206D01*
X149631067Y-63148207D01*
X149841598Y-63204619D01*
X149841600Y-63204619D01*
X149846913Y-63206043D01*
X150075000Y-63225998D01*
X150303087Y-63206043D01*
X150308400Y-63204619D01*
X150308402Y-63204619D01*
X150518933Y-63148207D01*
X150518935Y-63148206D01*
X150524243Y-63146784D01*
X150529225Y-63144461D01*
X150726762Y-63052349D01*
X150726767Y-63052346D01*
X150731749Y-63050023D01*
X150873458Y-62950797D01*
X150914789Y-62921857D01*
X150914792Y-62921855D01*
X150919300Y-62918698D01*
X151081198Y-62756800D01*
X151212523Y-62569249D01*
X151214846Y-62564267D01*
X151214849Y-62564262D01*
X151306961Y-62366725D01*
X151306961Y-62366724D01*
X151309284Y-62361743D01*
X151326558Y-62297278D01*
X151367119Y-62145902D01*
X151367119Y-62145900D01*
X151368543Y-62140587D01*
X151388498Y-61912500D01*
X151368543Y-61684413D01*
X151351620Y-61621257D01*
X151310707Y-61468567D01*
X151310706Y-61468565D01*
X151309284Y-61463257D01*
X151295591Y-61433892D01*
X151214849Y-61260738D01*
X151214846Y-61260733D01*
X151212523Y-61255751D01*
X151081198Y-61068200D01*
X151059593Y-61046595D01*
X151025567Y-60984283D01*
X151030632Y-60913468D01*
X151073179Y-60856632D01*
X151139699Y-60831821D01*
X151148688Y-60831500D01*
X155845906Y-60831500D01*
X155914027Y-60851502D01*
X155935001Y-60868405D01*
X156529595Y-61462999D01*
X156563621Y-61525311D01*
X156566500Y-61552094D01*
X156566500Y-62760634D01*
X156573255Y-62822816D01*
X156624385Y-62959205D01*
X156711739Y-63075761D01*
X156828295Y-63163115D01*
X156964684Y-63214245D01*
X157026866Y-63221000D01*
X158723134Y-63221000D01*
X158785316Y-63214245D01*
X158921705Y-63163115D01*
X159038261Y-63075761D01*
X159125615Y-62959205D01*
X159176745Y-62822816D01*
X159183500Y-62760634D01*
X159183500Y-62752344D01*
X159203502Y-62684223D01*
X159257158Y-62637730D01*
X159327432Y-62627626D01*
X159392012Y-62657120D01*
X159398595Y-62663249D01*
X164902098Y-68166752D01*
X164936124Y-68229064D01*
X164934709Y-68288459D01*
X164919132Y-68346591D01*
X164919131Y-68346598D01*
X164917707Y-68351913D01*
X164897752Y-68580000D01*
X164917707Y-68808087D01*
X164976966Y-69029243D01*
X164979289Y-69034224D01*
X164979289Y-69034225D01*
X165071401Y-69231762D01*
X165071404Y-69231767D01*
X165073727Y-69236749D01*
X165205052Y-69424300D01*
X165366950Y-69586198D01*
X165371458Y-69589355D01*
X165371461Y-69589357D01*
X165449639Y-69644098D01*
X165554501Y-69717523D01*
X165559483Y-69719846D01*
X165559488Y-69719849D01*
X165593707Y-69735805D01*
X165646992Y-69782722D01*
X165666453Y-69850999D01*
X165645911Y-69918959D01*
X165593707Y-69964195D01*
X165559488Y-69980151D01*
X165559483Y-69980154D01*
X165554501Y-69982477D01*
X165449639Y-70055902D01*
X165371461Y-70110643D01*
X165371458Y-70110645D01*
X165366950Y-70113802D01*
X165205052Y-70275700D01*
X165073727Y-70463251D01*
X165071404Y-70468233D01*
X165071401Y-70468238D01*
X164979289Y-70665775D01*
X164976966Y-70670757D01*
X164975544Y-70676065D01*
X164975543Y-70676067D01*
X164919131Y-70886598D01*
X164917707Y-70891913D01*
X164897752Y-71120000D01*
X164917707Y-71348087D01*
X164976966Y-71569243D01*
X164979289Y-71574224D01*
X164979289Y-71574225D01*
X165071401Y-71771762D01*
X165071404Y-71771767D01*
X165073727Y-71776749D01*
X165205052Y-71964300D01*
X165366950Y-72126198D01*
X165371458Y-72129355D01*
X165371461Y-72129357D01*
X165449639Y-72184098D01*
X165554501Y-72257523D01*
X165559483Y-72259846D01*
X165559488Y-72259849D01*
X165757025Y-72351961D01*
X165762007Y-72354284D01*
X165767315Y-72355706D01*
X165767317Y-72355707D01*
X165977848Y-72412119D01*
X165977850Y-72412119D01*
X165983163Y-72413543D01*
X166211250Y-72433498D01*
X166439337Y-72413543D01*
X166444650Y-72412119D01*
X166444652Y-72412119D01*
X166655183Y-72355707D01*
X166655185Y-72355706D01*
X166660493Y-72354284D01*
X166665475Y-72351961D01*
X166863012Y-72259849D01*
X166863017Y-72259846D01*
X166867999Y-72257523D01*
X166972861Y-72184098D01*
X167051039Y-72129357D01*
X167051042Y-72129355D01*
X167055550Y-72126198D01*
X167217448Y-71964300D01*
X167348773Y-71776749D01*
X167351096Y-71771767D01*
X167351099Y-71771762D01*
X167443211Y-71574225D01*
X167443211Y-71574224D01*
X167445534Y-71569243D01*
X167504793Y-71348087D01*
X167524748Y-71120000D01*
X180137752Y-71120000D01*
X180157707Y-71348087D01*
X180216966Y-71569243D01*
X180219289Y-71574224D01*
X180219289Y-71574225D01*
X180311401Y-71771762D01*
X180311404Y-71771767D01*
X180313727Y-71776749D01*
X180445052Y-71964300D01*
X180606950Y-72126198D01*
X180611458Y-72129355D01*
X180611461Y-72129357D01*
X180689639Y-72184098D01*
X180794501Y-72257523D01*
X180799483Y-72259846D01*
X180799488Y-72259849D01*
X180997025Y-72351961D01*
X181002007Y-72354284D01*
X181007315Y-72355706D01*
X181007317Y-72355707D01*
X181217848Y-72412119D01*
X181217850Y-72412119D01*
X181223163Y-72413543D01*
X181451250Y-72433498D01*
X181679337Y-72413543D01*
X181684650Y-72412119D01*
X181684652Y-72412119D01*
X181895183Y-72355707D01*
X181895185Y-72355706D01*
X181900493Y-72354284D01*
X181905475Y-72351961D01*
X182103012Y-72259849D01*
X182103017Y-72259846D01*
X182107999Y-72257523D01*
X182212861Y-72184098D01*
X182291039Y-72129357D01*
X182291042Y-72129355D01*
X182295550Y-72126198D01*
X182457448Y-71964300D01*
X182588773Y-71776749D01*
X182591096Y-71771767D01*
X182591099Y-71771762D01*
X182683211Y-71574225D01*
X182683211Y-71574224D01*
X182685534Y-71569243D01*
X182744793Y-71348087D01*
X182764748Y-71120000D01*
X182744793Y-70891913D01*
X182743369Y-70886598D01*
X182686957Y-70676067D01*
X182686956Y-70676065D01*
X182685534Y-70670757D01*
X182683211Y-70665775D01*
X182591099Y-70468238D01*
X182591096Y-70468233D01*
X182588773Y-70463251D01*
X182457448Y-70275700D01*
X182295550Y-70113802D01*
X182291042Y-70110645D01*
X182291039Y-70110643D01*
X182212861Y-70055902D01*
X182107999Y-69982477D01*
X182103017Y-69980154D01*
X182103012Y-69980151D01*
X182068793Y-69964195D01*
X182015508Y-69917278D01*
X181996047Y-69849001D01*
X182016589Y-69781041D01*
X182068793Y-69735805D01*
X182103012Y-69719849D01*
X182103017Y-69719846D01*
X182107999Y-69717523D01*
X182212861Y-69644098D01*
X182291039Y-69589357D01*
X182291042Y-69589355D01*
X182295550Y-69586198D01*
X182457448Y-69424300D01*
X182588773Y-69236749D01*
X182591096Y-69231767D01*
X182591099Y-69231762D01*
X182683211Y-69034225D01*
X182683211Y-69034224D01*
X182685534Y-69029243D01*
X182744793Y-68808087D01*
X182764748Y-68580000D01*
X182744793Y-68351913D01*
X182739975Y-68333933D01*
X182686957Y-68136067D01*
X182686956Y-68136065D01*
X182685534Y-68130757D01*
X182683153Y-68125651D01*
X182591099Y-67928238D01*
X182591096Y-67928233D01*
X182588773Y-67923251D01*
X182457448Y-67735700D01*
X182295550Y-67573802D01*
X182291042Y-67570645D01*
X182291039Y-67570643D01*
X182212861Y-67515902D01*
X182107999Y-67442477D01*
X182103017Y-67440154D01*
X182103012Y-67440151D01*
X182068793Y-67424195D01*
X182015508Y-67377278D01*
X181996047Y-67309001D01*
X182016589Y-67241041D01*
X182068793Y-67195805D01*
X182103012Y-67179849D01*
X182103017Y-67179846D01*
X182107999Y-67177523D01*
X182212861Y-67104098D01*
X182291039Y-67049357D01*
X182291042Y-67049355D01*
X182295550Y-67046198D01*
X182457448Y-66884300D01*
X182588773Y-66696749D01*
X182591096Y-66691767D01*
X182591099Y-66691762D01*
X182683211Y-66494225D01*
X182683211Y-66494224D01*
X182685534Y-66489243D01*
X182744793Y-66268087D01*
X182764748Y-66040000D01*
X182744793Y-65811913D01*
X182721940Y-65726624D01*
X182686957Y-65596067D01*
X182686956Y-65596065D01*
X182685534Y-65590757D01*
X182657620Y-65530894D01*
X182591099Y-65388238D01*
X182591096Y-65388233D01*
X182588773Y-65383251D01*
X182457448Y-65195700D01*
X182295550Y-65033802D01*
X182291042Y-65030645D01*
X182291039Y-65030643D01*
X182212861Y-64975902D01*
X182107999Y-64902477D01*
X182103017Y-64900154D01*
X182103012Y-64900151D01*
X182068793Y-64884195D01*
X182015508Y-64837278D01*
X181996047Y-64769001D01*
X182016589Y-64701041D01*
X182068793Y-64655805D01*
X182103012Y-64639849D01*
X182103017Y-64639846D01*
X182107999Y-64637523D01*
X182212861Y-64564098D01*
X182291039Y-64509357D01*
X182291042Y-64509355D01*
X182295550Y-64506198D01*
X182457448Y-64344300D01*
X182588773Y-64156749D01*
X182591096Y-64151767D01*
X182591099Y-64151762D01*
X182683211Y-63954225D01*
X182683211Y-63954224D01*
X182685534Y-63949243D01*
X182744793Y-63728087D01*
X182764748Y-63500000D01*
X182744793Y-63271913D01*
X182731052Y-63220631D01*
X182686957Y-63056067D01*
X182686956Y-63056065D01*
X182685534Y-63050757D01*
X182642843Y-62959205D01*
X182591099Y-62848238D01*
X182591096Y-62848233D01*
X182588773Y-62843251D01*
X182457448Y-62655700D01*
X182295550Y-62493802D01*
X182291042Y-62490645D01*
X182291039Y-62490643D01*
X182212861Y-62435902D01*
X182107999Y-62362477D01*
X182103017Y-62360154D01*
X182103012Y-62360151D01*
X182068793Y-62344195D01*
X182015508Y-62297278D01*
X181996047Y-62229001D01*
X182016589Y-62161041D01*
X182068793Y-62115805D01*
X182103012Y-62099849D01*
X182103017Y-62099846D01*
X182107999Y-62097523D01*
X182212861Y-62024098D01*
X182291039Y-61969357D01*
X182291042Y-61969355D01*
X182295550Y-61966198D01*
X182457448Y-61804300D01*
X182588773Y-61616749D01*
X182591096Y-61611767D01*
X182591099Y-61611762D01*
X182683211Y-61414225D01*
X182683211Y-61414224D01*
X182685534Y-61409243D01*
X182687652Y-61401341D01*
X182743369Y-61193402D01*
X182743369Y-61193400D01*
X182744793Y-61188087D01*
X182764748Y-60960000D01*
X182744793Y-60731913D01*
X182726029Y-60661885D01*
X182686957Y-60516067D01*
X182686956Y-60516065D01*
X182685534Y-60510757D01*
X182683211Y-60505775D01*
X182591099Y-60308238D01*
X182591096Y-60308233D01*
X182588773Y-60303251D01*
X182485937Y-60156386D01*
X182460607Y-60120211D01*
X182460605Y-60120208D01*
X182457448Y-60115700D01*
X182295550Y-59953802D01*
X182291042Y-59950645D01*
X182291039Y-59950643D01*
X182212861Y-59895902D01*
X182107999Y-59822477D01*
X182103017Y-59820154D01*
X182103012Y-59820151D01*
X182068793Y-59804195D01*
X182015508Y-59757278D01*
X181996047Y-59689001D01*
X182016589Y-59621041D01*
X182068793Y-59575805D01*
X182103012Y-59559849D01*
X182103017Y-59559846D01*
X182107999Y-59557523D01*
X182212861Y-59484098D01*
X182291039Y-59429357D01*
X182291042Y-59429355D01*
X182295550Y-59426198D01*
X182457448Y-59264300D01*
X182588773Y-59076749D01*
X182591096Y-59071767D01*
X182591099Y-59071762D01*
X182683211Y-58874225D01*
X182683211Y-58874224D01*
X182685534Y-58869243D01*
X182744793Y-58648087D01*
X182764748Y-58420000D01*
X182744793Y-58191913D01*
X182685534Y-57970757D01*
X182683211Y-57965775D01*
X182591099Y-57768238D01*
X182591096Y-57768233D01*
X182588773Y-57763251D01*
X182457448Y-57575700D01*
X182295550Y-57413802D01*
X182291042Y-57410645D01*
X182291039Y-57410643D01*
X182212861Y-57355902D01*
X182107999Y-57282477D01*
X182103017Y-57280154D01*
X182103012Y-57280151D01*
X182068793Y-57264195D01*
X182015508Y-57217278D01*
X181996047Y-57149001D01*
X182016589Y-57081041D01*
X182068793Y-57035805D01*
X182103012Y-57019849D01*
X182103017Y-57019846D01*
X182107999Y-57017523D01*
X182212861Y-56944098D01*
X182291039Y-56889357D01*
X182291042Y-56889355D01*
X182295550Y-56886198D01*
X182457448Y-56724300D01*
X182588773Y-56536749D01*
X182591096Y-56531767D01*
X182591099Y-56531762D01*
X182683211Y-56334225D01*
X182683211Y-56334224D01*
X182685534Y-56329243D01*
X182744793Y-56108087D01*
X182764748Y-55880000D01*
X182744793Y-55651913D01*
X182685534Y-55430757D01*
X182683211Y-55425775D01*
X182591099Y-55228238D01*
X182591096Y-55228233D01*
X182588773Y-55223251D01*
X182457448Y-55035700D01*
X182295550Y-54873802D01*
X182291042Y-54870645D01*
X182291039Y-54870643D01*
X182212861Y-54815902D01*
X182107999Y-54742477D01*
X182103017Y-54740154D01*
X182103012Y-54740151D01*
X182068793Y-54724195D01*
X182015508Y-54677278D01*
X181996047Y-54609001D01*
X182016589Y-54541041D01*
X182068793Y-54495805D01*
X182103012Y-54479849D01*
X182103017Y-54479846D01*
X182107999Y-54477523D01*
X182212861Y-54404098D01*
X182291039Y-54349357D01*
X182291042Y-54349355D01*
X182295550Y-54346198D01*
X182457448Y-54184300D01*
X182588773Y-53996749D01*
X182591096Y-53991767D01*
X182591099Y-53991762D01*
X182683211Y-53794225D01*
X182683211Y-53794224D01*
X182685534Y-53789243D01*
X182689303Y-53775179D01*
X182743369Y-53573402D01*
X182743369Y-53573400D01*
X182744793Y-53568087D01*
X182764748Y-53340000D01*
X182744793Y-53111913D01*
X182685534Y-52890757D01*
X182670661Y-52858862D01*
X182591099Y-52688238D01*
X182591096Y-52688233D01*
X182588773Y-52683251D01*
X182457448Y-52495700D01*
X182295550Y-52333802D01*
X182291042Y-52330645D01*
X182291039Y-52330643D01*
X182147577Y-52230190D01*
X182107999Y-52202477D01*
X182103017Y-52200154D01*
X182103012Y-52200151D01*
X182068201Y-52183919D01*
X182014916Y-52137002D01*
X181995455Y-52068725D01*
X182015997Y-52000765D01*
X182068201Y-51955529D01*
X182102761Y-51939414D01*
X182112256Y-51933931D01*
X182164298Y-51897491D01*
X182172674Y-51887012D01*
X182165606Y-51873566D01*
X181464062Y-51172022D01*
X181450118Y-51164408D01*
X181448285Y-51164539D01*
X181441670Y-51168790D01*
X180736173Y-51874287D01*
X180729743Y-51886062D01*
X180739039Y-51898077D01*
X180790244Y-51933931D01*
X180799739Y-51939414D01*
X180834299Y-51955529D01*
X180887584Y-52002446D01*
X180907045Y-52070723D01*
X180886503Y-52138683D01*
X180834299Y-52183919D01*
X180799488Y-52200151D01*
X180799483Y-52200154D01*
X180794501Y-52202477D01*
X180754923Y-52230190D01*
X180611461Y-52330643D01*
X180611458Y-52330645D01*
X180606950Y-52333802D01*
X180445052Y-52495700D01*
X180313727Y-52683251D01*
X180311404Y-52688233D01*
X180311401Y-52688238D01*
X180231839Y-52858862D01*
X180216966Y-52890757D01*
X180157707Y-53111913D01*
X180137752Y-53340000D01*
X180157707Y-53568087D01*
X180159131Y-53573400D01*
X180159131Y-53573402D01*
X180213198Y-53775179D01*
X180216966Y-53789243D01*
X180219289Y-53794224D01*
X180219289Y-53794225D01*
X180311401Y-53991762D01*
X180311404Y-53991767D01*
X180313727Y-53996749D01*
X180445052Y-54184300D01*
X180606950Y-54346198D01*
X180611458Y-54349355D01*
X180611461Y-54349357D01*
X180689639Y-54404098D01*
X180794501Y-54477523D01*
X180799483Y-54479846D01*
X180799488Y-54479849D01*
X180833707Y-54495805D01*
X180886992Y-54542722D01*
X180906453Y-54610999D01*
X180885911Y-54678959D01*
X180833707Y-54724195D01*
X180799488Y-54740151D01*
X180799483Y-54740154D01*
X180794501Y-54742477D01*
X180689639Y-54815902D01*
X180611461Y-54870643D01*
X180611458Y-54870645D01*
X180606950Y-54873802D01*
X180445052Y-55035700D01*
X180313727Y-55223251D01*
X180311404Y-55228233D01*
X180311401Y-55228238D01*
X180219289Y-55425775D01*
X180216966Y-55430757D01*
X180157707Y-55651913D01*
X180137752Y-55880000D01*
X180157707Y-56108087D01*
X180216966Y-56329243D01*
X180219289Y-56334224D01*
X180219289Y-56334225D01*
X180311401Y-56531762D01*
X180311404Y-56531767D01*
X180313727Y-56536749D01*
X180445052Y-56724300D01*
X180606950Y-56886198D01*
X180611458Y-56889355D01*
X180611461Y-56889357D01*
X180689639Y-56944098D01*
X180794501Y-57017523D01*
X180799483Y-57019846D01*
X180799488Y-57019849D01*
X180833707Y-57035805D01*
X180886992Y-57082722D01*
X180906453Y-57150999D01*
X180885911Y-57218959D01*
X180833707Y-57264195D01*
X180799488Y-57280151D01*
X180799483Y-57280154D01*
X180794501Y-57282477D01*
X180689639Y-57355902D01*
X180611461Y-57410643D01*
X180611458Y-57410645D01*
X180606950Y-57413802D01*
X180445052Y-57575700D01*
X180313727Y-57763251D01*
X180311404Y-57768233D01*
X180311401Y-57768238D01*
X180219289Y-57965775D01*
X180216966Y-57970757D01*
X180157707Y-58191913D01*
X180137752Y-58420000D01*
X180157707Y-58648087D01*
X180216966Y-58869243D01*
X180219289Y-58874224D01*
X180219289Y-58874225D01*
X180311401Y-59071762D01*
X180311404Y-59071767D01*
X180313727Y-59076749D01*
X180445052Y-59264300D01*
X180606950Y-59426198D01*
X180611458Y-59429355D01*
X180611461Y-59429357D01*
X180689639Y-59484098D01*
X180794501Y-59557523D01*
X180799483Y-59559846D01*
X180799488Y-59559849D01*
X180833707Y-59575805D01*
X180886992Y-59622722D01*
X180906453Y-59690999D01*
X180885911Y-59758959D01*
X180833707Y-59804195D01*
X180799488Y-59820151D01*
X180799483Y-59820154D01*
X180794501Y-59822477D01*
X180689639Y-59895902D01*
X180611461Y-59950643D01*
X180611458Y-59950645D01*
X180606950Y-59953802D01*
X180445052Y-60115700D01*
X180441895Y-60120208D01*
X180441893Y-60120211D01*
X180416563Y-60156386D01*
X180313727Y-60303251D01*
X180311404Y-60308233D01*
X180311401Y-60308238D01*
X180219289Y-60505775D01*
X180216966Y-60510757D01*
X180215544Y-60516065D01*
X180215543Y-60516067D01*
X180176471Y-60661885D01*
X180157707Y-60731913D01*
X180137752Y-60960000D01*
X180157707Y-61188087D01*
X180159131Y-61193400D01*
X180159131Y-61193402D01*
X180214849Y-61401341D01*
X180216966Y-61409243D01*
X180219289Y-61414224D01*
X180219289Y-61414225D01*
X180311401Y-61611762D01*
X180311404Y-61611767D01*
X180313727Y-61616749D01*
X180445052Y-61804300D01*
X180606950Y-61966198D01*
X180611458Y-61969355D01*
X180611461Y-61969357D01*
X180689639Y-62024098D01*
X180794501Y-62097523D01*
X180799483Y-62099846D01*
X180799488Y-62099849D01*
X180833707Y-62115805D01*
X180886992Y-62162722D01*
X180906453Y-62230999D01*
X180885911Y-62298959D01*
X180833707Y-62344195D01*
X180799488Y-62360151D01*
X180799483Y-62360154D01*
X180794501Y-62362477D01*
X180689639Y-62435902D01*
X180611461Y-62490643D01*
X180611458Y-62490645D01*
X180606950Y-62493802D01*
X180445052Y-62655700D01*
X180313727Y-62843251D01*
X180311404Y-62848233D01*
X180311401Y-62848238D01*
X180259657Y-62959205D01*
X180216966Y-63050757D01*
X180215544Y-63056065D01*
X180215543Y-63056067D01*
X180171448Y-63220631D01*
X180157707Y-63271913D01*
X180137752Y-63500000D01*
X180157707Y-63728087D01*
X180216966Y-63949243D01*
X180219289Y-63954224D01*
X180219289Y-63954225D01*
X180311401Y-64151762D01*
X180311404Y-64151767D01*
X180313727Y-64156749D01*
X180445052Y-64344300D01*
X180606950Y-64506198D01*
X180611458Y-64509355D01*
X180611461Y-64509357D01*
X180689639Y-64564098D01*
X180794501Y-64637523D01*
X180799483Y-64639846D01*
X180799488Y-64639849D01*
X180833707Y-64655805D01*
X180886992Y-64702722D01*
X180906453Y-64770999D01*
X180885911Y-64838959D01*
X180833707Y-64884195D01*
X180799488Y-64900151D01*
X180799483Y-64900154D01*
X180794501Y-64902477D01*
X180689639Y-64975902D01*
X180611461Y-65030643D01*
X180611458Y-65030645D01*
X180606950Y-65033802D01*
X180445052Y-65195700D01*
X180313727Y-65383251D01*
X180311404Y-65388233D01*
X180311401Y-65388238D01*
X180244880Y-65530894D01*
X180216966Y-65590757D01*
X180215544Y-65596065D01*
X180215543Y-65596067D01*
X180180560Y-65726624D01*
X180157707Y-65811913D01*
X180137752Y-66040000D01*
X180157707Y-66268087D01*
X180216966Y-66489243D01*
X180219289Y-66494224D01*
X180219289Y-66494225D01*
X180311401Y-66691762D01*
X180311404Y-66691767D01*
X180313727Y-66696749D01*
X180445052Y-66884300D01*
X180606950Y-67046198D01*
X180611458Y-67049355D01*
X180611461Y-67049357D01*
X180689639Y-67104098D01*
X180794501Y-67177523D01*
X180799483Y-67179846D01*
X180799488Y-67179849D01*
X180833707Y-67195805D01*
X180886992Y-67242722D01*
X180906453Y-67310999D01*
X180885911Y-67378959D01*
X180833707Y-67424195D01*
X180799488Y-67440151D01*
X180799483Y-67440154D01*
X180794501Y-67442477D01*
X180689639Y-67515902D01*
X180611461Y-67570643D01*
X180611458Y-67570645D01*
X180606950Y-67573802D01*
X180445052Y-67735700D01*
X180313727Y-67923251D01*
X180311404Y-67928233D01*
X180311401Y-67928238D01*
X180219347Y-68125651D01*
X180216966Y-68130757D01*
X180215544Y-68136065D01*
X180215543Y-68136067D01*
X180162525Y-68333933D01*
X180157707Y-68351913D01*
X180137752Y-68580000D01*
X180157707Y-68808087D01*
X180216966Y-69029243D01*
X180219289Y-69034224D01*
X180219289Y-69034225D01*
X180311401Y-69231762D01*
X180311404Y-69231767D01*
X180313727Y-69236749D01*
X180445052Y-69424300D01*
X180606950Y-69586198D01*
X180611458Y-69589355D01*
X180611461Y-69589357D01*
X180689639Y-69644098D01*
X180794501Y-69717523D01*
X180799483Y-69719846D01*
X180799488Y-69719849D01*
X180833707Y-69735805D01*
X180886992Y-69782722D01*
X180906453Y-69850999D01*
X180885911Y-69918959D01*
X180833707Y-69964195D01*
X180799488Y-69980151D01*
X180799483Y-69980154D01*
X180794501Y-69982477D01*
X180689639Y-70055902D01*
X180611461Y-70110643D01*
X180611458Y-70110645D01*
X180606950Y-70113802D01*
X180445052Y-70275700D01*
X180313727Y-70463251D01*
X180311404Y-70468233D01*
X180311401Y-70468238D01*
X180219289Y-70665775D01*
X180216966Y-70670757D01*
X180215544Y-70676065D01*
X180215543Y-70676067D01*
X180159131Y-70886598D01*
X180157707Y-70891913D01*
X180137752Y-71120000D01*
X167524748Y-71120000D01*
X167504793Y-70891913D01*
X167503369Y-70886598D01*
X167446957Y-70676067D01*
X167446956Y-70676065D01*
X167445534Y-70670757D01*
X167443211Y-70665775D01*
X167351099Y-70468238D01*
X167351096Y-70468233D01*
X167348773Y-70463251D01*
X167217448Y-70275700D01*
X167055550Y-70113802D01*
X167051042Y-70110645D01*
X167051039Y-70110643D01*
X166972861Y-70055902D01*
X166867999Y-69982477D01*
X166863017Y-69980154D01*
X166863012Y-69980151D01*
X166828793Y-69964195D01*
X166775508Y-69917278D01*
X166756047Y-69849001D01*
X166776589Y-69781041D01*
X166828793Y-69735805D01*
X166863012Y-69719849D01*
X166863017Y-69719846D01*
X166867999Y-69717523D01*
X166972861Y-69644098D01*
X167051039Y-69589357D01*
X167051042Y-69589355D01*
X167055550Y-69586198D01*
X167217448Y-69424300D01*
X167348773Y-69236749D01*
X167351096Y-69231767D01*
X167351099Y-69231762D01*
X167443211Y-69034225D01*
X167443211Y-69034224D01*
X167445534Y-69029243D01*
X167504793Y-68808087D01*
X167524748Y-68580000D01*
X167504793Y-68351913D01*
X167499975Y-68333933D01*
X167446957Y-68136067D01*
X167446956Y-68136065D01*
X167445534Y-68130757D01*
X167443153Y-68125651D01*
X167351099Y-67928238D01*
X167351096Y-67928233D01*
X167348773Y-67923251D01*
X167217448Y-67735700D01*
X167055550Y-67573802D01*
X167051042Y-67570645D01*
X167051039Y-67570643D01*
X166972861Y-67515902D01*
X166867999Y-67442477D01*
X166863017Y-67440154D01*
X166863012Y-67440151D01*
X166828793Y-67424195D01*
X166775508Y-67377278D01*
X166756047Y-67309001D01*
X166776589Y-67241041D01*
X166828793Y-67195805D01*
X166863012Y-67179849D01*
X166863017Y-67179846D01*
X166867999Y-67177523D01*
X166972861Y-67104098D01*
X167051039Y-67049357D01*
X167051042Y-67049355D01*
X167055550Y-67046198D01*
X167217448Y-66884300D01*
X167348773Y-66696749D01*
X167351096Y-66691767D01*
X167351099Y-66691762D01*
X167443211Y-66494225D01*
X167443211Y-66494224D01*
X167445534Y-66489243D01*
X167504793Y-66268087D01*
X167524748Y-66040000D01*
X167504793Y-65811913D01*
X167481940Y-65726624D01*
X167446957Y-65596067D01*
X167446956Y-65596065D01*
X167445534Y-65590757D01*
X167417620Y-65530894D01*
X167351099Y-65388238D01*
X167351096Y-65388233D01*
X167348773Y-65383251D01*
X167217448Y-65195700D01*
X167055550Y-65033802D01*
X167051042Y-65030645D01*
X167051039Y-65030643D01*
X166972861Y-64975902D01*
X166867999Y-64902477D01*
X166863017Y-64900154D01*
X166863012Y-64900151D01*
X166828793Y-64884195D01*
X166775508Y-64837278D01*
X166756047Y-64769001D01*
X166776589Y-64701041D01*
X166828793Y-64655805D01*
X166863012Y-64639849D01*
X166863017Y-64639846D01*
X166867999Y-64637523D01*
X166972861Y-64564098D01*
X167051039Y-64509357D01*
X167051042Y-64509355D01*
X167055550Y-64506198D01*
X167217448Y-64344300D01*
X167348773Y-64156749D01*
X167351096Y-64151767D01*
X167351099Y-64151762D01*
X167443211Y-63954225D01*
X167443211Y-63954224D01*
X167445534Y-63949243D01*
X167504793Y-63728087D01*
X167524748Y-63500000D01*
X167504793Y-63271913D01*
X167491052Y-63220631D01*
X167446957Y-63056067D01*
X167446956Y-63056065D01*
X167445534Y-63050757D01*
X167402843Y-62959205D01*
X167351099Y-62848238D01*
X167351096Y-62848233D01*
X167348773Y-62843251D01*
X167217448Y-62655700D01*
X167055550Y-62493802D01*
X167051042Y-62490645D01*
X167051039Y-62490643D01*
X166972861Y-62435902D01*
X166867999Y-62362477D01*
X166863017Y-62360154D01*
X166863012Y-62360151D01*
X166828793Y-62344195D01*
X166775508Y-62297278D01*
X166756047Y-62229001D01*
X166776589Y-62161041D01*
X166828793Y-62115805D01*
X166863012Y-62099849D01*
X166863017Y-62099846D01*
X166867999Y-62097523D01*
X166972861Y-62024098D01*
X167051039Y-61969357D01*
X167051042Y-61969355D01*
X167055550Y-61966198D01*
X167217448Y-61804300D01*
X167348773Y-61616749D01*
X167351096Y-61611767D01*
X167351099Y-61611762D01*
X167443211Y-61414225D01*
X167443211Y-61414224D01*
X167445534Y-61409243D01*
X167447652Y-61401341D01*
X167503369Y-61193402D01*
X167503369Y-61193400D01*
X167504793Y-61188087D01*
X167524748Y-60960000D01*
X167504793Y-60731913D01*
X167486029Y-60661885D01*
X167446957Y-60516067D01*
X167446956Y-60516065D01*
X167445534Y-60510757D01*
X167443211Y-60505775D01*
X167351099Y-60308238D01*
X167351096Y-60308233D01*
X167348773Y-60303251D01*
X167245937Y-60156386D01*
X167220607Y-60120211D01*
X167220605Y-60120208D01*
X167217448Y-60115700D01*
X167055550Y-59953802D01*
X167051042Y-59950645D01*
X167051039Y-59950643D01*
X166972861Y-59895902D01*
X166867999Y-59822477D01*
X166863017Y-59820154D01*
X166863012Y-59820151D01*
X166828793Y-59804195D01*
X166775508Y-59757278D01*
X166756047Y-59689001D01*
X166776589Y-59621041D01*
X166828793Y-59575805D01*
X166863012Y-59559849D01*
X166863017Y-59559846D01*
X166867999Y-59557523D01*
X166972861Y-59484098D01*
X167051039Y-59429357D01*
X167051042Y-59429355D01*
X167055550Y-59426198D01*
X167217448Y-59264300D01*
X167348773Y-59076749D01*
X167351096Y-59071767D01*
X167351099Y-59071762D01*
X167443211Y-58874225D01*
X167443211Y-58874224D01*
X167445534Y-58869243D01*
X167504793Y-58648087D01*
X167524748Y-58420000D01*
X167504793Y-58191913D01*
X167445534Y-57970757D01*
X167443211Y-57965775D01*
X167351099Y-57768238D01*
X167351096Y-57768233D01*
X167348773Y-57763251D01*
X167217448Y-57575700D01*
X167055550Y-57413802D01*
X167051042Y-57410645D01*
X167051039Y-57410643D01*
X166972861Y-57355902D01*
X166867999Y-57282477D01*
X166863017Y-57280154D01*
X166863012Y-57280151D01*
X166828793Y-57264195D01*
X166775508Y-57217278D01*
X166756047Y-57149001D01*
X166776589Y-57081041D01*
X166828793Y-57035805D01*
X166863012Y-57019849D01*
X166863017Y-57019846D01*
X166867999Y-57017523D01*
X166972861Y-56944098D01*
X167051039Y-56889357D01*
X167051042Y-56889355D01*
X167055550Y-56886198D01*
X167217448Y-56724300D01*
X167348773Y-56536749D01*
X167351096Y-56531767D01*
X167351099Y-56531762D01*
X167443211Y-56334225D01*
X167443211Y-56334224D01*
X167445534Y-56329243D01*
X167504793Y-56108087D01*
X167524748Y-55880000D01*
X167504793Y-55651913D01*
X167445534Y-55430757D01*
X167443211Y-55425775D01*
X167351099Y-55228238D01*
X167351096Y-55228233D01*
X167348773Y-55223251D01*
X167217448Y-55035700D01*
X167055550Y-54873802D01*
X167051042Y-54870645D01*
X167051039Y-54870643D01*
X166972861Y-54815902D01*
X166867999Y-54742477D01*
X166863017Y-54740154D01*
X166863012Y-54740151D01*
X166828793Y-54724195D01*
X166775508Y-54677278D01*
X166756047Y-54609001D01*
X166776589Y-54541041D01*
X166828793Y-54495805D01*
X166863012Y-54479849D01*
X166863017Y-54479846D01*
X166867999Y-54477523D01*
X166972861Y-54404098D01*
X167051039Y-54349357D01*
X167051042Y-54349355D01*
X167055550Y-54346198D01*
X167217448Y-54184300D01*
X167348773Y-53996749D01*
X167351096Y-53991767D01*
X167351099Y-53991762D01*
X167443211Y-53794225D01*
X167443211Y-53794224D01*
X167445534Y-53789243D01*
X167449303Y-53775179D01*
X167503369Y-53573402D01*
X167503369Y-53573400D01*
X167504793Y-53568087D01*
X167524748Y-53340000D01*
X167504793Y-53111913D01*
X167445534Y-52890757D01*
X167430661Y-52858862D01*
X167351099Y-52688238D01*
X167351096Y-52688233D01*
X167348773Y-52683251D01*
X167217448Y-52495700D01*
X167055550Y-52333802D01*
X167051042Y-52330645D01*
X167051039Y-52330643D01*
X166907577Y-52230190D01*
X166867999Y-52202477D01*
X166863017Y-52200154D01*
X166863012Y-52200151D01*
X166828793Y-52184195D01*
X166775508Y-52137278D01*
X166756047Y-52069001D01*
X166776589Y-52001041D01*
X166828793Y-51955805D01*
X166863012Y-51939849D01*
X166863017Y-51939846D01*
X166867999Y-51937523D01*
X166972861Y-51864098D01*
X167051039Y-51809357D01*
X167051042Y-51809355D01*
X167055550Y-51806198D01*
X167217448Y-51644300D01*
X167224086Y-51634821D01*
X167337457Y-51472910D01*
X167348773Y-51456749D01*
X167351096Y-51451767D01*
X167351099Y-51451762D01*
X167443211Y-51254225D01*
X167443211Y-51254224D01*
X167445534Y-51249243D01*
X167466226Y-51172022D01*
X167503369Y-51033402D01*
X167503369Y-51033400D01*
X167504793Y-51028087D01*
X167524269Y-50805475D01*
X180138733Y-50805475D01*
X180157722Y-51022519D01*
X180159625Y-51033312D01*
X180216014Y-51243761D01*
X180219760Y-51254053D01*
X180311836Y-51451511D01*
X180317319Y-51461006D01*
X180353759Y-51513048D01*
X180364238Y-51521424D01*
X180377684Y-51514356D01*
X181079228Y-50812812D01*
X181085606Y-50801132D01*
X181815658Y-50801132D01*
X181815789Y-50802965D01*
X181820040Y-50809580D01*
X182525537Y-51515077D01*
X182537312Y-51521507D01*
X182549327Y-51512211D01*
X182585181Y-51461006D01*
X182590664Y-51451511D01*
X182682740Y-51254053D01*
X182686486Y-51243761D01*
X182742875Y-51033312D01*
X182744778Y-51022519D01*
X182763767Y-50805475D01*
X182763767Y-50794525D01*
X182744778Y-50577481D01*
X182742875Y-50566688D01*
X182686486Y-50356239D01*
X182682740Y-50345947D01*
X182590664Y-50148489D01*
X182585181Y-50138994D01*
X182548741Y-50086952D01*
X182538262Y-50078576D01*
X182524816Y-50085644D01*
X181823272Y-50787188D01*
X181815658Y-50801132D01*
X181085606Y-50801132D01*
X181086842Y-50798868D01*
X181086711Y-50797035D01*
X181082460Y-50790420D01*
X180376963Y-50084923D01*
X180365188Y-50078493D01*
X180353173Y-50087789D01*
X180317319Y-50138994D01*
X180311836Y-50148489D01*
X180219760Y-50345947D01*
X180216014Y-50356239D01*
X180159625Y-50566688D01*
X180157722Y-50577481D01*
X180138733Y-50794525D01*
X180138733Y-50805475D01*
X167524269Y-50805475D01*
X167524748Y-50800000D01*
X167504793Y-50571913D01*
X167468231Y-50435461D01*
X167446957Y-50356067D01*
X167446956Y-50356065D01*
X167445534Y-50350757D01*
X167443211Y-50345775D01*
X167351099Y-50148238D01*
X167351096Y-50148233D01*
X167348773Y-50143251D01*
X167217448Y-49955700D01*
X167055550Y-49793802D01*
X167051042Y-49790645D01*
X167051039Y-49790643D01*
X166925170Y-49702509D01*
X166867999Y-49662477D01*
X166863017Y-49660154D01*
X166863012Y-49660151D01*
X166828793Y-49644195D01*
X166775508Y-49597278D01*
X166756047Y-49529001D01*
X166776589Y-49461041D01*
X166828793Y-49415805D01*
X166863012Y-49399849D01*
X166863017Y-49399846D01*
X166867999Y-49397523D01*
X166941493Y-49346062D01*
X180729743Y-49346062D01*
X180739039Y-49358077D01*
X180790244Y-49393931D01*
X180799739Y-49399414D01*
X180834891Y-49415805D01*
X180888176Y-49462722D01*
X180907637Y-49530999D01*
X180887095Y-49598959D01*
X180834891Y-49644195D01*
X180799739Y-49660586D01*
X180790244Y-49666069D01*
X180738202Y-49702509D01*
X180729826Y-49712988D01*
X180736894Y-49726434D01*
X181438438Y-50427978D01*
X181452382Y-50435592D01*
X181454215Y-50435461D01*
X181460830Y-50431210D01*
X182166327Y-49725713D01*
X182172757Y-49713938D01*
X182163461Y-49701923D01*
X182112256Y-49666069D01*
X182102761Y-49660586D01*
X182067609Y-49644195D01*
X182014324Y-49597278D01*
X181994863Y-49529001D01*
X182015405Y-49461041D01*
X182067609Y-49415805D01*
X182102761Y-49399414D01*
X182112256Y-49393931D01*
X182164298Y-49357491D01*
X182172674Y-49347012D01*
X182165606Y-49333566D01*
X181464062Y-48632022D01*
X181450118Y-48624408D01*
X181448285Y-48624539D01*
X181441670Y-48628790D01*
X180736173Y-49334287D01*
X180729743Y-49346062D01*
X166941493Y-49346062D01*
X167030222Y-49283933D01*
X167051039Y-49269357D01*
X167051042Y-49269355D01*
X167055550Y-49266198D01*
X167217448Y-49104300D01*
X167237509Y-49075651D01*
X167337457Y-48932910D01*
X167348773Y-48916749D01*
X167351096Y-48911767D01*
X167351099Y-48911762D01*
X167443211Y-48714225D01*
X167443211Y-48714224D01*
X167445534Y-48709243D01*
X167453787Y-48678445D01*
X167503369Y-48493402D01*
X167503369Y-48493400D01*
X167504793Y-48488087D01*
X167524269Y-48265475D01*
X180138733Y-48265475D01*
X180157722Y-48482519D01*
X180159625Y-48493312D01*
X180216014Y-48703761D01*
X180219760Y-48714053D01*
X180311836Y-48911511D01*
X180317319Y-48921006D01*
X180353759Y-48973048D01*
X180364238Y-48981424D01*
X180377684Y-48974356D01*
X181079228Y-48272812D01*
X181085606Y-48261132D01*
X181815658Y-48261132D01*
X181815789Y-48262965D01*
X181820040Y-48269580D01*
X182525537Y-48975077D01*
X182537312Y-48981507D01*
X182549327Y-48972211D01*
X182585181Y-48921006D01*
X182590664Y-48911511D01*
X182682740Y-48714053D01*
X182686486Y-48703761D01*
X182742875Y-48493312D01*
X182744778Y-48482519D01*
X182763767Y-48265475D01*
X182763767Y-48254525D01*
X182744778Y-48037481D01*
X182742875Y-48026688D01*
X182686486Y-47816239D01*
X182682740Y-47805947D01*
X182590664Y-47608489D01*
X182585181Y-47598994D01*
X182548741Y-47546952D01*
X182538262Y-47538576D01*
X182524816Y-47545644D01*
X181823272Y-48247188D01*
X181815658Y-48261132D01*
X181085606Y-48261132D01*
X181086842Y-48258868D01*
X181086711Y-48257035D01*
X181082460Y-48250420D01*
X180376963Y-47544923D01*
X180365188Y-47538493D01*
X180353173Y-47547789D01*
X180317319Y-47598994D01*
X180311836Y-47608489D01*
X180219760Y-47805947D01*
X180216014Y-47816239D01*
X180159625Y-48026688D01*
X180157722Y-48037481D01*
X180138733Y-48254525D01*
X180138733Y-48265475D01*
X167524269Y-48265475D01*
X167524748Y-48260000D01*
X167504793Y-48031913D01*
X167474698Y-47919596D01*
X167446957Y-47816067D01*
X167446956Y-47816065D01*
X167445534Y-47810757D01*
X167351216Y-47608489D01*
X167351099Y-47608238D01*
X167351096Y-47608233D01*
X167348773Y-47603251D01*
X167234440Y-47439967D01*
X167220607Y-47420211D01*
X167220605Y-47420208D01*
X167217448Y-47415700D01*
X167055550Y-47253802D01*
X167051042Y-47250645D01*
X167051039Y-47250643D01*
X166925170Y-47162509D01*
X166867999Y-47122477D01*
X166863017Y-47120154D01*
X166863012Y-47120151D01*
X166828793Y-47104195D01*
X166775508Y-47057278D01*
X166756047Y-46989001D01*
X166776589Y-46921041D01*
X166828793Y-46875805D01*
X166863012Y-46859849D01*
X166863017Y-46859846D01*
X166867999Y-46857523D01*
X166972861Y-46784098D01*
X167051039Y-46729357D01*
X167051042Y-46729355D01*
X167055550Y-46726198D01*
X167217448Y-46564300D01*
X167348773Y-46376749D01*
X167351096Y-46371767D01*
X167351099Y-46371762D01*
X167443211Y-46174225D01*
X167443211Y-46174224D01*
X167445534Y-46169243D01*
X167487691Y-46011914D01*
X167503369Y-45953402D01*
X167503369Y-45953400D01*
X167504793Y-45948087D01*
X167524748Y-45720000D01*
X180137752Y-45720000D01*
X180157707Y-45948087D01*
X180159131Y-45953400D01*
X180159131Y-45953402D01*
X180174810Y-46011914D01*
X180216966Y-46169243D01*
X180219289Y-46174224D01*
X180219289Y-46174225D01*
X180311401Y-46371762D01*
X180311404Y-46371767D01*
X180313727Y-46376749D01*
X180445052Y-46564300D01*
X180606950Y-46726198D01*
X180611458Y-46729355D01*
X180611461Y-46729357D01*
X180689639Y-46784098D01*
X180794501Y-46857523D01*
X180799483Y-46859846D01*
X180799488Y-46859849D01*
X180834299Y-46876081D01*
X180887584Y-46922998D01*
X180907045Y-46991275D01*
X180886503Y-47059235D01*
X180834299Y-47104471D01*
X180799739Y-47120586D01*
X180790244Y-47126069D01*
X180738202Y-47162509D01*
X180729826Y-47172988D01*
X180736894Y-47186434D01*
X181438438Y-47887978D01*
X181452382Y-47895592D01*
X181454215Y-47895461D01*
X181460830Y-47891210D01*
X182166327Y-47185713D01*
X182172757Y-47173938D01*
X182163461Y-47161923D01*
X182112256Y-47126069D01*
X182102761Y-47120586D01*
X182068201Y-47104471D01*
X182014916Y-47057554D01*
X181995455Y-46989277D01*
X182015997Y-46921317D01*
X182068201Y-46876081D01*
X182103012Y-46859849D01*
X182103017Y-46859846D01*
X182107999Y-46857523D01*
X182212861Y-46784098D01*
X182291039Y-46729357D01*
X182291042Y-46729355D01*
X182295550Y-46726198D01*
X182457448Y-46564300D01*
X182588773Y-46376749D01*
X182591096Y-46371767D01*
X182591099Y-46371762D01*
X182683211Y-46174225D01*
X182683211Y-46174224D01*
X182685534Y-46169243D01*
X182727691Y-46011914D01*
X182743369Y-45953402D01*
X182743369Y-45953400D01*
X182744793Y-45948087D01*
X182764748Y-45720000D01*
X182744793Y-45491913D01*
X182685534Y-45270757D01*
X182683211Y-45265775D01*
X182591099Y-45068238D01*
X182591096Y-45068233D01*
X182588773Y-45063251D01*
X182457448Y-44875700D01*
X182295550Y-44713802D01*
X182291039Y-44710643D01*
X182286826Y-44707108D01*
X182287777Y-44705974D01*
X182247779Y-44655929D01*
X182240474Y-44585310D01*
X182272508Y-44521951D01*
X182333712Y-44485970D01*
X182350767Y-44482918D01*
X182361566Y-44481745D01*
X182497955Y-44430615D01*
X182614511Y-44343261D01*
X182701865Y-44226705D01*
X182752995Y-44090316D01*
X182759750Y-44028134D01*
X182759750Y-42331866D01*
X182752995Y-42269684D01*
X182701865Y-42133295D01*
X182614511Y-42016739D01*
X182497955Y-41929385D01*
X182361566Y-41878255D01*
X182299384Y-41871500D01*
X180603116Y-41871500D01*
X180540934Y-41878255D01*
X180404545Y-41929385D01*
X180287989Y-42016739D01*
X180200635Y-42133295D01*
X180149505Y-42269684D01*
X180142750Y-42331866D01*
X180142750Y-44028134D01*
X180149505Y-44090316D01*
X180200635Y-44226705D01*
X180287989Y-44343261D01*
X180404545Y-44430615D01*
X180540934Y-44481745D01*
X180551724Y-44482917D01*
X180553856Y-44483803D01*
X180556472Y-44484425D01*
X180556371Y-44484848D01*
X180617285Y-44510155D01*
X180657713Y-44568517D01*
X180660172Y-44639471D01*
X180623879Y-44700490D01*
X180615219Y-44707489D01*
X180611457Y-44710646D01*
X180606950Y-44713802D01*
X180445052Y-44875700D01*
X180313727Y-45063251D01*
X180311404Y-45068233D01*
X180311401Y-45068238D01*
X180219289Y-45265775D01*
X180216966Y-45270757D01*
X180157707Y-45491913D01*
X180137752Y-45720000D01*
X167524748Y-45720000D01*
X167504793Y-45491913D01*
X167445534Y-45270757D01*
X167443211Y-45265775D01*
X167351099Y-45068238D01*
X167351096Y-45068233D01*
X167348773Y-45063251D01*
X167217448Y-44875700D01*
X167055550Y-44713802D01*
X167051042Y-44710645D01*
X167051039Y-44710643D01*
X166972861Y-44655902D01*
X166867999Y-44582477D01*
X166863017Y-44580154D01*
X166863012Y-44580151D01*
X166828793Y-44564195D01*
X166775508Y-44517278D01*
X166756047Y-44449001D01*
X166776589Y-44381041D01*
X166828793Y-44335805D01*
X166863012Y-44319849D01*
X166863017Y-44319846D01*
X166867999Y-44317523D01*
X167009708Y-44218297D01*
X167051039Y-44189357D01*
X167051042Y-44189355D01*
X167055550Y-44186198D01*
X167217448Y-44024300D01*
X167221453Y-44018581D01*
X167293007Y-43916391D01*
X167348773Y-43836749D01*
X167351096Y-43831767D01*
X167351099Y-43831762D01*
X167443211Y-43634225D01*
X167443211Y-43634224D01*
X167445534Y-43629243D01*
X167504793Y-43408087D01*
X167524748Y-43180000D01*
X167504793Y-42951913D01*
X167445534Y-42730757D01*
X167403164Y-42639893D01*
X167351099Y-42528238D01*
X167351096Y-42528233D01*
X167348773Y-42523251D01*
X167217448Y-42335700D01*
X167055550Y-42173802D01*
X167051042Y-42170645D01*
X167051039Y-42170643D01*
X166972861Y-42115902D01*
X166867999Y-42042477D01*
X166863017Y-42040154D01*
X166863012Y-42040151D01*
X166665475Y-41948039D01*
X166665474Y-41948039D01*
X166660493Y-41945716D01*
X166655185Y-41944294D01*
X166655183Y-41944293D01*
X166444652Y-41887881D01*
X166444650Y-41887881D01*
X166439337Y-41886457D01*
X166211250Y-41866502D01*
X165983163Y-41886457D01*
X165977850Y-41887881D01*
X165977848Y-41887881D01*
X165767317Y-41944293D01*
X165767315Y-41944294D01*
X165762007Y-41945716D01*
X165757026Y-41948039D01*
X165757025Y-41948039D01*
X165559488Y-42040151D01*
X165559483Y-42040154D01*
X165554501Y-42042477D01*
X165449639Y-42115902D01*
X165371461Y-42170643D01*
X165371458Y-42170645D01*
X165366950Y-42173802D01*
X165205052Y-42335700D01*
X165073727Y-42523251D01*
X165071404Y-42528233D01*
X165071401Y-42528238D01*
X165019336Y-42639893D01*
X164976966Y-42730757D01*
X164917707Y-42951913D01*
X164897752Y-43180000D01*
X164917707Y-43408087D01*
X164976966Y-43629243D01*
X164979289Y-43634224D01*
X164979289Y-43634225D01*
X165071401Y-43831762D01*
X165071404Y-43831767D01*
X165073727Y-43836749D01*
X165129493Y-43916391D01*
X165201048Y-44018581D01*
X165205052Y-44024300D01*
X165366950Y-44186198D01*
X165371458Y-44189355D01*
X165371461Y-44189357D01*
X165412792Y-44218297D01*
X165554501Y-44317523D01*
X165559483Y-44319846D01*
X165559488Y-44319849D01*
X165593707Y-44335805D01*
X165646992Y-44382722D01*
X165666453Y-44450999D01*
X165645911Y-44518959D01*
X165593707Y-44564195D01*
X165559488Y-44580151D01*
X165559483Y-44580154D01*
X165554501Y-44582477D01*
X165449639Y-44655902D01*
X165371461Y-44710643D01*
X165371458Y-44710645D01*
X165366950Y-44713802D01*
X165205052Y-44875700D01*
X165073727Y-45063251D01*
X165071404Y-45068233D01*
X165071401Y-45068238D01*
X164979289Y-45265775D01*
X164976966Y-45270757D01*
X164917707Y-45491913D01*
X164897752Y-45720000D01*
X164917707Y-45948087D01*
X164919131Y-45953400D01*
X164919131Y-45953402D01*
X164934810Y-46011914D01*
X164976966Y-46169243D01*
X164979289Y-46174224D01*
X164979289Y-46174225D01*
X165071401Y-46371762D01*
X165071404Y-46371767D01*
X165073727Y-46376749D01*
X165205052Y-46564300D01*
X165366950Y-46726198D01*
X165371458Y-46729355D01*
X165371461Y-46729357D01*
X165449639Y-46784098D01*
X165554501Y-46857523D01*
X165559483Y-46859846D01*
X165559488Y-46859849D01*
X165593707Y-46875805D01*
X165646992Y-46922722D01*
X165666453Y-46990999D01*
X165645911Y-47058959D01*
X165593707Y-47104195D01*
X165559488Y-47120151D01*
X165559483Y-47120154D01*
X165554501Y-47122477D01*
X165497330Y-47162509D01*
X165371461Y-47250643D01*
X165371458Y-47250645D01*
X165366950Y-47253802D01*
X165205052Y-47415700D01*
X165201895Y-47420208D01*
X165201893Y-47420211D01*
X165188060Y-47439967D01*
X165073727Y-47603251D01*
X165071404Y-47608233D01*
X165071401Y-47608238D01*
X165071284Y-47608489D01*
X164976966Y-47810757D01*
X164975544Y-47816065D01*
X164975543Y-47816067D01*
X164947802Y-47919596D01*
X164917707Y-48031913D01*
X164897752Y-48260000D01*
X164917707Y-48488087D01*
X164919131Y-48493400D01*
X164919131Y-48493402D01*
X164968714Y-48678445D01*
X164976966Y-48709243D01*
X164979289Y-48714224D01*
X164979289Y-48714225D01*
X165071401Y-48911762D01*
X165071404Y-48911767D01*
X165073727Y-48916749D01*
X165085043Y-48932910D01*
X165184992Y-49075651D01*
X165205052Y-49104300D01*
X165366950Y-49266198D01*
X165371458Y-49269355D01*
X165371461Y-49269357D01*
X165392278Y-49283933D01*
X165554501Y-49397523D01*
X165559483Y-49399846D01*
X165559488Y-49399849D01*
X165593707Y-49415805D01*
X165646992Y-49462722D01*
X165666453Y-49530999D01*
X165645911Y-49598959D01*
X165593707Y-49644195D01*
X165559488Y-49660151D01*
X165559483Y-49660154D01*
X165554501Y-49662477D01*
X165497330Y-49702509D01*
X165371461Y-49790643D01*
X165371458Y-49790645D01*
X165366950Y-49793802D01*
X165205052Y-49955700D01*
X165073727Y-50143251D01*
X165071404Y-50148233D01*
X165071401Y-50148238D01*
X164979289Y-50345775D01*
X164976966Y-50350757D01*
X164975544Y-50356065D01*
X164975543Y-50356067D01*
X164954269Y-50435461D01*
X164917707Y-50571913D01*
X164897752Y-50800000D01*
X164917707Y-51028087D01*
X164919131Y-51033400D01*
X164919131Y-51033402D01*
X164956275Y-51172022D01*
X164976966Y-51249243D01*
X164979289Y-51254224D01*
X164979289Y-51254225D01*
X165071401Y-51451762D01*
X165071404Y-51451767D01*
X165073727Y-51456749D01*
X165085043Y-51472910D01*
X165198415Y-51634821D01*
X165205052Y-51644300D01*
X165366950Y-51806198D01*
X165371458Y-51809355D01*
X165371461Y-51809357D01*
X165449639Y-51864098D01*
X165554501Y-51937523D01*
X165559483Y-51939846D01*
X165559488Y-51939849D01*
X165593707Y-51955805D01*
X165646992Y-52002722D01*
X165666453Y-52070999D01*
X165645911Y-52138959D01*
X165593707Y-52184195D01*
X165559488Y-52200151D01*
X165559483Y-52200154D01*
X165554501Y-52202477D01*
X165514923Y-52230190D01*
X165371461Y-52330643D01*
X165371458Y-52330645D01*
X165366950Y-52333802D01*
X165205052Y-52495700D01*
X165073727Y-52683251D01*
X165071404Y-52688233D01*
X165071401Y-52688238D01*
X164991839Y-52858862D01*
X164976966Y-52890757D01*
X164917707Y-53111913D01*
X164897752Y-53340000D01*
X164917707Y-53568087D01*
X164919131Y-53573400D01*
X164919131Y-53573402D01*
X164973198Y-53775179D01*
X164976966Y-53789243D01*
X164979289Y-53794224D01*
X164979289Y-53794225D01*
X165071401Y-53991762D01*
X165071404Y-53991767D01*
X165073727Y-53996749D01*
X165205052Y-54184300D01*
X165366950Y-54346198D01*
X165371458Y-54349355D01*
X165371461Y-54349357D01*
X165449639Y-54404098D01*
X165554501Y-54477523D01*
X165559483Y-54479846D01*
X165559488Y-54479849D01*
X165593707Y-54495805D01*
X165646992Y-54542722D01*
X165666453Y-54610999D01*
X165645911Y-54678959D01*
X165593707Y-54724195D01*
X165559488Y-54740151D01*
X165559483Y-54740154D01*
X165554501Y-54742477D01*
X165449639Y-54815902D01*
X165371461Y-54870643D01*
X165371458Y-54870645D01*
X165366950Y-54873802D01*
X165205052Y-55035700D01*
X165073727Y-55223251D01*
X165071404Y-55228233D01*
X165071401Y-55228238D01*
X164979289Y-55425775D01*
X164976966Y-55430757D01*
X164917707Y-55651913D01*
X164897752Y-55880000D01*
X164917707Y-56108087D01*
X164976966Y-56329243D01*
X164979289Y-56334224D01*
X164979289Y-56334225D01*
X165071401Y-56531762D01*
X165071404Y-56531767D01*
X165073727Y-56536749D01*
X165205052Y-56724300D01*
X165366950Y-56886198D01*
X165371458Y-56889355D01*
X165371461Y-56889357D01*
X165449639Y-56944098D01*
X165554501Y-57017523D01*
X165559483Y-57019846D01*
X165559488Y-57019849D01*
X165593707Y-57035805D01*
X165646992Y-57082722D01*
X165666453Y-57150999D01*
X165645911Y-57218959D01*
X165593707Y-57264195D01*
X165559488Y-57280151D01*
X165559483Y-57280154D01*
X165554501Y-57282477D01*
X165449639Y-57355902D01*
X165371461Y-57410643D01*
X165371458Y-57410645D01*
X165366950Y-57413802D01*
X165205052Y-57575700D01*
X165073727Y-57763251D01*
X165071404Y-57768233D01*
X165071401Y-57768238D01*
X164979289Y-57965775D01*
X164976966Y-57970757D01*
X164917707Y-58191913D01*
X164897752Y-58420000D01*
X164917707Y-58648087D01*
X164976966Y-58869243D01*
X164979289Y-58874224D01*
X164979289Y-58874225D01*
X165071401Y-59071762D01*
X165071404Y-59071767D01*
X165073727Y-59076749D01*
X165205052Y-59264300D01*
X165366950Y-59426198D01*
X165371458Y-59429355D01*
X165371461Y-59429357D01*
X165449639Y-59484098D01*
X165554501Y-59557523D01*
X165559483Y-59559846D01*
X165559488Y-59559849D01*
X165593707Y-59575805D01*
X165646992Y-59622722D01*
X165666453Y-59690999D01*
X165645911Y-59758959D01*
X165593707Y-59804195D01*
X165559488Y-59820151D01*
X165559483Y-59820154D01*
X165554501Y-59822477D01*
X165449639Y-59895902D01*
X165371461Y-59950643D01*
X165371458Y-59950645D01*
X165366950Y-59953802D01*
X165205052Y-60115700D01*
X165201895Y-60120208D01*
X165201893Y-60120211D01*
X165176563Y-60156386D01*
X165073727Y-60303251D01*
X165071404Y-60308233D01*
X165071401Y-60308238D01*
X164979289Y-60505775D01*
X164976966Y-60510757D01*
X164975544Y-60516065D01*
X164975543Y-60516067D01*
X164936471Y-60661885D01*
X164917707Y-60731913D01*
X164897752Y-60960000D01*
X164917707Y-61188087D01*
X164919131Y-61193400D01*
X164919131Y-61193402D01*
X164974849Y-61401341D01*
X164976966Y-61409243D01*
X164979289Y-61414224D01*
X164979289Y-61414225D01*
X165071401Y-61611762D01*
X165071404Y-61611767D01*
X165073727Y-61616749D01*
X165205052Y-61804300D01*
X165366950Y-61966198D01*
X165371458Y-61969355D01*
X165371461Y-61969357D01*
X165449639Y-62024098D01*
X165554501Y-62097523D01*
X165559483Y-62099846D01*
X165559488Y-62099849D01*
X165593707Y-62115805D01*
X165646992Y-62162722D01*
X165666453Y-62230999D01*
X165645911Y-62298959D01*
X165593707Y-62344195D01*
X165559488Y-62360151D01*
X165559483Y-62360154D01*
X165554501Y-62362477D01*
X165449639Y-62435902D01*
X165371461Y-62490643D01*
X165371458Y-62490645D01*
X165366950Y-62493802D01*
X165205052Y-62655700D01*
X165073727Y-62843251D01*
X165071404Y-62848233D01*
X165071401Y-62848238D01*
X165019657Y-62959205D01*
X164976966Y-63050757D01*
X164975544Y-63056065D01*
X164975543Y-63056067D01*
X164931448Y-63220631D01*
X164917707Y-63271913D01*
X164897752Y-63500000D01*
X164917707Y-63728087D01*
X164976966Y-63949243D01*
X164979289Y-63954224D01*
X164979289Y-63954225D01*
X165071401Y-64151762D01*
X165071404Y-64151767D01*
X165073727Y-64156749D01*
X165205052Y-64344300D01*
X165366950Y-64506198D01*
X165371458Y-64509355D01*
X165371461Y-64509357D01*
X165449639Y-64564098D01*
X165554501Y-64637523D01*
X165559483Y-64639846D01*
X165559488Y-64639849D01*
X165593707Y-64655805D01*
X165646992Y-64702722D01*
X165666453Y-64770999D01*
X165645911Y-64838959D01*
X165593707Y-64884195D01*
X165559488Y-64900151D01*
X165559483Y-64900154D01*
X165554501Y-64902477D01*
X165449639Y-64975902D01*
X165371461Y-65030643D01*
X165371458Y-65030645D01*
X165366950Y-65033802D01*
X165205052Y-65195700D01*
X165073727Y-65383251D01*
X165071404Y-65388233D01*
X165071401Y-65388238D01*
X165004880Y-65530894D01*
X164976966Y-65590757D01*
X164975544Y-65596065D01*
X164975543Y-65596067D01*
X164940560Y-65726624D01*
X164917707Y-65811913D01*
X164897752Y-66040000D01*
X164898231Y-66045475D01*
X164898231Y-66045486D01*
X164899276Y-66057430D01*
X164885288Y-66127035D01*
X164835889Y-66178027D01*
X164766763Y-66194218D01*
X164699857Y-66170466D01*
X164684661Y-66157507D01*
X162481380Y-63954225D01*
X160047402Y-61520247D01*
X160039862Y-61511961D01*
X160035750Y-61505482D01*
X159986098Y-61458856D01*
X159983257Y-61456102D01*
X159963520Y-61436365D01*
X159960323Y-61433885D01*
X159951301Y-61426180D01*
X159924850Y-61401341D01*
X159919071Y-61395914D01*
X159912125Y-61392095D01*
X159912122Y-61392093D01*
X159901316Y-61386152D01*
X159884797Y-61375301D01*
X159875821Y-61368339D01*
X159868791Y-61362886D01*
X159861522Y-61359741D01*
X159861518Y-61359738D01*
X159828213Y-61345326D01*
X159817563Y-61340109D01*
X159778810Y-61318805D01*
X159759187Y-61313767D01*
X159740484Y-61307363D01*
X159729170Y-61302467D01*
X159729169Y-61302467D01*
X159721895Y-61299319D01*
X159714072Y-61298080D01*
X159714062Y-61298077D01*
X159678226Y-61292401D01*
X159666606Y-61289995D01*
X159631461Y-61280972D01*
X159631460Y-61280972D01*
X159623780Y-61279000D01*
X159603526Y-61279000D01*
X159583815Y-61277449D01*
X159571636Y-61275520D01*
X159563807Y-61274280D01*
X159555915Y-61275026D01*
X159519789Y-61278441D01*
X159507931Y-61279000D01*
X159309500Y-61279000D01*
X159241379Y-61258998D01*
X159194886Y-61205342D01*
X159183500Y-61153000D01*
X159183500Y-61064366D01*
X159176745Y-61002184D01*
X159125615Y-60865795D01*
X159038261Y-60749239D01*
X158921705Y-60661885D01*
X158785316Y-60610755D01*
X158723134Y-60604000D01*
X157514595Y-60604000D01*
X157446474Y-60583998D01*
X157425500Y-60567095D01*
X156664152Y-59805747D01*
X156656612Y-59797461D01*
X156652500Y-59790982D01*
X156626534Y-59766598D01*
X156602849Y-59744357D01*
X156600007Y-59741602D01*
X156580270Y-59721865D01*
X156577073Y-59719385D01*
X156568051Y-59711680D01*
X156554622Y-59699069D01*
X156535821Y-59681414D01*
X156528875Y-59677595D01*
X156528872Y-59677593D01*
X156518066Y-59671652D01*
X156501547Y-59660801D01*
X156501083Y-59660441D01*
X156485541Y-59648386D01*
X156478272Y-59645241D01*
X156478268Y-59645238D01*
X156444963Y-59630826D01*
X156434313Y-59625609D01*
X156395560Y-59604305D01*
X156375937Y-59599267D01*
X156357234Y-59592863D01*
X156345920Y-59587967D01*
X156345919Y-59587967D01*
X156338645Y-59584819D01*
X156330822Y-59583580D01*
X156330812Y-59583577D01*
X156294976Y-59577901D01*
X156283356Y-59575495D01*
X156248211Y-59566472D01*
X156248210Y-59566472D01*
X156240530Y-59564500D01*
X156220276Y-59564500D01*
X156200565Y-59562949D01*
X156188386Y-59561020D01*
X156180557Y-59559780D01*
X156151286Y-59562547D01*
X156136539Y-59563941D01*
X156124681Y-59564500D01*
X141424517Y-59564500D01*
X141413334Y-59563973D01*
X141405841Y-59562298D01*
X141397915Y-59562547D01*
X141397914Y-59562547D01*
X141337764Y-59564438D01*
X141333805Y-59564500D01*
X141305894Y-59564500D01*
X141301960Y-59564997D01*
X141301959Y-59564997D01*
X141301894Y-59565005D01*
X141290057Y-59565938D01*
X141258240Y-59566938D01*
X141253779Y-59567078D01*
X141245860Y-59567327D01*
X141228204Y-59572456D01*
X141226408Y-59572978D01*
X141207056Y-59576986D01*
X141199985Y-59577880D01*
X141186953Y-59579526D01*
X141179584Y-59582443D01*
X141179582Y-59582444D01*
X141145847Y-59595800D01*
X141134619Y-59599645D01*
X141092157Y-59611982D01*
X141085334Y-59616017D01*
X141085332Y-59616018D01*
X141074722Y-59622293D01*
X141056974Y-59630988D01*
X141038133Y-59638448D01*
X141031717Y-59643110D01*
X141031716Y-59643110D01*
X141002363Y-59664436D01*
X140992443Y-59670952D01*
X140961215Y-59689420D01*
X140961212Y-59689422D01*
X140954388Y-59693458D01*
X140940067Y-59707779D01*
X140925034Y-59720619D01*
X140908643Y-59732528D01*
X140903593Y-59738632D01*
X140903588Y-59738637D01*
X140880457Y-59766598D01*
X140872467Y-59775379D01*
X140080749Y-60567096D01*
X140018437Y-60601121D01*
X139991654Y-60604000D01*
X139270845Y-60604000D01*
X139202724Y-60583998D01*
X139181750Y-60567095D01*
X138928402Y-60313747D01*
X138920862Y-60305461D01*
X138916750Y-60298982D01*
X138867098Y-60252356D01*
X138864257Y-60249602D01*
X138844520Y-60229865D01*
X138841323Y-60227385D01*
X138832301Y-60219680D01*
X138828147Y-60215779D01*
X138800071Y-60189414D01*
X138793125Y-60185595D01*
X138793122Y-60185593D01*
X138782316Y-60179652D01*
X138765797Y-60168801D01*
X138765333Y-60168441D01*
X138749791Y-60156386D01*
X138742522Y-60153241D01*
X138742518Y-60153238D01*
X138709213Y-60138826D01*
X138698563Y-60133609D01*
X138659810Y-60112305D01*
X138640187Y-60107267D01*
X138621484Y-60100863D01*
X138610170Y-60095967D01*
X138610169Y-60095967D01*
X138602895Y-60092819D01*
X138595072Y-60091580D01*
X138595062Y-60091577D01*
X138559226Y-60085901D01*
X138547606Y-60083495D01*
X138512461Y-60074472D01*
X138512460Y-60074472D01*
X138504780Y-60072500D01*
X138484526Y-60072500D01*
X138464815Y-60070949D01*
X138452636Y-60069020D01*
X138444807Y-60067780D01*
X138415536Y-60070547D01*
X138400789Y-60071941D01*
X138388931Y-60072500D01*
X121866518Y-60072500D01*
X121855335Y-60071973D01*
X121847842Y-60070298D01*
X121839916Y-60070547D01*
X121839915Y-60070547D01*
X121779752Y-60072438D01*
X121775794Y-60072500D01*
X121747894Y-60072500D01*
X121743904Y-60073004D01*
X121732070Y-60073936D01*
X121687861Y-60075326D01*
X121680245Y-60077539D01*
X121680243Y-60077539D01*
X121668402Y-60080979D01*
X121649043Y-60084988D01*
X121647733Y-60085154D01*
X121628953Y-60087526D01*
X121621587Y-60090442D01*
X121621581Y-60090444D01*
X121587848Y-60103800D01*
X121576618Y-60107645D01*
X121547443Y-60116121D01*
X121534157Y-60119981D01*
X121527334Y-60124016D01*
X121516716Y-60130295D01*
X121498963Y-60138992D01*
X121491318Y-60142019D01*
X121480133Y-60146448D01*
X121466455Y-60156386D01*
X121444362Y-60172437D01*
X121434445Y-60178951D01*
X121396388Y-60201458D01*
X121382067Y-60215779D01*
X121367034Y-60228619D01*
X121350643Y-60240528D01*
X121341967Y-60251016D01*
X121322452Y-60274605D01*
X121314462Y-60283384D01*
X121030751Y-60567095D01*
X120968439Y-60601121D01*
X120941656Y-60604000D01*
X119733116Y-60604000D01*
X119670934Y-60610755D01*
X119534545Y-60661885D01*
X119417989Y-60749239D01*
X119330635Y-60865795D01*
X119279505Y-61002184D01*
X119272750Y-61064366D01*
X119272750Y-62760634D01*
X113783614Y-62760634D01*
X113787448Y-62756800D01*
X113918773Y-62569249D01*
X113921096Y-62564267D01*
X113921099Y-62564262D01*
X114013211Y-62366725D01*
X114013211Y-62366724D01*
X114015534Y-62361743D01*
X114032808Y-62297278D01*
X114073369Y-62145902D01*
X114073369Y-62145900D01*
X114074793Y-62140587D01*
X114094748Y-61912500D01*
X114074793Y-61684413D01*
X114057870Y-61621257D01*
X114016957Y-61468567D01*
X114016956Y-61468565D01*
X114015534Y-61463257D01*
X114001841Y-61433892D01*
X113921099Y-61260738D01*
X113921096Y-61260733D01*
X113918773Y-61255751D01*
X113787448Y-61068200D01*
X113625550Y-60906302D01*
X113621042Y-60903145D01*
X113621039Y-60903143D01*
X113542861Y-60848402D01*
X113437999Y-60774977D01*
X113433017Y-60772654D01*
X113433012Y-60772651D01*
X113235475Y-60680539D01*
X113235474Y-60680539D01*
X113230493Y-60678216D01*
X113225185Y-60676794D01*
X113225183Y-60676793D01*
X113014652Y-60620381D01*
X113014650Y-60620381D01*
X113009337Y-60618957D01*
X112781250Y-60599002D01*
X112553163Y-60618957D01*
X112547850Y-60620381D01*
X112547848Y-60620381D01*
X112337317Y-60676793D01*
X112337315Y-60676794D01*
X112332007Y-60678216D01*
X112327026Y-60680539D01*
X112327025Y-60680539D01*
X112129488Y-60772651D01*
X112129483Y-60772654D01*
X112124501Y-60774977D01*
X112019639Y-60848402D01*
X111941461Y-60903143D01*
X111941458Y-60903145D01*
X111936950Y-60906302D01*
X111775052Y-61068200D01*
X111643727Y-61255751D01*
X111641404Y-61260733D01*
X111641401Y-61260738D01*
X111560659Y-61433892D01*
X111546966Y-61463257D01*
X111545544Y-61468565D01*
X111545543Y-61468567D01*
X111504630Y-61621257D01*
X111487707Y-61684413D01*
X111467752Y-61912500D01*
X105283500Y-61912500D01*
X105283500Y-52862821D01*
X114014000Y-52862821D01*
X114053560Y-53175975D01*
X114132057Y-53481702D01*
X114133510Y-53485371D01*
X114133510Y-53485372D01*
X114164090Y-53562607D01*
X114248253Y-53775179D01*
X114250159Y-53778647D01*
X114250160Y-53778648D01*
X114253066Y-53783933D01*
X114400316Y-54051779D01*
X114585846Y-54307140D01*
X114801918Y-54537233D01*
X115045125Y-54738432D01*
X115311631Y-54907562D01*
X115315210Y-54909246D01*
X115315217Y-54909250D01*
X115593644Y-55040267D01*
X115593648Y-55040269D01*
X115597234Y-55041956D01*
X115897428Y-55139495D01*
X116207480Y-55198641D01*
X116443662Y-55213500D01*
X116601338Y-55213500D01*
X116837520Y-55198641D01*
X117147572Y-55139495D01*
X117447766Y-55041956D01*
X117451352Y-55040269D01*
X117451356Y-55040267D01*
X117729783Y-54909250D01*
X117729790Y-54909246D01*
X117733369Y-54907562D01*
X117999875Y-54738432D01*
X118243082Y-54537233D01*
X118459154Y-54307140D01*
X118644684Y-54051779D01*
X118791935Y-53783933D01*
X118794840Y-53778648D01*
X118794841Y-53778647D01*
X118796747Y-53775179D01*
X118880911Y-53562607D01*
X118911490Y-53485372D01*
X118911490Y-53485371D01*
X118912943Y-53481702D01*
X118991440Y-53175975D01*
X119031000Y-52862821D01*
X133064000Y-52862821D01*
X133103560Y-53175975D01*
X133182057Y-53481702D01*
X133183510Y-53485371D01*
X133183510Y-53485372D01*
X133214090Y-53562607D01*
X133298253Y-53775179D01*
X133300159Y-53778647D01*
X133300160Y-53778648D01*
X133303066Y-53783933D01*
X133450316Y-54051779D01*
X133635846Y-54307140D01*
X133851918Y-54537233D01*
X134095125Y-54738432D01*
X134361631Y-54907562D01*
X134365210Y-54909246D01*
X134365217Y-54909250D01*
X134643644Y-55040267D01*
X134643648Y-55040269D01*
X134647234Y-55041956D01*
X134947428Y-55139495D01*
X135257480Y-55198641D01*
X135493662Y-55213500D01*
X135651338Y-55213500D01*
X135887520Y-55198641D01*
X136197572Y-55139495D01*
X136497766Y-55041956D01*
X136501352Y-55040269D01*
X136501356Y-55040267D01*
X136779783Y-54909250D01*
X136779790Y-54909246D01*
X136783369Y-54907562D01*
X137049875Y-54738432D01*
X137293082Y-54537233D01*
X137509154Y-54307140D01*
X137694684Y-54051779D01*
X137841935Y-53783933D01*
X137844840Y-53778648D01*
X137844841Y-53778647D01*
X137846747Y-53775179D01*
X137930911Y-53562607D01*
X137961490Y-53485372D01*
X137961490Y-53485371D01*
X137962943Y-53481702D01*
X138041440Y-53175975D01*
X138081000Y-52862821D01*
X152114000Y-52862821D01*
X152153560Y-53175975D01*
X152232057Y-53481702D01*
X152233510Y-53485371D01*
X152233510Y-53485372D01*
X152264090Y-53562607D01*
X152348253Y-53775179D01*
X152350159Y-53778647D01*
X152350160Y-53778648D01*
X152353066Y-53783933D01*
X152500316Y-54051779D01*
X152685846Y-54307140D01*
X152901918Y-54537233D01*
X153145125Y-54738432D01*
X153411631Y-54907562D01*
X153415210Y-54909246D01*
X153415217Y-54909250D01*
X153693644Y-55040267D01*
X153693648Y-55040269D01*
X153697234Y-55041956D01*
X153997428Y-55139495D01*
X154307480Y-55198641D01*
X154543662Y-55213500D01*
X154701338Y-55213500D01*
X154937520Y-55198641D01*
X155247572Y-55139495D01*
X155547766Y-55041956D01*
X155551352Y-55040269D01*
X155551356Y-55040267D01*
X155829783Y-54909250D01*
X155829790Y-54909246D01*
X155833369Y-54907562D01*
X156099875Y-54738432D01*
X156343082Y-54537233D01*
X156559154Y-54307140D01*
X156744684Y-54051779D01*
X156891935Y-53783933D01*
X156894840Y-53778648D01*
X156894841Y-53778647D01*
X156896747Y-53775179D01*
X156980911Y-53562607D01*
X157011490Y-53485372D01*
X157011490Y-53485371D01*
X157012943Y-53481702D01*
X157091440Y-53175975D01*
X157131000Y-52862821D01*
X157131000Y-52547179D01*
X157091440Y-52234025D01*
X157012943Y-51928298D01*
X156996221Y-51886062D01*
X156898202Y-51638495D01*
X156898200Y-51638490D01*
X156896747Y-51634821D01*
X156879042Y-51602616D01*
X156746593Y-51361693D01*
X156746591Y-51361690D01*
X156744684Y-51358221D01*
X156559154Y-51102860D01*
X156366310Y-50897502D01*
X156345797Y-50875658D01*
X156345796Y-50875657D01*
X156343082Y-50872767D01*
X156256491Y-50801132D01*
X156102927Y-50674093D01*
X156099875Y-50671568D01*
X155833369Y-50502438D01*
X155829790Y-50500754D01*
X155829783Y-50500750D01*
X155551356Y-50369733D01*
X155551352Y-50369731D01*
X155547766Y-50368044D01*
X155479759Y-50345947D01*
X155251348Y-50271732D01*
X155251350Y-50271732D01*
X155247572Y-50270505D01*
X154937520Y-50211359D01*
X154701338Y-50196500D01*
X154543662Y-50196500D01*
X154307480Y-50211359D01*
X153997428Y-50270505D01*
X153993650Y-50271732D01*
X153993652Y-50271732D01*
X153765242Y-50345947D01*
X153697234Y-50368044D01*
X153693648Y-50369731D01*
X153693644Y-50369733D01*
X153415217Y-50500750D01*
X153415210Y-50500754D01*
X153411631Y-50502438D01*
X153145125Y-50671568D01*
X153142073Y-50674093D01*
X152988510Y-50801132D01*
X152901918Y-50872767D01*
X152899204Y-50875657D01*
X152899203Y-50875658D01*
X152878690Y-50897502D01*
X152685846Y-51102860D01*
X152500316Y-51358221D01*
X152498409Y-51361690D01*
X152498407Y-51361693D01*
X152365958Y-51602616D01*
X152348253Y-51634821D01*
X152346800Y-51638490D01*
X152346798Y-51638495D01*
X152248779Y-51886062D01*
X152232057Y-51928298D01*
X152153560Y-52234025D01*
X152114000Y-52547179D01*
X152114000Y-52862821D01*
X138081000Y-52862821D01*
X138081000Y-52547179D01*
X138041440Y-52234025D01*
X137962943Y-51928298D01*
X137946221Y-51886062D01*
X137848202Y-51638495D01*
X137848200Y-51638490D01*
X137846747Y-51634821D01*
X137829042Y-51602616D01*
X137696593Y-51361693D01*
X137696591Y-51361690D01*
X137694684Y-51358221D01*
X137509154Y-51102860D01*
X137316310Y-50897502D01*
X137295797Y-50875658D01*
X137295796Y-50875657D01*
X137293082Y-50872767D01*
X137206491Y-50801132D01*
X137052927Y-50674093D01*
X137049875Y-50671568D01*
X136783369Y-50502438D01*
X136779790Y-50500754D01*
X136779783Y-50500750D01*
X136501356Y-50369733D01*
X136501352Y-50369731D01*
X136497766Y-50368044D01*
X136429759Y-50345947D01*
X136201348Y-50271732D01*
X136201350Y-50271732D01*
X136197572Y-50270505D01*
X135887520Y-50211359D01*
X135651338Y-50196500D01*
X135493662Y-50196500D01*
X135257480Y-50211359D01*
X134947428Y-50270505D01*
X134943650Y-50271732D01*
X134943652Y-50271732D01*
X134715242Y-50345947D01*
X134647234Y-50368044D01*
X134643648Y-50369731D01*
X134643644Y-50369733D01*
X134365217Y-50500750D01*
X134365210Y-50500754D01*
X134361631Y-50502438D01*
X134095125Y-50671568D01*
X134092073Y-50674093D01*
X133938510Y-50801132D01*
X133851918Y-50872767D01*
X133849204Y-50875657D01*
X133849203Y-50875658D01*
X133828690Y-50897502D01*
X133635846Y-51102860D01*
X133450316Y-51358221D01*
X133448409Y-51361690D01*
X133448407Y-51361693D01*
X133315958Y-51602616D01*
X133298253Y-51634821D01*
X133296800Y-51638490D01*
X133296798Y-51638495D01*
X133198779Y-51886062D01*
X133182057Y-51928298D01*
X133103560Y-52234025D01*
X133064000Y-52547179D01*
X133064000Y-52862821D01*
X119031000Y-52862821D01*
X119031000Y-52547179D01*
X118991440Y-52234025D01*
X118912943Y-51928298D01*
X118896221Y-51886062D01*
X118798202Y-51638495D01*
X118798200Y-51638490D01*
X118796747Y-51634821D01*
X118779042Y-51602616D01*
X118646593Y-51361693D01*
X118646591Y-51361690D01*
X118644684Y-51358221D01*
X118459154Y-51102860D01*
X118266310Y-50897502D01*
X118245797Y-50875658D01*
X118245796Y-50875657D01*
X118243082Y-50872767D01*
X118156491Y-50801132D01*
X118002927Y-50674093D01*
X117999875Y-50671568D01*
X117733369Y-50502438D01*
X117729790Y-50500754D01*
X117729783Y-50500750D01*
X117451356Y-50369733D01*
X117451352Y-50369731D01*
X117447766Y-50368044D01*
X117379759Y-50345947D01*
X117151348Y-50271732D01*
X117151350Y-50271732D01*
X117147572Y-50270505D01*
X116837520Y-50211359D01*
X116601338Y-50196500D01*
X116443662Y-50196500D01*
X116207480Y-50211359D01*
X115897428Y-50270505D01*
X115893650Y-50271732D01*
X115893652Y-50271732D01*
X115665242Y-50345947D01*
X115597234Y-50368044D01*
X115593648Y-50369731D01*
X115593644Y-50369733D01*
X115315217Y-50500750D01*
X115315210Y-50500754D01*
X115311631Y-50502438D01*
X115045125Y-50671568D01*
X115042073Y-50674093D01*
X114888510Y-50801132D01*
X114801918Y-50872767D01*
X114799204Y-50875657D01*
X114799203Y-50875658D01*
X114778690Y-50897502D01*
X114585846Y-51102860D01*
X114400316Y-51358221D01*
X114398409Y-51361690D01*
X114398407Y-51361693D01*
X114265958Y-51602616D01*
X114248253Y-51634821D01*
X114246800Y-51638490D01*
X114246798Y-51638495D01*
X114148779Y-51886062D01*
X114132057Y-51928298D01*
X114053560Y-52234025D01*
X114014000Y-52547179D01*
X114014000Y-52862821D01*
X105283500Y-52862821D01*
X105283500Y-50165000D01*
X111099026Y-50165000D01*
X111118891Y-50417403D01*
X111120045Y-50422210D01*
X111120046Y-50422216D01*
X111139306Y-50502438D01*
X111177995Y-50663591D01*
X111179888Y-50668162D01*
X111179889Y-50668164D01*
X111263593Y-50870242D01*
X111274884Y-50897502D01*
X111407172Y-51113376D01*
X111571602Y-51305898D01*
X111764124Y-51470328D01*
X111979998Y-51602616D01*
X111984568Y-51604509D01*
X111984572Y-51604511D01*
X112090040Y-51648197D01*
X112213909Y-51699505D01*
X112298532Y-51719821D01*
X112455284Y-51757454D01*
X112455290Y-51757455D01*
X112460097Y-51758609D01*
X112712500Y-51778474D01*
X112964903Y-51758609D01*
X112969710Y-51757455D01*
X112969716Y-51757454D01*
X113126468Y-51719821D01*
X113211091Y-51699505D01*
X113334960Y-51648197D01*
X113440428Y-51604511D01*
X113440432Y-51604509D01*
X113445002Y-51602616D01*
X113660876Y-51470328D01*
X113853398Y-51305898D01*
X114017828Y-51113376D01*
X114150116Y-50897502D01*
X114161408Y-50870242D01*
X114245111Y-50668164D01*
X114245112Y-50668162D01*
X114247005Y-50663591D01*
X114285694Y-50502438D01*
X114304954Y-50422216D01*
X114304955Y-50422210D01*
X114306109Y-50417403D01*
X114325974Y-50165000D01*
X130149026Y-50165000D01*
X130168891Y-50417403D01*
X130170045Y-50422210D01*
X130170046Y-50422216D01*
X130189306Y-50502438D01*
X130227995Y-50663591D01*
X130229888Y-50668162D01*
X130229889Y-50668164D01*
X130313593Y-50870242D01*
X130324884Y-50897502D01*
X130457172Y-51113376D01*
X130621602Y-51305898D01*
X130814124Y-51470328D01*
X131029998Y-51602616D01*
X131034568Y-51604509D01*
X131034572Y-51604511D01*
X131140040Y-51648197D01*
X131263909Y-51699505D01*
X131348532Y-51719821D01*
X131505284Y-51757454D01*
X131505290Y-51757455D01*
X131510097Y-51758609D01*
X131762500Y-51778474D01*
X132014903Y-51758609D01*
X132019710Y-51757455D01*
X132019716Y-51757454D01*
X132176468Y-51719821D01*
X132261091Y-51699505D01*
X132384960Y-51648197D01*
X132490428Y-51604511D01*
X132490432Y-51604509D01*
X132495002Y-51602616D01*
X132710876Y-51470328D01*
X132903398Y-51305898D01*
X133067828Y-51113376D01*
X133200116Y-50897502D01*
X133211408Y-50870242D01*
X133295111Y-50668164D01*
X133295112Y-50668162D01*
X133297005Y-50663591D01*
X133335694Y-50502438D01*
X133354954Y-50422216D01*
X133354955Y-50422210D01*
X133356109Y-50417403D01*
X133375974Y-50165000D01*
X149199026Y-50165000D01*
X149218891Y-50417403D01*
X149220045Y-50422210D01*
X149220046Y-50422216D01*
X149239306Y-50502438D01*
X149277995Y-50663591D01*
X149279888Y-50668162D01*
X149279889Y-50668164D01*
X149363593Y-50870242D01*
X149374884Y-50897502D01*
X149507172Y-51113376D01*
X149671602Y-51305898D01*
X149864124Y-51470328D01*
X150079998Y-51602616D01*
X150084568Y-51604509D01*
X150084572Y-51604511D01*
X150190040Y-51648197D01*
X150313909Y-51699505D01*
X150398532Y-51719821D01*
X150555284Y-51757454D01*
X150555290Y-51757455D01*
X150560097Y-51758609D01*
X150812500Y-51778474D01*
X151064903Y-51758609D01*
X151069710Y-51757455D01*
X151069716Y-51757454D01*
X151226468Y-51719821D01*
X151311091Y-51699505D01*
X151434960Y-51648197D01*
X151540428Y-51604511D01*
X151540432Y-51604509D01*
X151545002Y-51602616D01*
X151760876Y-51470328D01*
X151953398Y-51305898D01*
X152117828Y-51113376D01*
X152250116Y-50897502D01*
X152261408Y-50870242D01*
X152345111Y-50668164D01*
X152345112Y-50668162D01*
X152347005Y-50663591D01*
X152385694Y-50502438D01*
X152404954Y-50422216D01*
X152404955Y-50422210D01*
X152406109Y-50417403D01*
X152425974Y-50165000D01*
X152406109Y-49912597D01*
X152347005Y-49666409D01*
X152337804Y-49644195D01*
X152252011Y-49437072D01*
X152252009Y-49437068D01*
X152250116Y-49432498D01*
X152117828Y-49216624D01*
X151953398Y-49024102D01*
X151760876Y-48859672D01*
X151545002Y-48727384D01*
X151540432Y-48725491D01*
X151540428Y-48725489D01*
X151315664Y-48632389D01*
X151315662Y-48632388D01*
X151311091Y-48630495D01*
X151226468Y-48610179D01*
X151069716Y-48572546D01*
X151069710Y-48572545D01*
X151064903Y-48571391D01*
X150812500Y-48551526D01*
X150560097Y-48571391D01*
X150555290Y-48572545D01*
X150555284Y-48572546D01*
X150398532Y-48610179D01*
X150313909Y-48630495D01*
X150309338Y-48632388D01*
X150309336Y-48632389D01*
X150084572Y-48725489D01*
X150084568Y-48725491D01*
X150079998Y-48727384D01*
X149981968Y-48787457D01*
X149980419Y-48788406D01*
X149942706Y-48803681D01*
X149935708Y-48804343D01*
X149850964Y-48834853D01*
X149792571Y-48855875D01*
X149792569Y-48855876D01*
X149785111Y-48858561D01*
X149652729Y-48948528D01*
X149647485Y-48954476D01*
X149647484Y-48954477D01*
X149629323Y-48975077D01*
X149546880Y-49068590D01*
X149474215Y-49211204D01*
X149472485Y-49218942D01*
X149472485Y-49218943D01*
X149457958Y-49283933D01*
X149442425Y-49322281D01*
X149374884Y-49432498D01*
X149372991Y-49437068D01*
X149372990Y-49437070D01*
X149287196Y-49644195D01*
X149277995Y-49666409D01*
X149218891Y-49912597D01*
X149199026Y-50165000D01*
X133375974Y-50165000D01*
X133356109Y-49912597D01*
X133297005Y-49666409D01*
X133287804Y-49644195D01*
X133202011Y-49437072D01*
X133202009Y-49437068D01*
X133200116Y-49432498D01*
X133067828Y-49216624D01*
X132903398Y-49024102D01*
X132710876Y-48859672D01*
X132495002Y-48727384D01*
X132490432Y-48725491D01*
X132490428Y-48725489D01*
X132265664Y-48632389D01*
X132265662Y-48632388D01*
X132261091Y-48630495D01*
X132176468Y-48610179D01*
X132019716Y-48572546D01*
X132019710Y-48572545D01*
X132014903Y-48571391D01*
X131762500Y-48551526D01*
X131510097Y-48571391D01*
X131505290Y-48572545D01*
X131505284Y-48572546D01*
X131348532Y-48610179D01*
X131263909Y-48630495D01*
X131259338Y-48632388D01*
X131259336Y-48632389D01*
X131034572Y-48725489D01*
X131034568Y-48725491D01*
X131029998Y-48727384D01*
X130814124Y-48859672D01*
X130621602Y-49024102D01*
X130457172Y-49216624D01*
X130324884Y-49432498D01*
X130322991Y-49437068D01*
X130322989Y-49437072D01*
X130237196Y-49644195D01*
X130227995Y-49666409D01*
X130168891Y-49912597D01*
X130149026Y-50165000D01*
X114325974Y-50165000D01*
X114306109Y-49912597D01*
X114247005Y-49666409D01*
X114237804Y-49644195D01*
X114152011Y-49437072D01*
X114152009Y-49437068D01*
X114150116Y-49432498D01*
X114017828Y-49216624D01*
X113853398Y-49024102D01*
X113660876Y-48859672D01*
X113445002Y-48727384D01*
X113440432Y-48725491D01*
X113440428Y-48725489D01*
X113215664Y-48632389D01*
X113215662Y-48632388D01*
X113211091Y-48630495D01*
X113126468Y-48610179D01*
X112969716Y-48572546D01*
X112969710Y-48572545D01*
X112964903Y-48571391D01*
X112712500Y-48551526D01*
X112460097Y-48571391D01*
X112455290Y-48572545D01*
X112455284Y-48572546D01*
X112298532Y-48610179D01*
X112213909Y-48630495D01*
X112209338Y-48632388D01*
X112209336Y-48632389D01*
X111984572Y-48725489D01*
X111984568Y-48725491D01*
X111979998Y-48727384D01*
X111764124Y-48859672D01*
X111571602Y-49024102D01*
X111407172Y-49216624D01*
X111274884Y-49432498D01*
X111272991Y-49437068D01*
X111272989Y-49437072D01*
X111187196Y-49644195D01*
X111177995Y-49666409D01*
X111118891Y-49912597D01*
X111099026Y-50165000D01*
X105283500Y-50165000D01*
X105283500Y-47625000D01*
X117449026Y-47625000D01*
X117468891Y-47877403D01*
X117470045Y-47882210D01*
X117470046Y-47882216D01*
X117501140Y-48011731D01*
X117527995Y-48123591D01*
X117529888Y-48128162D01*
X117529889Y-48128164D01*
X117588466Y-48269580D01*
X117624884Y-48357502D01*
X117757172Y-48573376D01*
X117921602Y-48765898D01*
X118114124Y-48930328D01*
X118329998Y-49062616D01*
X118334568Y-49064509D01*
X118334572Y-49064511D01*
X118440040Y-49108197D01*
X118563909Y-49159505D01*
X118648532Y-49179821D01*
X118805284Y-49217454D01*
X118805290Y-49217455D01*
X118810097Y-49218609D01*
X119062500Y-49238474D01*
X119314903Y-49218609D01*
X119319710Y-49217455D01*
X119319716Y-49217454D01*
X119476468Y-49179821D01*
X119561091Y-49159505D01*
X119684960Y-49108197D01*
X119790428Y-49064511D01*
X119790432Y-49064509D01*
X119795002Y-49062616D01*
X120010876Y-48930328D01*
X120203398Y-48765898D01*
X120367828Y-48573376D01*
X120500116Y-48357502D01*
X120536535Y-48269580D01*
X120595111Y-48128164D01*
X120595112Y-48128162D01*
X120597005Y-48123591D01*
X120623860Y-48011731D01*
X120654954Y-47882216D01*
X120654955Y-47882210D01*
X120656109Y-47877403D01*
X120675974Y-47625000D01*
X120656109Y-47372597D01*
X120638337Y-47298568D01*
X124421382Y-47298568D01*
X124421963Y-47303588D01*
X124421963Y-47303592D01*
X124434484Y-47411803D01*
X124450208Y-47547699D01*
X124451587Y-47552573D01*
X124451588Y-47552577D01*
X124490526Y-47690181D01*
X124518494Y-47789017D01*
X124520628Y-47793592D01*
X124520630Y-47793599D01*
X124622347Y-48011731D01*
X124624484Y-48016313D01*
X124627326Y-48020494D01*
X124627326Y-48020495D01*
X124762605Y-48219552D01*
X124762608Y-48219556D01*
X124765451Y-48223739D01*
X124768928Y-48227416D01*
X124768929Y-48227417D01*
X124869238Y-48333491D01*
X124937767Y-48405959D01*
X124941793Y-48409037D01*
X124941794Y-48409038D01*
X125132981Y-48555212D01*
X125132985Y-48555215D01*
X125137001Y-48558285D01*
X125141459Y-48560675D01*
X125141460Y-48560676D01*
X125160720Y-48571003D01*
X125358026Y-48676797D01*
X125362807Y-48678443D01*
X125362811Y-48678445D01*
X125512450Y-48729970D01*
X125595156Y-48758448D01*
X125698689Y-48776331D01*
X125838380Y-48800460D01*
X125838386Y-48800461D01*
X125842290Y-48801135D01*
X125846251Y-48801315D01*
X125846252Y-48801315D01*
X125870931Y-48802436D01*
X125870950Y-48802436D01*
X125872350Y-48802500D01*
X126047015Y-48802500D01*
X126049523Y-48802298D01*
X126049528Y-48802298D01*
X126228944Y-48787863D01*
X126228949Y-48787862D01*
X126233985Y-48787457D01*
X126238893Y-48786252D01*
X126238896Y-48786251D01*
X126472625Y-48728841D01*
X126477539Y-48727634D01*
X126482191Y-48725659D01*
X126482195Y-48725658D01*
X126703741Y-48631617D01*
X126703742Y-48631617D01*
X126708396Y-48629641D01*
X126920615Y-48496000D01*
X127108738Y-48330147D01*
X127267924Y-48136351D01*
X127394078Y-47919596D01*
X127403293Y-47895592D01*
X127482143Y-47690181D01*
X127483955Y-47685461D01*
X127496586Y-47625000D01*
X136499026Y-47625000D01*
X136518891Y-47877403D01*
X136520045Y-47882210D01*
X136520046Y-47882216D01*
X136551140Y-48011731D01*
X136577995Y-48123591D01*
X136579888Y-48128162D01*
X136579889Y-48128164D01*
X136638466Y-48269580D01*
X136674884Y-48357502D01*
X136807172Y-48573376D01*
X136971602Y-48765898D01*
X137164124Y-48930328D01*
X137379998Y-49062616D01*
X137384568Y-49064509D01*
X137384572Y-49064511D01*
X137490040Y-49108197D01*
X137613909Y-49159505D01*
X137698532Y-49179821D01*
X137855284Y-49217454D01*
X137855290Y-49217455D01*
X137860097Y-49218609D01*
X138112500Y-49238474D01*
X138364903Y-49218609D01*
X138369710Y-49217455D01*
X138369716Y-49217454D01*
X138526468Y-49179821D01*
X138611091Y-49159505D01*
X138734960Y-49108197D01*
X138840428Y-49064511D01*
X138840432Y-49064509D01*
X138845002Y-49062616D01*
X139060876Y-48930328D01*
X139253398Y-48765898D01*
X139417828Y-48573376D01*
X139550116Y-48357502D01*
X139586535Y-48269580D01*
X139645111Y-48128164D01*
X139645112Y-48128162D01*
X139647005Y-48123591D01*
X139673860Y-48011731D01*
X139704954Y-47882216D01*
X139704955Y-47882210D01*
X139706109Y-47877403D01*
X139725974Y-47625000D01*
X139706109Y-47372597D01*
X139688337Y-47298568D01*
X143471382Y-47298568D01*
X143471963Y-47303588D01*
X143471963Y-47303592D01*
X143484484Y-47411803D01*
X143500208Y-47547699D01*
X143501587Y-47552573D01*
X143501588Y-47552577D01*
X143540526Y-47690181D01*
X143568494Y-47789017D01*
X143570628Y-47793592D01*
X143570630Y-47793599D01*
X143672347Y-48011731D01*
X143674484Y-48016313D01*
X143677326Y-48020494D01*
X143677326Y-48020495D01*
X143812605Y-48219552D01*
X143812608Y-48219556D01*
X143815451Y-48223739D01*
X143818928Y-48227416D01*
X143818929Y-48227417D01*
X143919238Y-48333491D01*
X143987767Y-48405959D01*
X143991793Y-48409037D01*
X143991794Y-48409038D01*
X144182981Y-48555212D01*
X144182985Y-48555215D01*
X144187001Y-48558285D01*
X144191459Y-48560675D01*
X144191460Y-48560676D01*
X144210720Y-48571003D01*
X144408026Y-48676797D01*
X144412807Y-48678443D01*
X144412811Y-48678445D01*
X144562450Y-48729970D01*
X144645156Y-48758448D01*
X144748689Y-48776331D01*
X144888380Y-48800460D01*
X144888386Y-48800461D01*
X144892290Y-48801135D01*
X144896251Y-48801315D01*
X144896252Y-48801315D01*
X144920931Y-48802436D01*
X144920950Y-48802436D01*
X144922350Y-48802500D01*
X145097015Y-48802500D01*
X145099523Y-48802298D01*
X145099528Y-48802298D01*
X145278944Y-48787863D01*
X145278949Y-48787862D01*
X145283985Y-48787457D01*
X145288893Y-48786252D01*
X145288896Y-48786251D01*
X145522625Y-48728841D01*
X145527539Y-48727634D01*
X145532191Y-48725659D01*
X145532195Y-48725658D01*
X145753741Y-48631617D01*
X145753742Y-48631617D01*
X145758396Y-48629641D01*
X145970615Y-48496000D01*
X146158738Y-48330147D01*
X146317924Y-48136351D01*
X146444078Y-47919596D01*
X146453293Y-47895592D01*
X146532143Y-47690181D01*
X146533955Y-47685461D01*
X146546586Y-47625000D01*
X155549026Y-47625000D01*
X155568891Y-47877403D01*
X155570045Y-47882210D01*
X155570046Y-47882216D01*
X155601140Y-48011731D01*
X155627995Y-48123591D01*
X155629888Y-48128162D01*
X155629889Y-48128164D01*
X155688466Y-48269580D01*
X155724884Y-48357502D01*
X155857172Y-48573376D01*
X156021602Y-48765898D01*
X156214124Y-48930328D01*
X156429998Y-49062616D01*
X156434568Y-49064509D01*
X156434572Y-49064511D01*
X156540040Y-49108197D01*
X156663909Y-49159505D01*
X156748532Y-49179821D01*
X156905284Y-49217454D01*
X156905290Y-49217455D01*
X156910097Y-49218609D01*
X157162500Y-49238474D01*
X157414903Y-49218609D01*
X157419710Y-49217455D01*
X157419716Y-49217454D01*
X157576468Y-49179821D01*
X157661091Y-49159505D01*
X157784960Y-49108197D01*
X157890428Y-49064511D01*
X157890432Y-49064509D01*
X157895002Y-49062616D01*
X158110876Y-48930328D01*
X158303398Y-48765898D01*
X158467828Y-48573376D01*
X158600116Y-48357502D01*
X158636535Y-48269580D01*
X158695111Y-48128164D01*
X158695112Y-48128162D01*
X158697005Y-48123591D01*
X158723860Y-48011731D01*
X158754954Y-47882216D01*
X158754955Y-47882210D01*
X158756109Y-47877403D01*
X158775974Y-47625000D01*
X158756109Y-47372597D01*
X158738337Y-47298568D01*
X158711416Y-47186434D01*
X158697005Y-47126409D01*
X158669181Y-47059235D01*
X158602011Y-46897072D01*
X158602009Y-46897068D01*
X158600116Y-46892498D01*
X158467828Y-46676624D01*
X158303398Y-46484102D01*
X158283966Y-46467505D01*
X158143738Y-46347739D01*
X158110876Y-46319672D01*
X157895002Y-46187384D01*
X157890432Y-46185491D01*
X157890428Y-46185489D01*
X157665664Y-46092389D01*
X157665662Y-46092388D01*
X157661091Y-46090495D01*
X157576468Y-46070179D01*
X157419716Y-46032546D01*
X157419710Y-46032545D01*
X157414903Y-46031391D01*
X157162500Y-46011526D01*
X156910097Y-46031391D01*
X156905290Y-46032545D01*
X156905284Y-46032546D01*
X156748532Y-46070179D01*
X156663909Y-46090495D01*
X156659338Y-46092388D01*
X156659336Y-46092389D01*
X156434572Y-46185489D01*
X156434568Y-46185491D01*
X156429998Y-46187384D01*
X156214124Y-46319672D01*
X156181262Y-46347739D01*
X156041035Y-46467505D01*
X156021602Y-46484102D01*
X155857172Y-46676624D01*
X155724884Y-46892498D01*
X155722991Y-46897068D01*
X155722989Y-46897072D01*
X155655819Y-47059235D01*
X155627995Y-47126409D01*
X155613584Y-47186434D01*
X155586664Y-47298568D01*
X155568891Y-47372597D01*
X155549026Y-47625000D01*
X146546586Y-47625000D01*
X146551130Y-47603251D01*
X146584206Y-47444921D01*
X146585241Y-47439967D01*
X146586139Y-47420211D01*
X146591662Y-47298568D01*
X146596618Y-47189432D01*
X146594826Y-47173938D01*
X146577675Y-47025716D01*
X146567792Y-46940301D01*
X146555560Y-46897072D01*
X146500884Y-46703852D01*
X146500883Y-46703850D01*
X146499506Y-46698983D01*
X146497372Y-46694408D01*
X146497370Y-46694401D01*
X146395653Y-46476269D01*
X146395651Y-46476265D01*
X146393516Y-46471687D01*
X146325607Y-46371762D01*
X146255395Y-46268448D01*
X146255392Y-46268444D01*
X146252549Y-46264261D01*
X146151925Y-46157853D01*
X146083713Y-46085721D01*
X146080233Y-46082041D01*
X146076206Y-46078962D01*
X145885019Y-45932788D01*
X145885015Y-45932785D01*
X145880999Y-45929715D01*
X145659974Y-45811203D01*
X145655193Y-45809557D01*
X145655189Y-45809555D01*
X145427633Y-45731201D01*
X145422844Y-45729552D01*
X145319311Y-45711669D01*
X145179620Y-45687540D01*
X145179614Y-45687539D01*
X145175710Y-45686865D01*
X145171749Y-45686685D01*
X145171748Y-45686685D01*
X145147069Y-45685564D01*
X145147050Y-45685564D01*
X145145650Y-45685500D01*
X144970985Y-45685500D01*
X144968477Y-45685702D01*
X144968472Y-45685702D01*
X144789056Y-45700137D01*
X144789051Y-45700138D01*
X144784015Y-45700543D01*
X144779107Y-45701748D01*
X144779104Y-45701749D01*
X144547326Y-45758680D01*
X144540461Y-45760366D01*
X144535809Y-45762341D01*
X144535805Y-45762342D01*
X144415061Y-45813595D01*
X144309604Y-45858359D01*
X144097385Y-45992000D01*
X143909262Y-46157853D01*
X143750076Y-46351649D01*
X143623922Y-46568404D01*
X143534045Y-46802539D01*
X143533012Y-46807485D01*
X143533010Y-46807491D01*
X143508880Y-46922998D01*
X143482759Y-47048033D01*
X143482530Y-47053082D01*
X143482529Y-47053088D01*
X143479378Y-47122477D01*
X143471382Y-47298568D01*
X139688337Y-47298568D01*
X139661416Y-47186434D01*
X139647005Y-47126409D01*
X139619181Y-47059235D01*
X139552011Y-46897072D01*
X139552009Y-46897068D01*
X139550116Y-46892498D01*
X139417828Y-46676624D01*
X139253398Y-46484102D01*
X139233966Y-46467505D01*
X139093738Y-46347739D01*
X139060876Y-46319672D01*
X138845002Y-46187384D01*
X138840432Y-46185491D01*
X138840428Y-46185489D01*
X138615664Y-46092389D01*
X138615662Y-46092388D01*
X138611091Y-46090495D01*
X138526468Y-46070179D01*
X138369716Y-46032546D01*
X138369710Y-46032545D01*
X138364903Y-46031391D01*
X138112500Y-46011526D01*
X137860097Y-46031391D01*
X137855290Y-46032545D01*
X137855284Y-46032546D01*
X137698532Y-46070179D01*
X137613909Y-46090495D01*
X137609338Y-46092388D01*
X137609336Y-46092389D01*
X137384572Y-46185489D01*
X137384568Y-46185491D01*
X137379998Y-46187384D01*
X137164124Y-46319672D01*
X137131262Y-46347739D01*
X136991035Y-46467505D01*
X136971602Y-46484102D01*
X136807172Y-46676624D01*
X136674884Y-46892498D01*
X136672991Y-46897068D01*
X136672989Y-46897072D01*
X136605819Y-47059235D01*
X136577995Y-47126409D01*
X136563584Y-47186434D01*
X136536664Y-47298568D01*
X136518891Y-47372597D01*
X136499026Y-47625000D01*
X127496586Y-47625000D01*
X127501130Y-47603251D01*
X127534206Y-47444921D01*
X127535241Y-47439967D01*
X127536139Y-47420211D01*
X127541662Y-47298568D01*
X127546618Y-47189432D01*
X127544826Y-47173938D01*
X127527675Y-47025716D01*
X127517792Y-46940301D01*
X127505560Y-46897072D01*
X127450884Y-46703852D01*
X127450883Y-46703850D01*
X127449506Y-46698983D01*
X127447372Y-46694408D01*
X127447370Y-46694401D01*
X127345653Y-46476269D01*
X127345651Y-46476265D01*
X127343516Y-46471687D01*
X127275607Y-46371762D01*
X127205395Y-46268448D01*
X127205392Y-46268444D01*
X127202549Y-46264261D01*
X127101925Y-46157853D01*
X127033713Y-46085721D01*
X127030233Y-46082041D01*
X127026206Y-46078962D01*
X126835019Y-45932788D01*
X126835015Y-45932785D01*
X126830999Y-45929715D01*
X126609974Y-45811203D01*
X126605193Y-45809557D01*
X126605189Y-45809555D01*
X126377633Y-45731201D01*
X126372844Y-45729552D01*
X126269311Y-45711669D01*
X126129620Y-45687540D01*
X126129614Y-45687539D01*
X126125710Y-45686865D01*
X126121749Y-45686685D01*
X126121748Y-45686685D01*
X126097069Y-45685564D01*
X126097050Y-45685564D01*
X126095650Y-45685500D01*
X125920985Y-45685500D01*
X125918477Y-45685702D01*
X125918472Y-45685702D01*
X125739056Y-45700137D01*
X125739051Y-45700138D01*
X125734015Y-45700543D01*
X125729107Y-45701748D01*
X125729104Y-45701749D01*
X125497326Y-45758680D01*
X125490461Y-45760366D01*
X125485809Y-45762341D01*
X125485805Y-45762342D01*
X125365061Y-45813595D01*
X125259604Y-45858359D01*
X125047385Y-45992000D01*
X124859262Y-46157853D01*
X124700076Y-46351649D01*
X124573922Y-46568404D01*
X124484045Y-46802539D01*
X124483012Y-46807485D01*
X124483010Y-46807491D01*
X124458880Y-46922998D01*
X124432759Y-47048033D01*
X124432530Y-47053082D01*
X124432529Y-47053088D01*
X124429378Y-47122477D01*
X124421382Y-47298568D01*
X120638337Y-47298568D01*
X120611416Y-47186434D01*
X120597005Y-47126409D01*
X120569181Y-47059235D01*
X120502011Y-46897072D01*
X120502009Y-46897068D01*
X120500116Y-46892498D01*
X120367828Y-46676624D01*
X120203398Y-46484102D01*
X120183966Y-46467505D01*
X120043738Y-46347739D01*
X120010876Y-46319672D01*
X119795002Y-46187384D01*
X119790432Y-46185491D01*
X119790428Y-46185489D01*
X119565664Y-46092389D01*
X119565662Y-46092388D01*
X119561091Y-46090495D01*
X119476468Y-46070179D01*
X119319716Y-46032546D01*
X119319710Y-46032545D01*
X119314903Y-46031391D01*
X119062500Y-46011526D01*
X118810097Y-46031391D01*
X118805290Y-46032545D01*
X118805284Y-46032546D01*
X118648532Y-46070179D01*
X118563909Y-46090495D01*
X118559338Y-46092388D01*
X118559336Y-46092389D01*
X118334572Y-46185489D01*
X118334568Y-46185491D01*
X118329998Y-46187384D01*
X118114124Y-46319672D01*
X118081262Y-46347739D01*
X117941035Y-46467505D01*
X117921602Y-46484102D01*
X117757172Y-46676624D01*
X117624884Y-46892498D01*
X117622991Y-46897068D01*
X117622989Y-46897072D01*
X117555819Y-47059235D01*
X117527995Y-47126409D01*
X117513584Y-47186434D01*
X117486664Y-47298568D01*
X117468891Y-47372597D01*
X117449026Y-47625000D01*
X105283500Y-47625000D01*
X105283500Y-42862500D01*
X111149002Y-42862500D01*
X111168957Y-43090587D01*
X111228216Y-43311743D01*
X111230539Y-43316724D01*
X111230539Y-43316725D01*
X111322651Y-43514262D01*
X111322654Y-43514267D01*
X111324977Y-43519249D01*
X111456302Y-43706800D01*
X111618200Y-43868698D01*
X111622708Y-43871855D01*
X111622711Y-43871857D01*
X111664042Y-43900797D01*
X111805751Y-44000023D01*
X111810733Y-44002346D01*
X111810738Y-44002349D01*
X111999386Y-44090316D01*
X112013257Y-44096784D01*
X112018565Y-44098206D01*
X112018567Y-44098207D01*
X112229098Y-44154619D01*
X112229100Y-44154619D01*
X112234413Y-44156043D01*
X112462500Y-44175998D01*
X112690587Y-44156043D01*
X112695900Y-44154619D01*
X112695902Y-44154619D01*
X112906433Y-44098207D01*
X112906435Y-44098206D01*
X112911743Y-44096784D01*
X112925614Y-44090316D01*
X113114262Y-44002349D01*
X113114267Y-44002346D01*
X113119249Y-44000023D01*
X113260958Y-43900797D01*
X113302289Y-43871857D01*
X113302292Y-43871855D01*
X113306800Y-43868698D01*
X113464864Y-43710634D01*
X118954000Y-43710634D01*
X118960755Y-43772816D01*
X119011885Y-43909205D01*
X119099239Y-44025761D01*
X119215795Y-44113115D01*
X119352184Y-44164245D01*
X119414366Y-44171000D01*
X121110634Y-44171000D01*
X121172816Y-44164245D01*
X121309205Y-44113115D01*
X121425761Y-44025761D01*
X121513115Y-43909205D01*
X121564245Y-43772816D01*
X121571000Y-43710634D01*
X121571000Y-42862500D01*
X130517752Y-42862500D01*
X130537707Y-43090587D01*
X130596966Y-43311743D01*
X130599289Y-43316724D01*
X130599289Y-43316725D01*
X130691401Y-43514262D01*
X130691404Y-43514267D01*
X130693727Y-43519249D01*
X130825052Y-43706800D01*
X130986950Y-43868698D01*
X130991458Y-43871855D01*
X130991461Y-43871857D01*
X131032792Y-43900797D01*
X131174501Y-44000023D01*
X131179483Y-44002346D01*
X131179488Y-44002349D01*
X131368136Y-44090316D01*
X131382007Y-44096784D01*
X131387315Y-44098206D01*
X131387317Y-44098207D01*
X131597848Y-44154619D01*
X131597850Y-44154619D01*
X131603163Y-44156043D01*
X131831250Y-44175998D01*
X132059337Y-44156043D01*
X132064650Y-44154619D01*
X132064652Y-44154619D01*
X132275183Y-44098207D01*
X132275185Y-44098206D01*
X132280493Y-44096784D01*
X132294364Y-44090316D01*
X132483012Y-44002349D01*
X132483017Y-44002346D01*
X132487999Y-44000023D01*
X132629708Y-43900797D01*
X132671039Y-43871857D01*
X132671042Y-43871855D01*
X132675550Y-43868698D01*
X132833614Y-43710634D01*
X138322750Y-43710634D01*
X138329505Y-43772816D01*
X138380635Y-43909205D01*
X138467989Y-44025761D01*
X138584545Y-44113115D01*
X138720934Y-44164245D01*
X138783116Y-44171000D01*
X140479384Y-44171000D01*
X140541566Y-44164245D01*
X140677955Y-44113115D01*
X140794511Y-44025761D01*
X140881865Y-43909205D01*
X140932995Y-43772816D01*
X140939750Y-43710634D01*
X140939750Y-42862500D01*
X148761502Y-42862500D01*
X148781457Y-43090587D01*
X148840716Y-43311743D01*
X148843039Y-43316724D01*
X148843039Y-43316725D01*
X148935151Y-43514262D01*
X148935154Y-43514267D01*
X148937477Y-43519249D01*
X149068802Y-43706800D01*
X149230700Y-43868698D01*
X149235208Y-43871855D01*
X149235211Y-43871857D01*
X149276542Y-43900797D01*
X149418251Y-44000023D01*
X149423233Y-44002346D01*
X149423238Y-44002349D01*
X149611886Y-44090316D01*
X149625757Y-44096784D01*
X149631065Y-44098206D01*
X149631067Y-44098207D01*
X149841598Y-44154619D01*
X149841600Y-44154619D01*
X149846913Y-44156043D01*
X150075000Y-44175998D01*
X150303087Y-44156043D01*
X150308400Y-44154619D01*
X150308402Y-44154619D01*
X150518933Y-44098207D01*
X150518935Y-44098206D01*
X150524243Y-44096784D01*
X150538114Y-44090316D01*
X150726762Y-44002349D01*
X150726767Y-44002346D01*
X150731749Y-44000023D01*
X150873458Y-43900797D01*
X150914789Y-43871857D01*
X150914792Y-43871855D01*
X150919300Y-43868698D01*
X151077364Y-43710634D01*
X156566500Y-43710634D01*
X156573255Y-43772816D01*
X156624385Y-43909205D01*
X156711739Y-44025761D01*
X156828295Y-44113115D01*
X156964684Y-44164245D01*
X157026866Y-44171000D01*
X158723134Y-44171000D01*
X158785316Y-44164245D01*
X158921705Y-44113115D01*
X159038261Y-44025761D01*
X159125615Y-43909205D01*
X159176745Y-43772816D01*
X159183500Y-43710634D01*
X159183500Y-42014366D01*
X159176745Y-41952184D01*
X159125615Y-41815795D01*
X159038261Y-41699239D01*
X158921705Y-41611885D01*
X158785316Y-41560755D01*
X158723134Y-41554000D01*
X157026866Y-41554000D01*
X156964684Y-41560755D01*
X156828295Y-41611885D01*
X156711739Y-41699239D01*
X156624385Y-41815795D01*
X156573255Y-41952184D01*
X156566500Y-42014366D01*
X156566500Y-43710634D01*
X151077364Y-43710634D01*
X151081198Y-43706800D01*
X151212523Y-43519249D01*
X151214846Y-43514267D01*
X151214849Y-43514262D01*
X151306961Y-43316725D01*
X151306961Y-43316724D01*
X151309284Y-43311743D01*
X151368543Y-43090587D01*
X151388498Y-42862500D01*
X151368543Y-42634413D01*
X151309284Y-42413257D01*
X151306961Y-42408275D01*
X151214849Y-42210738D01*
X151214846Y-42210733D01*
X151212523Y-42205751D01*
X151098197Y-42042477D01*
X151084357Y-42022711D01*
X151084355Y-42022708D01*
X151081198Y-42018200D01*
X150919300Y-41856302D01*
X150914792Y-41853145D01*
X150914789Y-41853143D01*
X150836611Y-41798402D01*
X150731749Y-41724977D01*
X150726767Y-41722654D01*
X150726762Y-41722651D01*
X150529225Y-41630539D01*
X150529224Y-41630539D01*
X150524243Y-41628216D01*
X150518935Y-41626794D01*
X150518933Y-41626793D01*
X150308402Y-41570381D01*
X150308400Y-41570381D01*
X150303087Y-41568957D01*
X150075000Y-41549002D01*
X149846913Y-41568957D01*
X149841600Y-41570381D01*
X149841598Y-41570381D01*
X149631067Y-41626793D01*
X149631065Y-41626794D01*
X149625757Y-41628216D01*
X149620776Y-41630539D01*
X149620775Y-41630539D01*
X149423238Y-41722651D01*
X149423233Y-41722654D01*
X149418251Y-41724977D01*
X149313389Y-41798402D01*
X149235211Y-41853143D01*
X149235208Y-41853145D01*
X149230700Y-41856302D01*
X149068802Y-42018200D01*
X149065645Y-42022708D01*
X149065643Y-42022711D01*
X149051803Y-42042477D01*
X148937477Y-42205751D01*
X148935154Y-42210733D01*
X148935151Y-42210738D01*
X148843039Y-42408275D01*
X148840716Y-42413257D01*
X148781457Y-42634413D01*
X148761502Y-42862500D01*
X140939750Y-42862500D01*
X140939750Y-42014366D01*
X140932995Y-41952184D01*
X140881865Y-41815795D01*
X140794511Y-41699239D01*
X140677955Y-41611885D01*
X140541566Y-41560755D01*
X140479384Y-41554000D01*
X138783116Y-41554000D01*
X138720934Y-41560755D01*
X138584545Y-41611885D01*
X138467989Y-41699239D01*
X138380635Y-41815795D01*
X138329505Y-41952184D01*
X138322750Y-42014366D01*
X138322750Y-43710634D01*
X132833614Y-43710634D01*
X132837448Y-43706800D01*
X132968773Y-43519249D01*
X132971096Y-43514267D01*
X132971099Y-43514262D01*
X133063211Y-43316725D01*
X133063211Y-43316724D01*
X133065534Y-43311743D01*
X133124793Y-43090587D01*
X133144748Y-42862500D01*
X133124793Y-42634413D01*
X133065534Y-42413257D01*
X133063211Y-42408275D01*
X132971099Y-42210738D01*
X132971096Y-42210733D01*
X132968773Y-42205751D01*
X132854447Y-42042477D01*
X132840607Y-42022711D01*
X132840605Y-42022708D01*
X132837448Y-42018200D01*
X132675550Y-41856302D01*
X132671042Y-41853145D01*
X132671039Y-41853143D01*
X132592861Y-41798402D01*
X132487999Y-41724977D01*
X132483017Y-41722654D01*
X132483012Y-41722651D01*
X132285475Y-41630539D01*
X132285474Y-41630539D01*
X132280493Y-41628216D01*
X132275185Y-41626794D01*
X132275183Y-41626793D01*
X132064652Y-41570381D01*
X132064650Y-41570381D01*
X132059337Y-41568957D01*
X131831250Y-41549002D01*
X131603163Y-41568957D01*
X131597850Y-41570381D01*
X131597848Y-41570381D01*
X131387317Y-41626793D01*
X131387315Y-41626794D01*
X131382007Y-41628216D01*
X131377026Y-41630539D01*
X131377025Y-41630539D01*
X131179488Y-41722651D01*
X131179483Y-41722654D01*
X131174501Y-41724977D01*
X131069639Y-41798402D01*
X130991461Y-41853143D01*
X130991458Y-41853145D01*
X130986950Y-41856302D01*
X130825052Y-42018200D01*
X130821895Y-42022708D01*
X130821893Y-42022711D01*
X130808053Y-42042477D01*
X130693727Y-42205751D01*
X130691404Y-42210733D01*
X130691401Y-42210738D01*
X130599289Y-42408275D01*
X130596966Y-42413257D01*
X130537707Y-42634413D01*
X130517752Y-42862500D01*
X121571000Y-42862500D01*
X121571000Y-42014366D01*
X121564245Y-41952184D01*
X121513115Y-41815795D01*
X121425761Y-41699239D01*
X121309205Y-41611885D01*
X121172816Y-41560755D01*
X121110634Y-41554000D01*
X119414366Y-41554000D01*
X119352184Y-41560755D01*
X119215795Y-41611885D01*
X119099239Y-41699239D01*
X119011885Y-41815795D01*
X118960755Y-41952184D01*
X118954000Y-42014366D01*
X118954000Y-43710634D01*
X113464864Y-43710634D01*
X113468698Y-43706800D01*
X113600023Y-43519249D01*
X113602346Y-43514267D01*
X113602349Y-43514262D01*
X113694461Y-43316725D01*
X113694461Y-43316724D01*
X113696784Y-43311743D01*
X113756043Y-43090587D01*
X113775998Y-42862500D01*
X113756043Y-42634413D01*
X113696784Y-42413257D01*
X113694461Y-42408275D01*
X113602349Y-42210738D01*
X113602346Y-42210733D01*
X113600023Y-42205751D01*
X113485697Y-42042477D01*
X113471857Y-42022711D01*
X113471855Y-42022708D01*
X113468698Y-42018200D01*
X113306800Y-41856302D01*
X113302292Y-41853145D01*
X113302289Y-41853143D01*
X113224111Y-41798402D01*
X113119249Y-41724977D01*
X113114267Y-41722654D01*
X113114262Y-41722651D01*
X112916725Y-41630539D01*
X112916724Y-41630539D01*
X112911743Y-41628216D01*
X112906435Y-41626794D01*
X112906433Y-41626793D01*
X112695902Y-41570381D01*
X112695900Y-41570381D01*
X112690587Y-41568957D01*
X112462500Y-41549002D01*
X112234413Y-41568957D01*
X112229100Y-41570381D01*
X112229098Y-41570381D01*
X112018567Y-41626793D01*
X112018565Y-41626794D01*
X112013257Y-41628216D01*
X112008276Y-41630539D01*
X112008275Y-41630539D01*
X111810738Y-41722651D01*
X111810733Y-41722654D01*
X111805751Y-41724977D01*
X111700889Y-41798402D01*
X111622711Y-41853143D01*
X111622708Y-41853145D01*
X111618200Y-41856302D01*
X111456302Y-42018200D01*
X111453145Y-42022708D01*
X111453143Y-42022711D01*
X111439303Y-42042477D01*
X111324977Y-42205751D01*
X111322654Y-42210733D01*
X111322651Y-42210738D01*
X111230539Y-42408275D01*
X111228216Y-42413257D01*
X111168957Y-42634413D01*
X111149002Y-42862500D01*
X105283500Y-42862500D01*
X105283500Y-41115750D01*
X105303502Y-41047629D01*
X105357158Y-41001136D01*
X105409500Y-40989750D01*
X185103000Y-40989750D01*
X185171121Y-41009752D01*
G37*
%TD.AperFunction*%
%TD*%
M02*
