%TF.GenerationSoftware,KiCad,Pcbnew,(6.0.4)*%
%TF.CreationDate,2022-04-14T11:49:59+05:30*%
%TF.ProjectId,6keymacro,366b6579-6d61-4637-926f-2e6b69636164,rev?*%
%TF.SameCoordinates,Original*%
%TF.FileFunction,Soldermask,Bot*%
%TF.FilePolarity,Negative*%
%FSLAX46Y46*%
G04 Gerber Fmt 4.6, Leading zero omitted, Abs format (unit mm)*
G04 Created by KiCad (PCBNEW (6.0.4)) date 2022-04-14 11:49:59*
%MOMM*%
%LPD*%
G01*
G04 APERTURE LIST*
%ADD10C,2.100000*%
%ADD11C,4.000000*%
%ADD12C,2.200000*%
%ADD13R,1.200000X1.200000*%
%ADD14R,1.600000X1.600000*%
%ADD15C,1.600000*%
G04 APERTURE END LIST*
D10*
%TO.C,REF\u002A\u002A*%
X164084000Y-77216000D03*
%TD*%
%TO.C,REF\u002A\u002A*%
X125984000Y-77216000D03*
%TD*%
%TO.C,REF\u002A\u002A*%
X145034000Y-77216000D03*
%TD*%
%TO.C,REF\u002A\u002A*%
X145034000Y-47244000D03*
%TD*%
%TO.C,REF\u002A\u002A*%
X125984000Y-47244000D03*
%TD*%
D11*
%TO.C,K5*%
X154622500Y-52705000D03*
D12*
X157162500Y-47625000D03*
X150812500Y-50165000D03*
%TD*%
D11*
%TO.C,K4*%
X135572500Y-71755000D03*
D12*
X138112500Y-66675000D03*
X131762500Y-69215000D03*
%TD*%
D11*
%TO.C,K1*%
X116522500Y-52705000D03*
D12*
X119062500Y-47625000D03*
X112712500Y-50165000D03*
%TD*%
D11*
%TO.C,K2*%
X116522500Y-71755000D03*
D12*
X119062500Y-66675000D03*
X112712500Y-69215000D03*
%TD*%
D11*
%TO.C,K3*%
X135572500Y-52705000D03*
D12*
X138112500Y-47625000D03*
X131762500Y-50165000D03*
%TD*%
D11*
%TO.C,K6*%
X154622500Y-71755000D03*
D12*
X157162500Y-66675000D03*
X150812500Y-69215000D03*
%TD*%
D13*
%TO.C,D2*%
X118256250Y-61912500D03*
D14*
X120581250Y-61912500D03*
D13*
X115106250Y-61912500D03*
D15*
X112781250Y-61912500D03*
%TD*%
D14*
%TO.C,D3*%
X139631250Y-42862500D03*
D13*
X137306250Y-42862500D03*
X134156250Y-42862500D03*
D15*
X131831250Y-42862500D03*
%TD*%
D14*
%TO.C,D5*%
X157875000Y-42862500D03*
D13*
X155550000Y-42862500D03*
D15*
X150075000Y-42862500D03*
D13*
X152400000Y-42862500D03*
%TD*%
D14*
%TO.C,D4*%
X139631250Y-61912500D03*
D13*
X137306250Y-61912500D03*
D15*
X131831250Y-61912500D03*
D13*
X134156250Y-61912500D03*
%TD*%
%TO.C,D6*%
X155550000Y-61912500D03*
D14*
X157875000Y-61912500D03*
D15*
X150075000Y-61912500D03*
D13*
X152400000Y-61912500D03*
%TD*%
%TO.C,D1*%
X117937500Y-42862500D03*
D14*
X120262500Y-42862500D03*
D13*
X114787500Y-42862500D03*
D15*
X112462500Y-42862500D03*
%TD*%
D14*
%TO.C,U1*%
X181451250Y-43180000D03*
D15*
X181451250Y-45720000D03*
X181451250Y-48260000D03*
X181451250Y-50800000D03*
X181451250Y-53340000D03*
X181451250Y-55880000D03*
X181451250Y-58420000D03*
X181451250Y-60960000D03*
X181451250Y-63500000D03*
X181451250Y-66040000D03*
X181451250Y-68580000D03*
X181451250Y-71120000D03*
X166211250Y-71120000D03*
X166211250Y-68580000D03*
X166211250Y-66040000D03*
X166211250Y-63500000D03*
X166211250Y-60960000D03*
X166211250Y-58420000D03*
X166211250Y-55880000D03*
X166211250Y-53340000D03*
X166211250Y-50800000D03*
X166211250Y-48260000D03*
X166211250Y-45720000D03*
X166211250Y-43180000D03*
%TD*%
M02*
