M48
; DRILL file {KiCad (6.0.4)} date Sat Apr 16 12:26:08 2022
; FORMAT={-:-/ absolute / inch / decimal}
; #@! TF.CreationDate,2022-04-16T12:26:08+05:30
; #@! TF.GenerationSoftware,Kicad,Pcbnew,(6.0.4)
; #@! TF.FileFunction,Plated,1,2,PTH
FMAT,2
INCH
; #@! TA.AperFunction,Plated,PTH,ComponentDrill
T1C0.0276
; #@! TA.AperFunction,Plated,PTH,ComponentDrill
T2C0.0433
%
G90
G05
T1
X7.9902Y-1.5
X8.0027Y-0.75
X8.2972Y-1.5
X8.3098Y-0.75
X8.7527Y-0.75
X8.7527Y-1.5
X9.0598Y-0.75
X9.0598Y-1.5
X9.5027Y-0.75
X9.5027Y-1.5
X9.8098Y-0.75
X9.8098Y-1.5
T2
X10.2Y-0.7625
X10.2Y-0.8625
X10.2Y-0.9625
X10.2Y-1.0625
X10.2Y-1.1625
X10.2Y-1.2625
X10.2Y-1.3625
X10.2Y-1.4625
X10.2Y-1.5625
X10.2Y-1.6625
X10.2Y-1.7625
X10.2Y-1.8625
X10.8Y-0.7625
X10.8Y-0.8625
X10.8Y-0.9625
X10.8Y-1.0625
X10.8Y-1.1625
X10.8Y-1.2625
X10.8Y-1.3625
X10.8Y-1.4625
X10.8Y-1.5625
X10.8Y-1.6625
X10.8Y-1.7625
X10.8Y-1.8625
T0
M30
