%TF.GenerationSoftware,KiCad,Pcbnew,(6.0.4)*%
%TF.CreationDate,2022-04-16T12:25:48+05:30*%
%TF.ProjectId,another one,616e6f74-6865-4722-906f-6e652e6b6963,rev?*%
%TF.SameCoordinates,Original*%
%TF.FileFunction,Legend,Top*%
%TF.FilePolarity,Positive*%
%FSLAX46Y46*%
G04 Gerber Fmt 4.6, Leading zero omitted, Abs format (unit mm)*
G04 Created by KiCad (PCBNEW (6.0.4)) date 2022-04-16 12:25:48*
%MOMM*%
%LPD*%
G01*
G04 APERTURE LIST*
%ADD10C,0.150000*%
%ADD11C,0.120000*%
G04 APERTURE END LIST*
D10*
%TO.C,K6*%
X244530654Y-40077380D02*
X244530654Y-39077380D01*
X245102083Y-40077380D02*
X244673511Y-39505952D01*
X245102083Y-39077380D02*
X244530654Y-39648809D01*
X245959226Y-39077380D02*
X245768750Y-39077380D01*
X245673511Y-39125000D01*
X245625892Y-39172619D01*
X245530654Y-39315476D01*
X245483035Y-39505952D01*
X245483035Y-39886904D01*
X245530654Y-39982142D01*
X245578273Y-40029761D01*
X245673511Y-40077380D01*
X245863988Y-40077380D01*
X245959226Y-40029761D01*
X246006845Y-39982142D01*
X246054464Y-39886904D01*
X246054464Y-39648809D01*
X246006845Y-39553571D01*
X245959226Y-39505952D01*
X245863988Y-39458333D01*
X245673511Y-39458333D01*
X245578273Y-39505952D01*
X245530654Y-39553571D01*
X245483035Y-39648809D01*
%TO.C,K5*%
X244530654Y-21027380D02*
X244530654Y-20027380D01*
X245102083Y-21027380D02*
X244673511Y-20455952D01*
X245102083Y-20027380D02*
X244530654Y-20598809D01*
X246006845Y-20027380D02*
X245530654Y-20027380D01*
X245483035Y-20503571D01*
X245530654Y-20455952D01*
X245625892Y-20408333D01*
X245863988Y-20408333D01*
X245959226Y-20455952D01*
X246006845Y-20503571D01*
X246054464Y-20598809D01*
X246054464Y-20836904D01*
X246006845Y-20932142D01*
X245959226Y-20979761D01*
X245863988Y-21027380D01*
X245625892Y-21027380D01*
X245530654Y-20979761D01*
X245483035Y-20932142D01*
%TO.C,K4*%
X225480654Y-40077380D02*
X225480654Y-39077380D01*
X226052083Y-40077380D02*
X225623511Y-39505952D01*
X226052083Y-39077380D02*
X225480654Y-39648809D01*
X226909226Y-39410714D02*
X226909226Y-40077380D01*
X226671130Y-39029761D02*
X226433035Y-39744047D01*
X227052083Y-39744047D01*
%TO.C,K3*%
X225480654Y-21027380D02*
X225480654Y-20027380D01*
X226052083Y-21027380D02*
X225623511Y-20455952D01*
X226052083Y-20027380D02*
X225480654Y-20598809D01*
X226385416Y-20027380D02*
X227004464Y-20027380D01*
X226671130Y-20408333D01*
X226813988Y-20408333D01*
X226909226Y-20455952D01*
X226956845Y-20503571D01*
X227004464Y-20598809D01*
X227004464Y-20836904D01*
X226956845Y-20932142D01*
X226909226Y-20979761D01*
X226813988Y-21027380D01*
X226528273Y-21027380D01*
X226433035Y-20979761D01*
X226385416Y-20932142D01*
%TO.C,K2*%
X206430654Y-40077380D02*
X206430654Y-39077380D01*
X207002083Y-40077380D02*
X206573511Y-39505952D01*
X207002083Y-39077380D02*
X206430654Y-39648809D01*
X207383035Y-39172619D02*
X207430654Y-39125000D01*
X207525892Y-39077380D01*
X207763988Y-39077380D01*
X207859226Y-39125000D01*
X207906845Y-39172619D01*
X207954464Y-39267857D01*
X207954464Y-39363095D01*
X207906845Y-39505952D01*
X207335416Y-40077380D01*
X207954464Y-40077380D01*
%TO.C,K1*%
X206430654Y-21027380D02*
X206430654Y-20027380D01*
X207002083Y-21027380D02*
X206573511Y-20455952D01*
X207002083Y-20027380D02*
X206430654Y-20598809D01*
X207954464Y-21027380D02*
X207383035Y-21027380D01*
X207668750Y-21027380D02*
X207668750Y-20027380D01*
X207573511Y-20170238D01*
X207478273Y-20265476D01*
X207383035Y-20313095D01*
%TO.C,U1*%
X257810000Y-18097500D02*
X257810000Y-48577500D01*
X262890000Y-18097500D02*
X257810000Y-18097500D01*
X262890000Y-15557500D02*
X262890000Y-18097500D01*
X270510000Y-15557500D02*
X262890000Y-15557500D01*
X270510000Y-18097500D02*
X270510000Y-15557500D01*
X275590000Y-18097500D02*
X270510000Y-18097500D01*
X275590000Y-48577500D02*
X275590000Y-18097500D01*
X257810000Y-48577500D02*
X275590000Y-48577500D01*
D11*
%TO.C,K6*%
X252368750Y-40525000D02*
X238168750Y-40525000D01*
X252368750Y-54725000D02*
X252368750Y-40525000D01*
X238168750Y-54725000D02*
X252368750Y-54725000D01*
X238168750Y-40525000D02*
X238168750Y-54725000D01*
%TO.C,K5*%
X252368750Y-21475000D02*
X238168750Y-21475000D01*
X252368750Y-35675000D02*
X252368750Y-21475000D01*
X238168750Y-35675000D02*
X252368750Y-35675000D01*
X238168750Y-21475000D02*
X238168750Y-35675000D01*
%TO.C,K4*%
X233318750Y-40525000D02*
X219118750Y-40525000D01*
X233318750Y-54725000D02*
X233318750Y-40525000D01*
X219118750Y-54725000D02*
X233318750Y-54725000D01*
X219118750Y-40525000D02*
X219118750Y-54725000D01*
%TO.C,K3*%
X233318750Y-21475000D02*
X219118750Y-21475000D01*
X233318750Y-35675000D02*
X233318750Y-21475000D01*
X219118750Y-35675000D02*
X233318750Y-35675000D01*
X219118750Y-21475000D02*
X219118750Y-35675000D01*
%TO.C,K2*%
X214268750Y-40525000D02*
X200068750Y-40525000D01*
X214268750Y-54725000D02*
X214268750Y-40525000D01*
X200068750Y-54725000D02*
X214268750Y-54725000D01*
X200068750Y-40525000D02*
X200068750Y-54725000D01*
%TO.C,K1*%
X214268750Y-21475000D02*
X200068750Y-21475000D01*
X214268750Y-35675000D02*
X214268750Y-21475000D01*
X200068750Y-35675000D02*
X214268750Y-35675000D01*
X200068750Y-21475000D02*
X200068750Y-35675000D01*
%TD*%
M02*
