%TF.GenerationSoftware,KiCad,Pcbnew,(6.0.4)*%
%TF.CreationDate,2022-04-16T12:25:48+05:30*%
%TF.ProjectId,another one,616e6f74-6865-4722-906f-6e652e6b6963,rev?*%
%TF.SameCoordinates,Original*%
%TF.FileFunction,Copper,L1,Top*%
%TF.FilePolarity,Positive*%
%FSLAX46Y46*%
G04 Gerber Fmt 4.6, Leading zero omitted, Abs format (unit mm)*
G04 Created by KiCad (PCBNEW (6.0.4)) date 2022-04-16 12:25:48*
%MOMM*%
%LPD*%
G01*
G04 APERTURE LIST*
%TA.AperFunction,ComponentPad*%
%ADD10R,1.600000X1.600000*%
%TD*%
%TA.AperFunction,ComponentPad*%
%ADD11C,1.600000*%
%TD*%
%TA.AperFunction,Conductor*%
%ADD12C,0.250000*%
%TD*%
G04 APERTURE END LIST*
D10*
%TO.P,D6,1,K*%
%TO.N,row1*%
X249168750Y-38100000D03*
D11*
%TO.P,D6,2,A*%
%TO.N,Net-(D6-Pad2)*%
X241368750Y-38100000D03*
%TD*%
D10*
%TO.P,D5,1,K*%
%TO.N,row0*%
X249168750Y-19050000D03*
D11*
%TO.P,D5,2,A*%
%TO.N,Net-(D5-Pad2)*%
X241368750Y-19050000D03*
%TD*%
D10*
%TO.P,D4,1,K*%
%TO.N,row1*%
X230118750Y-38100000D03*
D11*
%TO.P,D4,2,A*%
%TO.N,Net-(D4-Pad2)*%
X222318750Y-38100000D03*
%TD*%
D10*
%TO.P,D3,1,K*%
%TO.N,row0*%
X230118750Y-19050000D03*
D11*
%TO.P,D3,2,A*%
%TO.N,Net-(D3-Pad2)*%
X222318750Y-19050000D03*
%TD*%
D10*
%TO.P,D2,1,K*%
%TO.N,row1*%
X210750000Y-38100000D03*
D11*
%TO.P,D2,2,A*%
%TO.N,Net-(D2-Pad2)*%
X202950000Y-38100000D03*
%TD*%
%TO.P,U1,24,RAW*%
%TO.N,unconnected-(U1-Pad24)*%
X259080000Y-19367500D03*
%TO.P,U1,23,GND*%
%TO.N,unconnected-(U1-Pad23)*%
X259080000Y-21907500D03*
%TO.P,U1,22,RST*%
%TO.N,unconnected-(U1-Pad22)*%
X259080000Y-24447500D03*
%TO.P,U1,21,VCC*%
%TO.N,unconnected-(U1-Pad21)*%
X259080000Y-26987500D03*
%TO.P,U1,20,F4*%
%TO.N,unconnected-(U1-Pad20)*%
X259080000Y-29527500D03*
%TO.P,U1,19,F5*%
%TO.N,unconnected-(U1-Pad19)*%
X259080000Y-32067500D03*
%TO.P,U1,18,F6*%
%TO.N,unconnected-(U1-Pad18)*%
X259080000Y-34607500D03*
%TO.P,U1,17,F7*%
%TO.N,unconnected-(U1-Pad17)*%
X259080000Y-37147500D03*
%TO.P,U1,16,B1*%
%TO.N,unconnected-(U1-Pad16)*%
X259080000Y-39687500D03*
%TO.P,U1,15,B3*%
%TO.N,unconnected-(U1-Pad15)*%
X259080000Y-42227500D03*
%TO.P,U1,14,B2*%
%TO.N,row1*%
X259080000Y-44767500D03*
%TO.P,U1,13,B6*%
%TO.N,row0*%
X259080000Y-47307500D03*
%TO.P,U1,12,B5*%
%TO.N,col0*%
X274320000Y-47307500D03*
%TO.P,U1,11,B4*%
%TO.N,col1*%
X274320000Y-44767500D03*
%TO.P,U1,10,E6*%
%TO.N,col2*%
X274320000Y-42227500D03*
%TO.P,U1,9,D7*%
%TO.N,unconnected-(U1-Pad9)*%
X274320000Y-39687500D03*
%TO.P,U1,8,C6*%
%TO.N,unconnected-(U1-Pad8)*%
X274320000Y-37147500D03*
%TO.P,U1,7,D4*%
%TO.N,unconnected-(U1-Pad7)*%
X274320000Y-34607500D03*
%TO.P,U1,6,SCL*%
%TO.N,unconnected-(U1-Pad6)*%
X274320000Y-32067500D03*
%TO.P,U1,5,SDA*%
%TO.N,unconnected-(U1-Pad5)*%
X274320000Y-29527500D03*
%TO.P,U1,4,GND*%
%TO.N,+5V*%
X274320000Y-26987500D03*
%TO.P,U1,3,GND*%
X274320000Y-24447500D03*
%TO.P,U1,2,RX*%
%TO.N,unconnected-(U1-Pad2)*%
X274320000Y-21907500D03*
D10*
%TO.P,U1,1,TX*%
%TO.N,unconnected-(U1-Pad1)*%
X274320000Y-19367500D03*
%TD*%
D11*
%TO.P,D1,2,A*%
%TO.N,Net-(D1-Pad2)*%
X203268750Y-19050000D03*
D10*
%TO.P,D1,1,K*%
%TO.N,row0*%
X211068750Y-19050000D03*
%TD*%
D12*
%TO.N,+5V*%
X274320000Y-24447500D02*
X274320000Y-26987500D01*
%TO.N,row1*%
X248044239Y-39224511D02*
X249168750Y-38100000D01*
X231243261Y-39224511D02*
X248044239Y-39224511D01*
X230118750Y-38100000D02*
X231243261Y-39224511D01*
X228994239Y-39224511D02*
X230118750Y-38100000D01*
X211874511Y-39224511D02*
X228994239Y-39224511D01*
X210750000Y-38100000D02*
X211874511Y-39224511D01*
%TD*%
M02*
