%TF.GenerationSoftware,KiCad,Pcbnew,(6.0.4)*%
%TF.CreationDate,2022-04-16T12:25:48+05:30*%
%TF.ProjectId,another one,616e6f74-6865-4722-906f-6e652e6b6963,rev?*%
%TF.SameCoordinates,Original*%
%TF.FileFunction,Soldermask,Bot*%
%TF.FilePolarity,Negative*%
%FSLAX46Y46*%
G04 Gerber Fmt 4.6, Leading zero omitted, Abs format (unit mm)*
G04 Created by KiCad (PCBNEW (6.0.4)) date 2022-04-16 12:25:48*
%MOMM*%
%LPD*%
G01*
G04 APERTURE LIST*
G04 Aperture macros list*
%AMRoundRect*
0 Rectangle with rounded corners*
0 $1 Rounding radius*
0 $2 $3 $4 $5 $6 $7 $8 $9 X,Y pos of 4 corners*
0 Add a 4 corners polygon primitive as box body*
4,1,4,$2,$3,$4,$5,$6,$7,$8,$9,$2,$3,0*
0 Add four circle primitives for the rounded corners*
1,1,$1+$1,$2,$3*
1,1,$1+$1,$4,$5*
1,1,$1+$1,$6,$7*
1,1,$1+$1,$8,$9*
0 Add four rect primitives between the rounded corners*
20,1,$1+$1,$2,$3,$4,$5,0*
20,1,$1+$1,$4,$5,$6,$7,0*
20,1,$1+$1,$6,$7,$8,$9,0*
20,1,$1+$1,$8,$9,$2,$3,0*%
G04 Aperture macros list end*
%ADD10R,1.200000X1.200000*%
%ADD11R,1.600000X1.600000*%
%ADD12C,1.600000*%
%ADD13C,1.750000*%
%ADD14C,4.000000*%
%ADD15RoundRect,0.250000X-1.025000X-1.000000X1.025000X-1.000000X1.025000X1.000000X-1.025000X1.000000X0*%
%ADD16C,3.050000*%
G04 APERTURE END LIST*
D10*
%TO.C,D6*%
X243693750Y-38100000D03*
X246843750Y-38100000D03*
D11*
X249168750Y-38100000D03*
D12*
X241368750Y-38100000D03*
%TD*%
D10*
%TO.C,D5*%
X243693750Y-19050000D03*
X246843750Y-19050000D03*
D11*
X249168750Y-19050000D03*
D12*
X241368750Y-19050000D03*
%TD*%
D10*
%TO.C,D4*%
X224643750Y-38100000D03*
X227793750Y-38100000D03*
D11*
X230118750Y-38100000D03*
D12*
X222318750Y-38100000D03*
%TD*%
D10*
%TO.C,D3*%
X224643750Y-19050000D03*
X227793750Y-19050000D03*
D11*
X230118750Y-19050000D03*
D12*
X222318750Y-19050000D03*
%TD*%
D10*
%TO.C,D2*%
X205275000Y-38100000D03*
X208425000Y-38100000D03*
D11*
X210750000Y-38100000D03*
D12*
X202950000Y-38100000D03*
%TD*%
%TO.C,U1*%
X259080000Y-19367500D03*
X259080000Y-21907500D03*
X259080000Y-24447500D03*
X259080000Y-26987500D03*
X259080000Y-29527500D03*
X259080000Y-32067500D03*
X259080000Y-34607500D03*
X259080000Y-37147500D03*
X259080000Y-39687500D03*
X259080000Y-42227500D03*
X259080000Y-44767500D03*
X259080000Y-47307500D03*
X274320000Y-47307500D03*
X274320000Y-44767500D03*
X274320000Y-42227500D03*
X274320000Y-39687500D03*
X274320000Y-37147500D03*
X274320000Y-34607500D03*
X274320000Y-32067500D03*
X274320000Y-29527500D03*
X274320000Y-26987500D03*
X274320000Y-24447500D03*
X274320000Y-21907500D03*
D11*
X274320000Y-19367500D03*
%TD*%
D13*
%TO.C,K6*%
X250348750Y-47625000D03*
X240188750Y-47625000D03*
D14*
X245268750Y-47625000D03*
D15*
X251110750Y-42545000D03*
X238183750Y-45085000D03*
D16*
X247808750Y-42545000D03*
X241458750Y-45085000D03*
%TD*%
D13*
%TO.C,K5*%
X250348750Y-28575000D03*
X240188750Y-28575000D03*
D14*
X245268750Y-28575000D03*
D15*
X251110750Y-23495000D03*
X238183750Y-26035000D03*
D16*
X247808750Y-23495000D03*
X241458750Y-26035000D03*
%TD*%
D13*
%TO.C,K4*%
X231298750Y-47625000D03*
X221138750Y-47625000D03*
D14*
X226218750Y-47625000D03*
D15*
X232060750Y-42545000D03*
X219133750Y-45085000D03*
D16*
X228758750Y-42545000D03*
X222408750Y-45085000D03*
%TD*%
D13*
%TO.C,K3*%
X231298750Y-28575000D03*
X221138750Y-28575000D03*
D14*
X226218750Y-28575000D03*
D15*
X232060750Y-23495000D03*
X219133750Y-26035000D03*
D16*
X228758750Y-23495000D03*
X222408750Y-26035000D03*
%TD*%
D13*
%TO.C,K2*%
X212248750Y-47625000D03*
X202088750Y-47625000D03*
D14*
X207168750Y-47625000D03*
D15*
X213010750Y-42545000D03*
X200083750Y-45085000D03*
D16*
X209708750Y-42545000D03*
X203358750Y-45085000D03*
%TD*%
D13*
%TO.C,K1*%
X212248750Y-28575000D03*
X202088750Y-28575000D03*
D14*
X207168750Y-28575000D03*
D15*
X213010750Y-23495000D03*
X200083750Y-26035000D03*
D16*
X209708750Y-23495000D03*
X203358750Y-26035000D03*
%TD*%
D12*
%TO.C,D1*%
X203268750Y-19050000D03*
D11*
X211068750Y-19050000D03*
D10*
X208743750Y-19050000D03*
X205593750Y-19050000D03*
%TD*%
M02*
