M48
; DRILL file {KiCad (6.0.4)} date Sat Apr 16 12:26:08 2022
; FORMAT={-:-/ absolute / inch / decimal}
; #@! TF.CreationDate,2022-04-16T12:26:08+05:30
; #@! TF.GenerationSoftware,Kicad,Pcbnew,(6.0.4)
; #@! TF.FileFunction,NonPlated,1,2,NPTH
FMAT,2
INCH
; #@! TA.AperFunction,NonPlated,NPTH,ComponentDrill
T1C0.0689
; #@! TA.AperFunction,NonPlated,NPTH,ComponentDrill
T2C0.1201
; #@! TA.AperFunction,NonPlated,NPTH,ComponentDrill
T3C0.1575
%
G90
G05
T1
X7.9562Y-1.125
X7.9562Y-1.875
X8.3562Y-1.125
X8.3562Y-1.875
X8.7062Y-1.125
X8.7062Y-1.875
X9.1062Y-1.125
X9.1062Y-1.875
X9.4562Y-1.125
X9.4562Y-1.875
X9.8562Y-1.125
X9.8562Y-1.875
T2
X8.0062Y-1.025
X8.0062Y-1.775
X8.2562Y-0.925
X8.2562Y-1.675
X8.7562Y-1.025
X8.7562Y-1.775
X9.0062Y-0.925
X9.0062Y-1.675
X9.5062Y-1.025
X9.5062Y-1.775
X9.7562Y-0.925
X9.7562Y-1.675
T3
X8.1562Y-1.125
X8.1562Y-1.875
X8.9062Y-1.125
X8.9062Y-1.875
X9.6562Y-1.125
X9.6562Y-1.875
T0
M30
