%TF.GenerationSoftware,KiCad,Pcbnew,(6.0.4)*%
%TF.CreationDate,2022-04-16T12:25:48+05:30*%
%TF.ProjectId,another one,616e6f74-6865-4722-906f-6e652e6b6963,rev?*%
%TF.SameCoordinates,Original*%
%TF.FileFunction,Copper,L2,Bot*%
%TF.FilePolarity,Positive*%
%FSLAX46Y46*%
G04 Gerber Fmt 4.6, Leading zero omitted, Abs format (unit mm)*
G04 Created by KiCad (PCBNEW (6.0.4)) date 2022-04-16 12:25:48*
%MOMM*%
%LPD*%
G01*
G04 APERTURE LIST*
G04 Aperture macros list*
%AMRoundRect*
0 Rectangle with rounded corners*
0 $1 Rounding radius*
0 $2 $3 $4 $5 $6 $7 $8 $9 X,Y pos of 4 corners*
0 Add a 4 corners polygon primitive as box body*
4,1,4,$2,$3,$4,$5,$6,$7,$8,$9,$2,$3,0*
0 Add four circle primitives for the rounded corners*
1,1,$1+$1,$2,$3*
1,1,$1+$1,$4,$5*
1,1,$1+$1,$6,$7*
1,1,$1+$1,$8,$9*
0 Add four rect primitives between the rounded corners*
20,1,$1+$1,$2,$3,$4,$5,0*
20,1,$1+$1,$4,$5,$6,$7,0*
20,1,$1+$1,$6,$7,$8,$9,0*
20,1,$1+$1,$8,$9,$2,$3,0*%
G04 Aperture macros list end*
%TA.AperFunction,SMDPad,CuDef*%
%ADD10R,1.200000X1.200000*%
%TD*%
%TA.AperFunction,ComponentPad*%
%ADD11R,1.600000X1.600000*%
%TD*%
%TA.AperFunction,ComponentPad*%
%ADD12C,1.600000*%
%TD*%
%TA.AperFunction,SMDPad,CuDef*%
%ADD13R,2.500000X0.500000*%
%TD*%
%TA.AperFunction,SMDPad,CuDef*%
%ADD14RoundRect,0.250000X-1.025000X-1.000000X1.025000X-1.000000X1.025000X1.000000X-1.025000X1.000000X0*%
%TD*%
%TA.AperFunction,Conductor*%
%ADD15C,0.250000*%
%TD*%
G04 APERTURE END LIST*
D10*
%TO.P,D6,2,A*%
%TO.N,Net-(D6-Pad2)*%
X243693750Y-38100000D03*
%TO.P,D6,1,K*%
%TO.N,row1*%
X246843750Y-38100000D03*
D11*
X249168750Y-38100000D03*
D12*
%TO.P,D6,2,A*%
%TO.N,Net-(D6-Pad2)*%
X241368750Y-38100000D03*
D13*
%TO.P,D6,1,K*%
%TO.N,row1*%
X247968750Y-38100000D03*
%TO.P,D6,2,A*%
%TO.N,Net-(D6-Pad2)*%
X242568750Y-38100000D03*
%TD*%
D10*
%TO.P,D5,2,A*%
%TO.N,Net-(D5-Pad2)*%
X243693750Y-19050000D03*
%TO.P,D5,1,K*%
%TO.N,row0*%
X246843750Y-19050000D03*
D11*
X249168750Y-19050000D03*
D12*
%TO.P,D5,2,A*%
%TO.N,Net-(D5-Pad2)*%
X241368750Y-19050000D03*
D13*
%TO.P,D5,1,K*%
%TO.N,row0*%
X247968750Y-19050000D03*
%TO.P,D5,2,A*%
%TO.N,Net-(D5-Pad2)*%
X242568750Y-19050000D03*
%TD*%
D10*
%TO.P,D4,2,A*%
%TO.N,Net-(D4-Pad2)*%
X224643750Y-38100000D03*
%TO.P,D4,1,K*%
%TO.N,row1*%
X227793750Y-38100000D03*
D11*
X230118750Y-38100000D03*
D12*
%TO.P,D4,2,A*%
%TO.N,Net-(D4-Pad2)*%
X222318750Y-38100000D03*
D13*
%TO.P,D4,1,K*%
%TO.N,row1*%
X228918750Y-38100000D03*
%TO.P,D4,2,A*%
%TO.N,Net-(D4-Pad2)*%
X223518750Y-38100000D03*
%TD*%
D10*
%TO.P,D3,2,A*%
%TO.N,Net-(D3-Pad2)*%
X224643750Y-19050000D03*
%TO.P,D3,1,K*%
%TO.N,row0*%
X227793750Y-19050000D03*
D11*
X230118750Y-19050000D03*
D12*
%TO.P,D3,2,A*%
%TO.N,Net-(D3-Pad2)*%
X222318750Y-19050000D03*
D13*
%TO.P,D3,1,K*%
%TO.N,row0*%
X228918750Y-19050000D03*
%TO.P,D3,2,A*%
%TO.N,Net-(D3-Pad2)*%
X223518750Y-19050000D03*
%TD*%
D10*
%TO.P,D2,2,A*%
%TO.N,Net-(D2-Pad2)*%
X205275000Y-38100000D03*
%TO.P,D2,1,K*%
%TO.N,row1*%
X208425000Y-38100000D03*
D11*
X210750000Y-38100000D03*
D12*
%TO.P,D2,2,A*%
%TO.N,Net-(D2-Pad2)*%
X202950000Y-38100000D03*
D13*
%TO.P,D2,1,K*%
%TO.N,row1*%
X209550000Y-38100000D03*
%TO.P,D2,2,A*%
%TO.N,Net-(D2-Pad2)*%
X204150000Y-38100000D03*
%TD*%
D12*
%TO.P,U1,24,RAW*%
%TO.N,unconnected-(U1-Pad24)*%
X259080000Y-19367500D03*
%TO.P,U1,23,GND*%
%TO.N,unconnected-(U1-Pad23)*%
X259080000Y-21907500D03*
%TO.P,U1,22,RST*%
%TO.N,unconnected-(U1-Pad22)*%
X259080000Y-24447500D03*
%TO.P,U1,21,VCC*%
%TO.N,unconnected-(U1-Pad21)*%
X259080000Y-26987500D03*
%TO.P,U1,20,F4*%
%TO.N,unconnected-(U1-Pad20)*%
X259080000Y-29527500D03*
%TO.P,U1,19,F5*%
%TO.N,unconnected-(U1-Pad19)*%
X259080000Y-32067500D03*
%TO.P,U1,18,F6*%
%TO.N,unconnected-(U1-Pad18)*%
X259080000Y-34607500D03*
%TO.P,U1,17,F7*%
%TO.N,unconnected-(U1-Pad17)*%
X259080000Y-37147500D03*
%TO.P,U1,16,B1*%
%TO.N,unconnected-(U1-Pad16)*%
X259080000Y-39687500D03*
%TO.P,U1,15,B3*%
%TO.N,unconnected-(U1-Pad15)*%
X259080000Y-42227500D03*
%TO.P,U1,14,B2*%
%TO.N,row1*%
X259080000Y-44767500D03*
%TO.P,U1,13,B6*%
%TO.N,row0*%
X259080000Y-47307500D03*
%TO.P,U1,12,B5*%
%TO.N,col0*%
X274320000Y-47307500D03*
%TO.P,U1,11,B4*%
%TO.N,col1*%
X274320000Y-44767500D03*
%TO.P,U1,10,E6*%
%TO.N,col2*%
X274320000Y-42227500D03*
%TO.P,U1,9,D7*%
%TO.N,unconnected-(U1-Pad9)*%
X274320000Y-39687500D03*
%TO.P,U1,8,C6*%
%TO.N,unconnected-(U1-Pad8)*%
X274320000Y-37147500D03*
%TO.P,U1,7,D4*%
%TO.N,unconnected-(U1-Pad7)*%
X274320000Y-34607500D03*
%TO.P,U1,6,SCL*%
%TO.N,unconnected-(U1-Pad6)*%
X274320000Y-32067500D03*
%TO.P,U1,5,SDA*%
%TO.N,unconnected-(U1-Pad5)*%
X274320000Y-29527500D03*
%TO.P,U1,4,GND*%
%TO.N,+5V*%
X274320000Y-26987500D03*
%TO.P,U1,3,GND*%
X274320000Y-24447500D03*
%TO.P,U1,2,RX*%
%TO.N,unconnected-(U1-Pad2)*%
X274320000Y-21907500D03*
D11*
%TO.P,U1,1,TX*%
%TO.N,unconnected-(U1-Pad1)*%
X274320000Y-19367500D03*
%TD*%
D14*
%TO.P,K6,2*%
%TO.N,Net-(D6-Pad2)*%
X251110750Y-42545000D03*
%TO.P,K6,1*%
%TO.N,col2*%
X238183750Y-45085000D03*
%TD*%
%TO.P,K5,2*%
%TO.N,Net-(D5-Pad2)*%
X251110750Y-23495000D03*
%TO.P,K5,1*%
%TO.N,col2*%
X238183750Y-26035000D03*
%TD*%
%TO.P,K4,2*%
%TO.N,Net-(D4-Pad2)*%
X232060750Y-42545000D03*
%TO.P,K4,1*%
%TO.N,col1*%
X219133750Y-45085000D03*
%TD*%
%TO.P,K3,2*%
%TO.N,Net-(D3-Pad2)*%
X232060750Y-23495000D03*
%TO.P,K3,1*%
%TO.N,col1*%
X219133750Y-26035000D03*
%TD*%
%TO.P,K2,2*%
%TO.N,Net-(D2-Pad2)*%
X213010750Y-42545000D03*
%TO.P,K2,1*%
%TO.N,col0*%
X200083750Y-45085000D03*
%TD*%
%TO.P,K1,2*%
%TO.N,Net-(D1-Pad2)*%
X213010750Y-23495000D03*
%TO.P,K1,1*%
%TO.N,col0*%
X200083750Y-26035000D03*
%TD*%
D13*
%TO.P,D1,2,A*%
%TO.N,Net-(D1-Pad2)*%
X204468750Y-19050000D03*
%TO.P,D1,1,K*%
%TO.N,row0*%
X209868750Y-19050000D03*
D12*
%TO.P,D1,2,A*%
%TO.N,Net-(D1-Pad2)*%
X203268750Y-19050000D03*
D11*
%TO.P,D1,1,K*%
%TO.N,row0*%
X211068750Y-19050000D03*
D10*
X208743750Y-19050000D03*
%TO.P,D1,2,A*%
%TO.N,Net-(D1-Pad2)*%
X205593750Y-19050000D03*
%TD*%
D15*
%TO.N,Net-(D3-Pad2)*%
X228540261Y-19974511D02*
X232060750Y-23495000D01*
X223243261Y-19974511D02*
X228540261Y-19974511D01*
X222318750Y-19050000D02*
X223243261Y-19974511D01*
%TO.N,row0*%
X248044239Y-17925489D02*
X249168750Y-19050000D01*
X231243261Y-17925489D02*
X248044239Y-17925489D01*
X230118750Y-19050000D02*
X231243261Y-17925489D01*
X212193261Y-17925489D02*
X228994239Y-17925489D01*
X211068750Y-19050000D02*
X212193261Y-17925489D01*
X228994239Y-17925489D02*
X230118750Y-19050000D01*
%TO.N,col2*%
X238183750Y-26035000D02*
X238183750Y-45085000D01*
%TO.N,col1*%
X219133750Y-26035000D02*
X219133750Y-45085000D01*
%TO.N,col0*%
X200083750Y-26035000D02*
X200083750Y-45085000D01*
%TO.N,Net-(D2-Pad2)*%
X203874511Y-39024511D02*
X209490261Y-39024511D01*
X209490261Y-39024511D02*
X213010750Y-42545000D01*
X202950000Y-38100000D02*
X203874511Y-39024511D01*
%TO.N,Net-(D4-Pad2)*%
X228540261Y-39024511D02*
X232060750Y-42545000D01*
X223243261Y-39024511D02*
X228540261Y-39024511D01*
X222318750Y-38100000D02*
X223243261Y-39024511D01*
%TO.N,Net-(D6-Pad2)*%
X247590261Y-39024511D02*
X251110750Y-42545000D01*
X242293261Y-39024511D02*
X247590261Y-39024511D01*
X241368750Y-38100000D02*
X242293261Y-39024511D01*
%TO.N,Net-(D5-Pad2)*%
X247590261Y-19974511D02*
X251110750Y-23495000D01*
X242293261Y-19974511D02*
X247590261Y-19974511D01*
X241368750Y-19050000D02*
X242293261Y-19974511D01*
%TO.N,Net-(D1-Pad2)*%
X209490261Y-19974511D02*
X213010750Y-23495000D01*
X204193261Y-19974511D02*
X209490261Y-19974511D01*
X203268750Y-19050000D02*
X204193261Y-19974511D01*
%TO.N,row0*%
X261130489Y-18242989D02*
X249975761Y-18242989D01*
X261937500Y-19050000D02*
X261130489Y-18242989D01*
X249975761Y-18242989D02*
X249168750Y-19050000D01*
X261937500Y-44450000D02*
X261937500Y-19050000D01*
X259080000Y-47307500D02*
X261937500Y-44450000D01*
%TO.N,row1*%
X256698750Y-44767500D02*
X259080000Y-44767500D01*
X254793750Y-42862500D02*
X256698750Y-44767500D01*
X254793750Y-38100000D02*
X254793750Y-42862500D01*
X249168750Y-38100000D02*
X254793750Y-38100000D01*
%TO.N,col2*%
X238125000Y-52387500D02*
X238125000Y-45143750D01*
X266700000Y-52387500D02*
X238125000Y-52387500D01*
X269081250Y-45243750D02*
X269081250Y-50006250D01*
X238125000Y-45143750D02*
X238183750Y-45085000D01*
X272097500Y-42227500D02*
X269081250Y-45243750D01*
X269081250Y-50006250D02*
X266700000Y-52387500D01*
X274320000Y-42227500D02*
X272097500Y-42227500D01*
%TO.N,col1*%
X271938750Y-44767500D02*
X274320000Y-44767500D01*
X269081250Y-54768750D02*
X271462500Y-52387500D01*
X219075000Y-54768750D02*
X269081250Y-54768750D01*
X271462500Y-52387500D02*
X271462500Y-45243750D01*
X219133750Y-54710000D02*
X219075000Y-54768750D01*
X219133750Y-45085000D02*
X219133750Y-54710000D01*
X271462500Y-45243750D02*
X271938750Y-44767500D01*
%TO.N,col0*%
X271462500Y-57150000D02*
X274320000Y-54292500D01*
X200025000Y-57150000D02*
X271462500Y-57150000D01*
X274320000Y-54292500D02*
X274320000Y-47307500D01*
X200083750Y-57091250D02*
X200025000Y-57150000D01*
X200083750Y-45085000D02*
X200083750Y-57091250D01*
%TD*%
M02*
