M48
; DRILL file {KiCad (6.0.4)} date Thu Apr 14 11:50:07 2022
; FORMAT={-:-/ absolute / inch / decimal}
; #@! TF.CreationDate,2022-04-14T11:50:07+05:30
; #@! TF.GenerationSoftware,Kicad,Pcbnew,(6.0.4)
; #@! TF.FileFunction,Plated,1,2,PTH
FMAT,2
INCH
; #@! TA.AperFunction,Plated,PTH,ComponentDrill
T1C0.0276
; #@! TA.AperFunction,Plated,PTH,ComponentDrill
T2C0.0433
; #@! TA.AperFunction,Plated,PTH,ComponentDrill
T3C0.0591
%
G90
G05
T1
X4.4277Y-1.6875
X4.4402Y-2.4375
X4.7347Y-1.6875
X4.7473Y-2.4375
X5.1902Y-1.6875
X5.1902Y-2.4375
X5.4973Y-1.6875
X5.4973Y-2.4375
X5.9085Y-1.6875
X5.9085Y-2.4375
X6.2156Y-1.6875
X6.2156Y-2.4375
T2
X6.5438Y-1.7
X6.5438Y-1.8
X6.5438Y-1.9
X6.5438Y-2.0
X6.5438Y-2.1
X6.5438Y-2.2
X6.5438Y-2.3
X6.5438Y-2.4
X6.5438Y-2.5
X6.5438Y-2.6
X6.5438Y-2.7
X6.5438Y-2.8
X7.1437Y-1.7
X7.1437Y-1.8
X7.1437Y-1.9
X7.1437Y-2.0
X7.1437Y-2.1
X7.1437Y-2.2
X7.1437Y-2.3
X7.1437Y-2.4
X7.1437Y-2.5
X7.1437Y-2.6
X7.1437Y-2.7
X7.1437Y-2.8
T3
X4.4375Y-1.975
X4.4375Y-2.725
X4.6875Y-1.875
X4.6875Y-2.625
X5.1875Y-1.975
X5.1875Y-2.725
X5.4375Y-1.875
X5.4375Y-2.625
X5.9375Y-1.975
X5.9375Y-2.725
X6.1875Y-1.875
X6.1875Y-2.625
T0
M30
