%TF.GenerationSoftware,KiCad,Pcbnew,(6.0.4)*%
%TF.CreationDate,2022-04-14T11:49:59+05:30*%
%TF.ProjectId,6keymacro,366b6579-6d61-4637-926f-2e6b69636164,rev?*%
%TF.SameCoordinates,Original*%
%TF.FileFunction,Legend,Top*%
%TF.FilePolarity,Positive*%
%FSLAX46Y46*%
G04 Gerber Fmt 4.6, Leading zero omitted, Abs format (unit mm)*
G04 Created by KiCad (PCBNEW (6.0.4)) date 2022-04-14 11:49:59*
%MOMM*%
%LPD*%
G01*
G04 APERTURE LIST*
%ADD10C,0.150000*%
%ADD11C,0.120000*%
G04 APERTURE END LIST*
D10*
%TO.C,REF\u002A\u002A*%
X162750666Y-74468380D02*
X162417333Y-73992190D01*
X162179238Y-74468380D02*
X162179238Y-73468380D01*
X162560190Y-73468380D01*
X162655428Y-73516000D01*
X162703047Y-73563619D01*
X162750666Y-73658857D01*
X162750666Y-73801714D01*
X162703047Y-73896952D01*
X162655428Y-73944571D01*
X162560190Y-73992190D01*
X162179238Y-73992190D01*
X163179238Y-73944571D02*
X163512571Y-73944571D01*
X163655428Y-74468380D02*
X163179238Y-74468380D01*
X163179238Y-73468380D01*
X163655428Y-73468380D01*
X164417333Y-73944571D02*
X164084000Y-73944571D01*
X164084000Y-74468380D02*
X164084000Y-73468380D01*
X164560190Y-73468380D01*
X165084000Y-73468380D02*
X165084000Y-73706476D01*
X164845904Y-73611238D02*
X165084000Y-73706476D01*
X165322095Y-73611238D01*
X164941142Y-73896952D02*
X165084000Y-73706476D01*
X165226857Y-73896952D01*
X165845904Y-73468380D02*
X165845904Y-73706476D01*
X165607809Y-73611238D02*
X165845904Y-73706476D01*
X166084000Y-73611238D01*
X165703047Y-73896952D02*
X165845904Y-73706476D01*
X165988761Y-73896952D01*
X124650666Y-74468380D02*
X124317333Y-73992190D01*
X124079238Y-74468380D02*
X124079238Y-73468380D01*
X124460190Y-73468380D01*
X124555428Y-73516000D01*
X124603047Y-73563619D01*
X124650666Y-73658857D01*
X124650666Y-73801714D01*
X124603047Y-73896952D01*
X124555428Y-73944571D01*
X124460190Y-73992190D01*
X124079238Y-73992190D01*
X125079238Y-73944571D02*
X125412571Y-73944571D01*
X125555428Y-74468380D02*
X125079238Y-74468380D01*
X125079238Y-73468380D01*
X125555428Y-73468380D01*
X126317333Y-73944571D02*
X125984000Y-73944571D01*
X125984000Y-74468380D02*
X125984000Y-73468380D01*
X126460190Y-73468380D01*
X126984000Y-73468380D02*
X126984000Y-73706476D01*
X126745904Y-73611238D02*
X126984000Y-73706476D01*
X127222095Y-73611238D01*
X126841142Y-73896952D02*
X126984000Y-73706476D01*
X127126857Y-73896952D01*
X127745904Y-73468380D02*
X127745904Y-73706476D01*
X127507809Y-73611238D02*
X127745904Y-73706476D01*
X127984000Y-73611238D01*
X127603047Y-73896952D02*
X127745904Y-73706476D01*
X127888761Y-73896952D01*
X143700666Y-74468380D02*
X143367333Y-73992190D01*
X143129238Y-74468380D02*
X143129238Y-73468380D01*
X143510190Y-73468380D01*
X143605428Y-73516000D01*
X143653047Y-73563619D01*
X143700666Y-73658857D01*
X143700666Y-73801714D01*
X143653047Y-73896952D01*
X143605428Y-73944571D01*
X143510190Y-73992190D01*
X143129238Y-73992190D01*
X144129238Y-73944571D02*
X144462571Y-73944571D01*
X144605428Y-74468380D02*
X144129238Y-74468380D01*
X144129238Y-73468380D01*
X144605428Y-73468380D01*
X145367333Y-73944571D02*
X145034000Y-73944571D01*
X145034000Y-74468380D02*
X145034000Y-73468380D01*
X145510190Y-73468380D01*
X146034000Y-73468380D02*
X146034000Y-73706476D01*
X145795904Y-73611238D02*
X146034000Y-73706476D01*
X146272095Y-73611238D01*
X145891142Y-73896952D02*
X146034000Y-73706476D01*
X146176857Y-73896952D01*
X146795904Y-73468380D02*
X146795904Y-73706476D01*
X146557809Y-73611238D02*
X146795904Y-73706476D01*
X147034000Y-73611238D01*
X146653047Y-73896952D02*
X146795904Y-73706476D01*
X146938761Y-73896952D01*
X143700666Y-44496380D02*
X143367333Y-44020190D01*
X143129238Y-44496380D02*
X143129238Y-43496380D01*
X143510190Y-43496380D01*
X143605428Y-43544000D01*
X143653047Y-43591619D01*
X143700666Y-43686857D01*
X143700666Y-43829714D01*
X143653047Y-43924952D01*
X143605428Y-43972571D01*
X143510190Y-44020190D01*
X143129238Y-44020190D01*
X144129238Y-43972571D02*
X144462571Y-43972571D01*
X144605428Y-44496380D02*
X144129238Y-44496380D01*
X144129238Y-43496380D01*
X144605428Y-43496380D01*
X145367333Y-43972571D02*
X145034000Y-43972571D01*
X145034000Y-44496380D02*
X145034000Y-43496380D01*
X145510190Y-43496380D01*
X146034000Y-43496380D02*
X146034000Y-43734476D01*
X145795904Y-43639238D02*
X146034000Y-43734476D01*
X146272095Y-43639238D01*
X145891142Y-43924952D02*
X146034000Y-43734476D01*
X146176857Y-43924952D01*
X146795904Y-43496380D02*
X146795904Y-43734476D01*
X146557809Y-43639238D02*
X146795904Y-43734476D01*
X147034000Y-43639238D01*
X146653047Y-43924952D02*
X146795904Y-43734476D01*
X146938761Y-43924952D01*
X124650666Y-44496380D02*
X124317333Y-44020190D01*
X124079238Y-44496380D02*
X124079238Y-43496380D01*
X124460190Y-43496380D01*
X124555428Y-43544000D01*
X124603047Y-43591619D01*
X124650666Y-43686857D01*
X124650666Y-43829714D01*
X124603047Y-43924952D01*
X124555428Y-43972571D01*
X124460190Y-44020190D01*
X124079238Y-44020190D01*
X125079238Y-43972571D02*
X125412571Y-43972571D01*
X125555428Y-44496380D02*
X125079238Y-44496380D01*
X125079238Y-43496380D01*
X125555428Y-43496380D01*
X126317333Y-43972571D02*
X125984000Y-43972571D01*
X125984000Y-44496380D02*
X125984000Y-43496380D01*
X126460190Y-43496380D01*
X126984000Y-43496380D02*
X126984000Y-43734476D01*
X126745904Y-43639238D02*
X126984000Y-43734476D01*
X127222095Y-43639238D01*
X126841142Y-43924952D02*
X126984000Y-43734476D01*
X127126857Y-43924952D01*
X127745904Y-43496380D02*
X127745904Y-43734476D01*
X127507809Y-43639238D02*
X127745904Y-43734476D01*
X127984000Y-43639238D01*
X127603047Y-43924952D02*
X127745904Y-43734476D01*
X127888761Y-43924952D01*
%TO.C,K5*%
X153884404Y-45283380D02*
X153884404Y-44283380D01*
X154455833Y-45283380D02*
X154027261Y-44711952D01*
X154455833Y-44283380D02*
X153884404Y-44854809D01*
X155360595Y-44283380D02*
X154884404Y-44283380D01*
X154836785Y-44759571D01*
X154884404Y-44711952D01*
X154979642Y-44664333D01*
X155217738Y-44664333D01*
X155312976Y-44711952D01*
X155360595Y-44759571D01*
X155408214Y-44854809D01*
X155408214Y-45092904D01*
X155360595Y-45188142D01*
X155312976Y-45235761D01*
X155217738Y-45283380D01*
X154979642Y-45283380D01*
X154884404Y-45235761D01*
X154836785Y-45188142D01*
%TO.C,K4*%
X134834404Y-64333380D02*
X134834404Y-63333380D01*
X135405833Y-64333380D02*
X134977261Y-63761952D01*
X135405833Y-63333380D02*
X134834404Y-63904809D01*
X136262976Y-63666714D02*
X136262976Y-64333380D01*
X136024880Y-63285761D02*
X135786785Y-64000047D01*
X136405833Y-64000047D01*
%TO.C,K1*%
X115784404Y-45283380D02*
X115784404Y-44283380D01*
X116355833Y-45283380D02*
X115927261Y-44711952D01*
X116355833Y-44283380D02*
X115784404Y-44854809D01*
X117308214Y-45283380D02*
X116736785Y-45283380D01*
X117022500Y-45283380D02*
X117022500Y-44283380D01*
X116927261Y-44426238D01*
X116832023Y-44521476D01*
X116736785Y-44569095D01*
%TO.C,K2*%
X115784404Y-64333380D02*
X115784404Y-63333380D01*
X116355833Y-64333380D02*
X115927261Y-63761952D01*
X116355833Y-63333380D02*
X115784404Y-63904809D01*
X116736785Y-63428619D02*
X116784404Y-63381000D01*
X116879642Y-63333380D01*
X117117738Y-63333380D01*
X117212976Y-63381000D01*
X117260595Y-63428619D01*
X117308214Y-63523857D01*
X117308214Y-63619095D01*
X117260595Y-63761952D01*
X116689166Y-64333380D01*
X117308214Y-64333380D01*
%TO.C,K3*%
X134834404Y-45283380D02*
X134834404Y-44283380D01*
X135405833Y-45283380D02*
X134977261Y-44711952D01*
X135405833Y-44283380D02*
X134834404Y-44854809D01*
X135739166Y-44283380D02*
X136358214Y-44283380D01*
X136024880Y-44664333D01*
X136167738Y-44664333D01*
X136262976Y-44711952D01*
X136310595Y-44759571D01*
X136358214Y-44854809D01*
X136358214Y-45092904D01*
X136310595Y-45188142D01*
X136262976Y-45235761D01*
X136167738Y-45283380D01*
X135882023Y-45283380D01*
X135786785Y-45235761D01*
X135739166Y-45188142D01*
%TO.C,K6*%
X153884404Y-64333380D02*
X153884404Y-63333380D01*
X154455833Y-64333380D02*
X154027261Y-63761952D01*
X154455833Y-63333380D02*
X153884404Y-63904809D01*
X155312976Y-63333380D02*
X155122500Y-63333380D01*
X155027261Y-63381000D01*
X154979642Y-63428619D01*
X154884404Y-63571476D01*
X154836785Y-63761952D01*
X154836785Y-64142904D01*
X154884404Y-64238142D01*
X154932023Y-64285761D01*
X155027261Y-64333380D01*
X155217738Y-64333380D01*
X155312976Y-64285761D01*
X155360595Y-64238142D01*
X155408214Y-64142904D01*
X155408214Y-63904809D01*
X155360595Y-63809571D01*
X155312976Y-63761952D01*
X155217738Y-63714333D01*
X155027261Y-63714333D01*
X154932023Y-63761952D01*
X154884404Y-63809571D01*
X154836785Y-63904809D01*
D11*
%TO.C,K5*%
X147637500Y-45720000D02*
X161607500Y-45720000D01*
X161607500Y-45720000D02*
X161607500Y-59690000D01*
X147637500Y-59690000D02*
X147637500Y-45720000D01*
X161607500Y-59690000D02*
X147637500Y-59690000D01*
%TO.C,K4*%
X142557500Y-64770000D02*
X142557500Y-78740000D01*
X142557500Y-78740000D02*
X128587500Y-78740000D01*
X128587500Y-64770000D02*
X142557500Y-64770000D01*
X128587500Y-78740000D02*
X128587500Y-64770000D01*
%TO.C,K1*%
X123507500Y-45720000D02*
X123507500Y-59690000D01*
X109537500Y-45720000D02*
X123507500Y-45720000D01*
X109537500Y-59690000D02*
X109537500Y-45720000D01*
X123507500Y-59690000D02*
X109537500Y-59690000D01*
%TO.C,K2*%
X109537500Y-78740000D02*
X109537500Y-64770000D01*
X109537500Y-64770000D02*
X123507500Y-64770000D01*
X123507500Y-78740000D02*
X109537500Y-78740000D01*
X123507500Y-64770000D02*
X123507500Y-78740000D01*
%TO.C,K3*%
X142557500Y-59690000D02*
X128587500Y-59690000D01*
X128587500Y-59690000D02*
X128587500Y-45720000D01*
X128587500Y-45720000D02*
X142557500Y-45720000D01*
X142557500Y-45720000D02*
X142557500Y-59690000D01*
%TO.C,K6*%
X147637500Y-78740000D02*
X147637500Y-64770000D01*
X161607500Y-78740000D02*
X147637500Y-78740000D01*
X147637500Y-64770000D02*
X161607500Y-64770000D01*
X161607500Y-64770000D02*
X161607500Y-78740000D01*
D10*
%TO.C,U1*%
X182721250Y-41910000D02*
X177641250Y-41910000D01*
X177641250Y-41910000D02*
X177641250Y-39370000D01*
X182721250Y-72390000D02*
X182721250Y-41910000D01*
X177641250Y-39370000D02*
X170021250Y-39370000D01*
X170021250Y-39370000D02*
X170021250Y-41910000D01*
X164941250Y-72390000D02*
X182721250Y-72390000D01*
X170021250Y-41910000D02*
X164941250Y-41910000D01*
X164941250Y-41910000D02*
X164941250Y-72390000D01*
%TD*%
M02*
